<?xml version="1.0" encoding="utf-8"?>
<svg xmlns="http://www.w3.org/2000/svg" xmlns:xlink="http://www.w3.org/1999/xlink" width="700" height="600" viewBox="0 0 2800 2400">
<defs>
  <clipPath id="clip920">
    <rect x="0" y="0" width="2800" height="2400"/>
  </clipPath>
</defs>
<path clip-path="url(#clip920)" d="M0 2400 L2800 2400 L2800 1.33227e-13 L0 1.33227e-13  Z" fill="#ffffff" fill-rule="evenodd" fill-opacity="1"/>
<defs>
  <clipPath id="clip921">
    <rect x="560" y="0" width="1961" height="1961"/>
  </clipPath>
</defs>
<path clip-path="url(#clip920)" d="M371.652 2189.08 L2752.76 2189.08 L2752.76 140.752 L371.652 140.752  Z" fill="#ffffff" fill-rule="evenodd" fill-opacity="1"/>
<defs>
  <clipPath id="clip922">
    <rect x="371" y="140" width="2382" height="2049"/>
  </clipPath>
</defs>
<polyline clip-path="url(#clip920)" style="stroke:#000000; stroke-linecap:round; stroke-linejoin:round; stroke-width:4; stroke-opacity:1; fill:none" points="371.652,2189.08 2752.76,2189.08 "/>
<polyline clip-path="url(#clip920)" style="stroke:#000000; stroke-linecap:round; stroke-linejoin:round; stroke-width:4; stroke-opacity:1; fill:none" points="439.042,2189.08 439.042,2170.19 "/>
<polyline clip-path="url(#clip920)" style="stroke:#000000; stroke-linecap:round; stroke-linejoin:round; stroke-width:4; stroke-opacity:1; fill:none" points="557.269,2189.08 557.269,2170.19 "/>
<polyline clip-path="url(#clip920)" style="stroke:#000000; stroke-linecap:round; stroke-linejoin:round; stroke-width:4; stroke-opacity:1; fill:none" points="675.497,2189.08 675.497,2170.19 "/>
<polyline clip-path="url(#clip920)" style="stroke:#000000; stroke-linecap:round; stroke-linejoin:round; stroke-width:4; stroke-opacity:1; fill:none" points="793.724,2189.08 793.724,2170.19 "/>
<polyline clip-path="url(#clip920)" style="stroke:#000000; stroke-linecap:round; stroke-linejoin:round; stroke-width:4; stroke-opacity:1; fill:none" points="911.952,2189.08 911.952,2170.19 "/>
<polyline clip-path="url(#clip920)" style="stroke:#000000; stroke-linecap:round; stroke-linejoin:round; stroke-width:4; stroke-opacity:1; fill:none" points="1030.18,2189.08 1030.18,2170.19 "/>
<polyline clip-path="url(#clip920)" style="stroke:#000000; stroke-linecap:round; stroke-linejoin:round; stroke-width:4; stroke-opacity:1; fill:none" points="1148.41,2189.08 1148.41,2170.19 "/>
<polyline clip-path="url(#clip920)" style="stroke:#000000; stroke-linecap:round; stroke-linejoin:round; stroke-width:4; stroke-opacity:1; fill:none" points="1266.63,2189.08 1266.63,2170.19 "/>
<polyline clip-path="url(#clip920)" style="stroke:#000000; stroke-linecap:round; stroke-linejoin:round; stroke-width:4; stroke-opacity:1; fill:none" points="1384.86,2189.08 1384.86,2170.19 "/>
<polyline clip-path="url(#clip920)" style="stroke:#000000; stroke-linecap:round; stroke-linejoin:round; stroke-width:4; stroke-opacity:1; fill:none" points="1503.09,2189.08 1503.09,2170.19 "/>
<polyline clip-path="url(#clip920)" style="stroke:#000000; stroke-linecap:round; stroke-linejoin:round; stroke-width:4; stroke-opacity:1; fill:none" points="1621.32,2189.08 1621.32,2170.19 "/>
<polyline clip-path="url(#clip920)" style="stroke:#000000; stroke-linecap:round; stroke-linejoin:round; stroke-width:4; stroke-opacity:1; fill:none" points="1739.55,2189.08 1739.55,2170.19 "/>
<polyline clip-path="url(#clip920)" style="stroke:#000000; stroke-linecap:round; stroke-linejoin:round; stroke-width:4; stroke-opacity:1; fill:none" points="1857.77,2189.08 1857.77,2170.19 "/>
<polyline clip-path="url(#clip920)" style="stroke:#000000; stroke-linecap:round; stroke-linejoin:round; stroke-width:4; stroke-opacity:1; fill:none" points="1976,2189.08 1976,2170.19 "/>
<polyline clip-path="url(#clip920)" style="stroke:#000000; stroke-linecap:round; stroke-linejoin:round; stroke-width:4; stroke-opacity:1; fill:none" points="2094.23,2189.08 2094.23,2170.19 "/>
<polyline clip-path="url(#clip920)" style="stroke:#000000; stroke-linecap:round; stroke-linejoin:round; stroke-width:4; stroke-opacity:1; fill:none" points="2212.46,2189.08 2212.46,2170.19 "/>
<polyline clip-path="url(#clip920)" style="stroke:#000000; stroke-linecap:round; stroke-linejoin:round; stroke-width:4; stroke-opacity:1; fill:none" points="2330.68,2189.08 2330.68,2170.19 "/>
<polyline clip-path="url(#clip920)" style="stroke:#000000; stroke-linecap:round; stroke-linejoin:round; stroke-width:4; stroke-opacity:1; fill:none" points="2448.91,2189.08 2448.91,2170.19 "/>
<polyline clip-path="url(#clip920)" style="stroke:#000000; stroke-linecap:round; stroke-linejoin:round; stroke-width:4; stroke-opacity:1; fill:none" points="2567.14,2189.08 2567.14,2170.19 "/>
<polyline clip-path="url(#clip920)" style="stroke:#000000; stroke-linecap:round; stroke-linejoin:round; stroke-width:4; stroke-opacity:1; fill:none" points="2685.37,2189.08 2685.37,2170.19 "/>
<path clip-path="url(#clip920)" d="M462.395 2301.09 L462.395 2287.72 L416.255 2287.72 L419.172 2302.27 L411.718 2302.27 L408.802 2287.8 L408.802 2279.62 L462.395 2279.62 L462.395 2266.25 L469.282 2266.25 L469.282 2301.09 L462.395 2301.09 Z" fill="#000000" fill-rule="nonzero" fill-opacity="1" /><path clip-path="url(#clip920)" d="M440.561 2232.23 Q440.561 2238.06 443.68 2241.42 Q446.799 2244.74 452.268 2244.74 Q457.737 2244.74 460.856 2241.42 Q463.975 2238.06 463.975 2232.23 Q463.975 2226.39 460.856 2223.03 Q457.696 2219.67 452.268 2219.67 Q446.799 2219.67 443.68 2223.03 Q440.561 2226.35 440.561 2232.23 M437.077 2240.41 Q435.781 2245.67 432.175 2248.63 Q428.57 2251.55 423.385 2251.55 Q416.134 2251.55 411.921 2246.4 Q407.708 2241.22 407.708 2232.23 Q407.708 2223.19 411.921 2218.05 Q416.134 2212.9 423.385 2212.9 Q428.57 2212.9 432.175 2215.86 Q435.781 2218.78 437.077 2224 Q438.454 2218.09 442.465 2214.81 Q446.475 2211.48 452.268 2211.48 Q461.058 2211.48 465.757 2216.87 Q470.456 2222.22 470.456 2232.23 Q470.456 2242.23 465.757 2247.62 Q461.058 2252.97 452.268 2252.97 Q446.475 2252.97 442.465 2249.64 Q438.454 2246.32 437.077 2240.41 M424.155 2243.41 Q428.854 2243.41 431.487 2240.49 Q434.12 2237.53 434.12 2232.23 Q434.12 2226.96 431.487 2224 Q428.854 2221 424.155 2221 Q419.456 2221 416.822 2224 Q414.189 2226.96 414.189 2232.23 Q414.189 2237.53 416.822 2240.49 Q419.456 2243.41 424.155 2243.41 Z" fill="#000000" fill-rule="nonzero" fill-opacity="1" /><path clip-path="url(#clip920)" d="M534.159 2280.47 L566.445 2301.13 L566.445 2280.47 L534.159 2280.47 M527.029 2282.62 L527.029 2272.33 L566.445 2272.33 L566.445 2263.7 L573.25 2263.7 L573.25 2272.33 L587.509 2272.33 L587.509 2280.47 L573.25 2280.47 L573.25 2307.77 L565.351 2307.77 L527.029 2282.62 Z" fill="#000000" fill-rule="nonzero" fill-opacity="1" /><path clip-path="url(#clip920)" d="M554.008 2231.66 Q554.008 2237.17 557.776 2240.41 Q561.543 2243.61 568.105 2243.61 Q574.627 2243.61 578.435 2240.41 Q582.203 2237.17 582.203 2231.66 Q582.203 2226.15 578.435 2222.95 Q574.627 2219.71 568.105 2219.71 Q561.543 2219.71 557.776 2222.95 Q554.008 2226.15 554.008 2231.66 M528.366 2215.41 L535.82 2215.41 Q534.361 2218.49 533.592 2221.65 Q532.822 2224.77 532.822 2227.85 Q532.822 2235.95 538.291 2240.25 Q543.76 2244.5 554.818 2245.11 Q551.294 2242.72 549.431 2239.11 Q547.527 2235.51 547.527 2231.17 Q547.527 2222.06 553.077 2216.79 Q558.586 2211.48 568.105 2211.48 Q577.423 2211.48 583.053 2216.99 Q588.684 2222.5 588.684 2231.66 Q588.684 2242.15 580.663 2247.7 Q572.602 2253.25 557.33 2253.25 Q542.99 2253.25 534.483 2246.44 Q525.936 2239.64 525.936 2228.17 Q525.936 2225.1 526.543 2221.98 Q527.151 2218.82 528.366 2215.41 Z" fill="#000000" fill-rule="nonzero" fill-opacity="1" /><path clip-path="url(#clip920)" d="M645.257 2302.59 L645.257 2270.47 L652.143 2270.47 L652.143 2295.1 L666.97 2295.1 Q666.362 2293.31 666.079 2291.53 Q665.754 2289.75 665.754 2287.97 Q665.754 2277.84 671.304 2271.92 Q676.854 2266.01 686.333 2266.01 Q696.096 2266.01 701.524 2272.09 Q706.912 2278.16 706.912 2289.22 Q706.912 2293.03 706.263 2297 Q705.615 2300.93 704.319 2305.14 L696.096 2305.14 Q698.081 2301.5 699.053 2297.61 Q700.025 2293.72 700.025 2289.38 Q700.025 2282.38 696.339 2278.28 Q692.652 2274.19 686.333 2274.19 Q680.014 2274.19 676.327 2278.28 Q672.641 2282.38 672.641 2289.38 Q672.641 2292.67 673.37 2295.95 Q674.099 2299.19 675.639 2302.59 L645.257 2302.59 Z" fill="#000000" fill-rule="nonzero" fill-opacity="1" /><path clip-path="url(#clip920)" d="M650.645 2232.39 Q650.645 2238.71 656.883 2241.91 Q663.081 2245.07 675.558 2245.07 Q687.994 2245.07 694.232 2241.91 Q700.43 2238.71 700.43 2232.39 Q700.43 2226.03 694.232 2222.87 Q687.994 2219.67 675.558 2219.67 Q663.081 2219.67 656.883 2222.87 Q650.645 2226.03 650.645 2232.39 M644.163 2232.39 Q644.163 2222.22 652.224 2216.87 Q660.245 2211.48 675.558 2211.48 Q690.83 2211.48 698.891 2216.87 Q706.912 2222.22 706.912 2232.39 Q706.912 2242.56 698.891 2247.94 Q690.83 2253.29 675.558 2253.29 Q660.245 2253.29 652.224 2247.94 Q644.163 2242.56 644.163 2232.39 Z" fill="#000000" fill-rule="nonzero" fill-opacity="1" /><path clip-path="url(#clip920)" d="M817.078 2300.93 L817.078 2287.56 L770.938 2287.56 L773.855 2302.1 L766.401 2302.1 L763.484 2287.64 L763.484 2279.46 L817.078 2279.46 L817.078 2266.09 L823.964 2266.09 L823.964 2300.93 L817.078 2300.93 Z" fill="#000000" fill-rule="nonzero" fill-opacity="1" /><path clip-path="url(#clip920)" d="M822.709 2249.32 L815.255 2249.32 Q816.713 2246.24 817.483 2243.08 Q818.253 2239.92 818.253 2236.88 Q818.253 2228.78 812.824 2224.53 Q807.356 2220.23 796.256 2219.63 Q799.74 2221.98 801.603 2225.58 Q803.467 2229.19 803.467 2233.56 Q803.467 2242.64 797.998 2247.94 Q792.489 2253.21 782.969 2253.21 Q773.652 2253.21 768.021 2247.7 Q762.391 2242.19 762.391 2233.04 Q762.391 2222.54 770.452 2217.03 Q778.473 2211.48 793.785 2211.48 Q808.085 2211.48 816.632 2218.29 Q825.139 2225.06 825.139 2236.52 Q825.139 2239.6 824.532 2242.76 Q823.924 2245.92 822.709 2249.32 M797.066 2233.04 Q797.066 2227.53 793.299 2224.33 Q789.532 2221.09 782.969 2221.09 Q776.447 2221.09 772.68 2224.33 Q768.872 2227.53 768.872 2233.04 Q768.872 2238.54 772.68 2241.79 Q776.447 2244.99 782.969 2244.99 Q789.532 2244.99 793.299 2241.79 Q797.066 2238.54 797.066 2233.04 Z" fill="#000000" fill-rule="nonzero" fill-opacity="1" /><path clip-path="url(#clip920)" d="M888.842 2280.03 L921.127 2300.69 L921.127 2280.03 L888.842 2280.03 M881.712 2282.17 L881.712 2271.88 L921.127 2271.88 L921.127 2263.26 L927.933 2263.26 L927.933 2271.88 L942.192 2271.88 L942.192 2280.03 L927.933 2280.03 L927.933 2307.33 L920.034 2307.33 L881.712 2282.17 Z" fill="#000000" fill-rule="nonzero" fill-opacity="1" /><path clip-path="url(#clip920)" d="M913.471 2232.23 Q913.471 2238.06 916.59 2241.42 Q919.71 2244.74 925.178 2244.74 Q930.647 2244.74 933.766 2241.42 Q936.885 2238.06 936.885 2232.23 Q936.885 2226.39 933.766 2223.03 Q930.607 2219.67 925.178 2219.67 Q919.71 2219.67 916.59 2223.03 Q913.471 2226.35 913.471 2232.23 M909.987 2240.41 Q908.691 2245.67 905.086 2248.63 Q901.481 2251.55 896.295 2251.55 Q889.044 2251.55 884.831 2246.4 Q880.618 2241.22 880.618 2232.23 Q880.618 2223.19 884.831 2218.05 Q889.044 2212.9 896.295 2212.9 Q901.481 2212.9 905.086 2215.86 Q908.691 2218.78 909.987 2224 Q911.365 2218.09 915.375 2214.81 Q919.385 2211.48 925.178 2211.48 Q933.969 2211.48 938.668 2216.87 Q943.367 2222.22 943.367 2232.23 Q943.367 2242.23 938.668 2247.62 Q933.969 2252.97 925.178 2252.97 Q919.385 2252.97 915.375 2249.64 Q911.365 2246.32 909.987 2240.41 M897.065 2243.41 Q901.764 2243.41 904.397 2240.49 Q907.03 2237.53 907.03 2232.23 Q907.03 2226.96 904.397 2224 Q901.764 2221 897.065 2221 Q892.366 2221 889.733 2224 Q887.1 2226.96 887.1 2232.23 Q887.1 2237.53 889.733 2240.49 Q892.366 2243.41 897.065 2243.41 Z" fill="#000000" fill-rule="nonzero" fill-opacity="1" /><path clip-path="url(#clip920)" d="M1053.53 2295.62 L1053.53 2267.06 L1060.42 2267.06 L1060.42 2305.47 L1053.53 2305.47 Q1048.71 2300.81 1040.61 2292.79 Q1032.47 2284.73 1030.12 2282.66 Q1025.7 2278.73 1022.67 2277.19 Q1019.59 2275.61 1016.63 2275.61 Q1011.81 2275.61 1008.77 2279.01 Q1005.73 2282.38 1005.73 2287.8 Q1005.73 2291.65 1007.07 2295.95 Q1008.41 2300.2 1011.12 2305.06 L1002.86 2305.06 Q1000.87 2300.12 999.859 2295.82 Q998.846 2291.53 998.846 2287.97 Q998.846 2278.57 1003.54 2272.98 Q1008.24 2267.39 1016.1 2267.39 Q1019.83 2267.39 1023.19 2268.81 Q1026.51 2270.18 1031.05 2273.87 Q1032.23 2274.88 1037.86 2280.31 Q1043.45 2285.74 1053.53 2295.62 Z" fill="#000000" fill-rule="nonzero" fill-opacity="1" /><path clip-path="url(#clip920)" d="M1005.33 2232.39 Q1005.33 2238.71 1011.57 2241.91 Q1017.76 2245.07 1030.24 2245.07 Q1042.68 2245.07 1048.92 2241.91 Q1055.11 2238.71 1055.11 2232.39 Q1055.11 2226.03 1048.92 2222.87 Q1042.68 2219.67 1030.24 2219.67 Q1017.76 2219.67 1011.57 2222.87 Q1005.33 2226.03 1005.33 2232.39 M998.846 2232.39 Q998.846 2222.22 1006.91 2216.87 Q1014.93 2211.48 1030.24 2211.48 Q1045.51 2211.48 1053.57 2216.87 Q1061.59 2222.22 1061.59 2232.39 Q1061.59 2242.56 1053.57 2247.94 Q1045.51 2253.29 1030.24 2253.29 Q1014.93 2253.29 1006.91 2247.94 Q998.846 2242.56 998.846 2232.39 Z" fill="#000000" fill-rule="nonzero" fill-opacity="1" /><path clip-path="url(#clip920)" d="M1125.3 2279.86 L1157.58 2300.52 L1157.58 2279.86 L1125.3 2279.86 M1118.17 2282.01 L1118.17 2271.72 L1157.58 2271.72 L1157.58 2263.09 L1164.39 2263.09 L1164.39 2271.72 L1178.65 2271.72 L1178.65 2279.86 L1164.39 2279.86 L1164.39 2307.17 L1156.49 2307.17 L1118.17 2282.01 Z" fill="#000000" fill-rule="nonzero" fill-opacity="1" /><path clip-path="url(#clip920)" d="M1177.39 2249.32 L1169.94 2249.32 Q1171.4 2246.24 1172.17 2243.08 Q1172.94 2239.92 1172.94 2236.88 Q1172.94 2228.78 1167.51 2224.53 Q1162.04 2220.23 1150.94 2219.63 Q1154.42 2221.98 1156.29 2225.58 Q1158.15 2229.19 1158.15 2233.56 Q1158.15 2242.64 1152.68 2247.94 Q1147.17 2253.21 1137.65 2253.21 Q1128.34 2253.21 1122.7 2247.7 Q1117.07 2242.19 1117.07 2233.04 Q1117.07 2222.54 1125.13 2217.03 Q1133.16 2211.48 1148.47 2211.48 Q1162.77 2211.48 1171.32 2218.29 Q1179.82 2225.06 1179.82 2236.52 Q1179.82 2239.6 1179.21 2242.76 Q1178.61 2245.92 1177.39 2249.32 M1151.75 2233.04 Q1151.75 2227.53 1147.98 2224.33 Q1144.21 2221.09 1137.65 2221.09 Q1131.13 2221.09 1127.36 2224.33 Q1123.56 2227.53 1123.56 2233.04 Q1123.56 2238.54 1127.36 2241.79 Q1131.13 2244.99 1137.65 2244.99 Q1144.21 2244.99 1147.98 2241.79 Q1151.75 2238.54 1151.75 2233.04 Z" fill="#000000" fill-rule="nonzero" fill-opacity="1" /><path clip-path="url(#clip920)" d="M1289.99 2299.67 L1289.99 2286.31 L1243.85 2286.31 L1246.77 2300.85 L1239.31 2300.85 L1236.39 2286.39 L1236.39 2278.2 L1289.99 2278.2 L1289.99 2264.84 L1296.87 2264.84 L1296.87 2299.67 L1289.99 2299.67 Z" fill="#000000" fill-rule="nonzero" fill-opacity="1" /><path clip-path="url(#clip920)" d="M1236.39 2250.37 L1236.39 2211.48 L1239.88 2211.48 L1296.87 2233.44 L1296.87 2241.99 L1243.28 2221.33 L1243.28 2250.37 L1236.39 2250.37 Z" fill="#000000" fill-rule="nonzero" fill-opacity="1" /><path clip-path="url(#clip920)" d="M1408.22 2301.54 L1408.22 2288.17 L1362.08 2288.17 L1364.99 2302.71 L1357.54 2302.71 L1354.62 2288.25 L1354.62 2280.07 L1408.22 2280.07 L1408.22 2266.7 L1415.1 2266.7 L1415.1 2301.54 L1408.22 2301.54 Z" fill="#000000" fill-rule="nonzero" fill-opacity="1" /><path clip-path="url(#clip920)" d="M1381.6 2231.66 Q1381.6 2237.17 1385.37 2240.41 Q1389.14 2243.61 1395.7 2243.61 Q1402.22 2243.61 1406.03 2240.41 Q1409.8 2237.17 1409.8 2231.66 Q1409.8 2226.15 1406.03 2222.95 Q1402.22 2219.71 1395.7 2219.71 Q1389.14 2219.71 1385.37 2222.95 Q1381.6 2226.15 1381.6 2231.66 M1355.96 2215.41 L1363.41 2215.41 Q1361.95 2218.49 1361.18 2221.65 Q1360.42 2224.77 1360.42 2227.85 Q1360.42 2235.95 1365.88 2240.25 Q1371.35 2244.5 1382.41 2245.11 Q1378.89 2242.72 1377.02 2239.11 Q1375.12 2235.51 1375.12 2231.17 Q1375.12 2222.06 1380.67 2216.79 Q1386.18 2211.48 1395.7 2211.48 Q1405.02 2211.48 1410.65 2216.99 Q1416.28 2222.5 1416.28 2231.66 Q1416.28 2242.15 1408.26 2247.7 Q1400.2 2253.25 1384.92 2253.25 Q1370.58 2253.25 1362.08 2246.44 Q1353.53 2239.64 1353.53 2228.17 Q1353.53 2225.1 1354.14 2221.98 Q1354.74 2218.82 1355.96 2215.41 Z" fill="#000000" fill-rule="nonzero" fill-opacity="1" /><path clip-path="url(#clip920)" d="M1479.98 2278.61 L1512.27 2299.27 L1512.27 2278.61 L1479.98 2278.61 M1472.85 2280.76 L1472.85 2270.47 L1512.27 2270.47 L1512.27 2261.84 L1519.07 2261.84 L1519.07 2270.47 L1533.33 2270.47 L1533.33 2278.61 L1519.07 2278.61 L1519.07 2305.91 L1511.17 2305.91 L1472.85 2280.76 Z" fill="#000000" fill-rule="nonzero" fill-opacity="1" /><path clip-path="url(#clip920)" d="M1472.85 2250.37 L1472.85 2211.48 L1476.33 2211.48 L1533.33 2233.44 L1533.33 2241.99 L1479.74 2221.33 L1479.74 2250.37 L1472.85 2250.37 Z" fill="#000000" fill-rule="nonzero" fill-opacity="1" /><path clip-path="url(#clip920)" d="M1591.08 2304.57 L1591.08 2265.69 L1594.56 2265.69 L1651.56 2287.64 L1651.56 2296.19 L1597.96 2275.53 L1597.96 2304.57 L1591.08 2304.57 Z" fill="#000000" fill-rule="nonzero" fill-opacity="1" /><path clip-path="url(#clip920)" d="M1622.84 2232.23 Q1622.84 2238.06 1625.96 2241.42 Q1629.08 2244.74 1634.54 2244.74 Q1640.01 2244.74 1643.13 2241.42 Q1646.25 2238.06 1646.25 2232.23 Q1646.25 2226.39 1643.13 2223.03 Q1639.97 2219.67 1634.54 2219.67 Q1629.08 2219.67 1625.96 2223.03 Q1622.84 2226.35 1622.84 2232.23 M1619.35 2240.41 Q1618.06 2245.67 1614.45 2248.63 Q1610.85 2251.55 1605.66 2251.55 Q1598.41 2251.55 1594.2 2246.4 Q1589.98 2241.22 1589.98 2232.23 Q1589.98 2223.19 1594.2 2218.05 Q1598.41 2212.9 1605.66 2212.9 Q1610.85 2212.9 1614.45 2215.86 Q1618.06 2218.78 1619.35 2224 Q1620.73 2218.09 1624.74 2214.81 Q1628.75 2211.48 1634.54 2211.48 Q1643.33 2211.48 1648.03 2216.87 Q1652.73 2222.22 1652.73 2232.23 Q1652.73 2242.23 1648.03 2247.62 Q1643.33 2252.97 1634.54 2252.97 Q1628.75 2252.97 1624.74 2249.64 Q1620.73 2246.32 1619.35 2240.41 M1606.43 2243.41 Q1611.13 2243.41 1613.76 2240.49 Q1616.4 2237.53 1616.4 2232.23 Q1616.4 2226.96 1613.76 2224 Q1611.13 2221 1606.43 2221 Q1601.73 2221 1599.1 2224 Q1596.47 2226.96 1596.47 2232.23 Q1596.47 2237.53 1599.1 2240.49 Q1601.73 2243.41 1606.43 2243.41 Z" fill="#000000" fill-rule="nonzero" fill-opacity="1" /><path clip-path="url(#clip920)" d="M1762.9 2354.04 L1762.9 2340.67 L1716.76 2340.67 L1719.68 2355.21 L1712.22 2355.21 L1709.31 2340.75 L1709.31 2332.57 L1762.9 2332.57 L1762.9 2319.2 L1769.79 2319.2 L1769.79 2354.04 L1762.9 2354.04 Z" fill="#000000" fill-rule="nonzero" fill-opacity="1" /><path clip-path="url(#clip920)" d="M1709.31 2302.59 L1709.31 2270.47 L1716.19 2270.47 L1716.19 2295.1 L1731.02 2295.1 Q1730.41 2293.31 1730.13 2291.53 Q1729.8 2289.75 1729.8 2287.97 Q1729.8 2277.84 1735.35 2271.92 Q1740.9 2266.01 1750.38 2266.01 Q1760.14 2266.01 1765.57 2272.09 Q1770.96 2278.16 1770.96 2289.22 Q1770.96 2293.03 1770.31 2297 Q1769.66 2300.93 1768.37 2305.14 L1760.14 2305.14 Q1762.13 2301.5 1763.1 2297.61 Q1764.07 2293.72 1764.07 2289.38 Q1764.07 2282.38 1760.39 2278.28 Q1756.7 2274.19 1750.38 2274.19 Q1744.06 2274.19 1740.38 2278.28 Q1736.69 2282.38 1736.69 2289.38 Q1736.69 2292.67 1737.42 2295.95 Q1738.15 2299.19 1739.69 2302.59 L1709.31 2302.59 Z" fill="#000000" fill-rule="nonzero" fill-opacity="1" /><path clip-path="url(#clip920)" d="M1714.69 2232.39 Q1714.69 2238.71 1720.93 2241.91 Q1727.13 2245.07 1739.61 2245.07 Q1752.04 2245.07 1758.28 2241.91 Q1764.48 2238.71 1764.48 2232.39 Q1764.48 2226.03 1758.28 2222.87 Q1752.04 2219.67 1739.61 2219.67 Q1727.13 2219.67 1720.93 2222.87 Q1714.69 2226.03 1714.69 2232.39 M1708.21 2232.39 Q1708.21 2222.22 1716.27 2216.87 Q1724.29 2211.48 1739.61 2211.48 Q1754.88 2211.48 1762.94 2216.87 Q1770.96 2222.22 1770.96 2232.39 Q1770.96 2242.56 1762.94 2247.94 Q1754.88 2253.29 1739.61 2253.29 Q1724.29 2253.29 1716.27 2247.94 Q1708.21 2242.56 1708.21 2232.39 Z" fill="#000000" fill-rule="nonzero" fill-opacity="1" /><path clip-path="url(#clip920)" d="M1886.76 2300.28 L1879.3 2300.28 Q1880.76 2297.2 1881.53 2294.04 Q1882.3 2290.88 1882.3 2287.84 Q1882.3 2279.74 1876.87 2275.49 Q1871.4 2271.2 1860.3 2270.59 Q1863.79 2272.94 1865.65 2276.54 Q1867.52 2280.15 1867.52 2284.52 Q1867.52 2293.6 1862.05 2298.9 Q1856.54 2304.17 1847.02 2304.17 Q1837.7 2304.17 1832.07 2298.66 Q1826.44 2293.15 1826.44 2284 Q1826.44 2273.5 1834.5 2268 Q1842.52 2262.45 1857.83 2262.45 Q1872.13 2262.45 1880.68 2269.25 Q1889.19 2276.02 1889.19 2287.48 Q1889.19 2290.56 1888.58 2293.72 Q1887.97 2296.88 1886.76 2300.28 M1861.11 2284 Q1861.11 2278.49 1857.35 2275.29 Q1853.58 2272.05 1847.02 2272.05 Q1840.5 2272.05 1836.73 2275.29 Q1832.92 2278.49 1832.92 2284 Q1832.92 2289.51 1836.73 2292.75 Q1840.5 2295.95 1847.02 2295.95 Q1853.58 2295.95 1857.35 2292.75 Q1861.11 2289.51 1861.11 2284 Z" fill="#000000" fill-rule="nonzero" fill-opacity="1" /><path clip-path="url(#clip920)" d="M1881.13 2246.32 L1881.13 2232.95 L1834.99 2232.95 L1837.9 2247.5 L1830.45 2247.5 L1827.53 2233.04 L1827.53 2224.85 L1881.13 2224.85 L1881.13 2211.48 L1888.01 2211.48 L1888.01 2246.32 L1881.13 2246.32 Z" fill="#000000" fill-rule="nonzero" fill-opacity="1" /><path clip-path="url(#clip920)" d="M2004.98 2302.43 L1997.53 2302.43 Q1998.99 2299.35 1999.76 2296.19 Q2000.53 2293.03 2000.53 2289.99 Q2000.53 2281.89 1995.1 2277.64 Q1989.63 2273.34 1978.53 2272.73 Q1982.02 2275.08 1983.88 2278.69 Q1985.74 2282.29 1985.74 2286.67 Q1985.74 2295.74 1980.27 2301.05 Q1974.77 2306.32 1965.25 2306.32 Q1955.93 2306.32 1950.3 2300.81 Q1944.67 2295.3 1944.67 2286.14 Q1944.67 2275.65 1952.73 2270.14 Q1960.75 2264.59 1976.06 2264.59 Q1990.36 2264.59 1998.91 2271.4 Q2007.42 2278.16 2007.42 2289.63 Q2007.42 2292.71 2006.81 2295.87 Q2006.2 2299.02 2004.98 2302.43 M1979.34 2286.14 Q1979.34 2280.63 1975.58 2277.43 Q1971.81 2274.19 1965.25 2274.19 Q1958.72 2274.19 1954.96 2277.43 Q1951.15 2280.63 1951.15 2286.14 Q1951.15 2291.65 1954.96 2294.89 Q1958.72 2298.09 1965.25 2298.09 Q1971.81 2298.09 1975.58 2294.89 Q1979.34 2291.65 1979.34 2286.14 Z" fill="#000000" fill-rule="nonzero" fill-opacity="1" /><path clip-path="url(#clip920)" d="M1951.15 2232.39 Q1951.15 2238.71 1957.39 2241.91 Q1963.58 2245.07 1976.06 2245.07 Q1988.5 2245.07 1994.74 2241.91 Q2000.93 2238.71 2000.93 2232.39 Q2000.93 2226.03 1994.74 2222.87 Q1988.5 2219.67 1976.06 2219.67 Q1963.58 2219.67 1957.39 2222.87 Q1951.15 2226.03 1951.15 2232.39 M1944.67 2232.39 Q1944.67 2222.22 1952.73 2216.87 Q1960.75 2211.48 1976.06 2211.48 Q1991.33 2211.48 1999.39 2216.87 Q2007.42 2222.22 2007.42 2232.39 Q2007.42 2242.56 1999.39 2247.94 Q1991.33 2253.29 1976.06 2253.29 Q1960.75 2253.29 1952.73 2247.94 Q1944.67 2242.56 1944.67 2232.39 Z" fill="#000000" fill-rule="nonzero" fill-opacity="1" /><path clip-path="url(#clip920)" d="M2090.97 2282.42 Q2090.97 2287.93 2094.73 2291.17 Q2098.5 2294.37 2105.06 2294.37 Q2111.59 2294.37 2115.39 2291.17 Q2119.16 2287.93 2119.16 2282.42 Q2119.16 2276.91 2115.39 2273.71 Q2111.59 2270.47 2105.06 2270.47 Q2098.5 2270.47 2094.73 2273.71 Q2090.97 2276.91 2090.97 2282.42 M2065.32 2266.17 L2072.78 2266.17 Q2071.32 2269.25 2070.55 2272.41 Q2069.78 2275.53 2069.78 2278.61 Q2069.78 2286.71 2075.25 2291 Q2080.72 2295.26 2091.78 2295.87 Q2088.25 2293.48 2086.39 2289.87 Q2084.49 2286.26 2084.49 2281.93 Q2084.49 2272.82 2090.04 2267.55 Q2095.54 2262.24 2105.06 2262.24 Q2114.38 2262.24 2120.01 2267.75 Q2125.64 2273.26 2125.64 2282.42 Q2125.64 2292.91 2117.62 2298.46 Q2109.56 2304.01 2094.29 2304.01 Q2079.95 2304.01 2071.44 2297.2 Q2062.89 2290.4 2062.89 2278.93 Q2062.89 2275.85 2063.5 2272.73 Q2064.11 2269.57 2065.32 2266.17 Z" fill="#000000" fill-rule="nonzero" fill-opacity="1" /><path clip-path="url(#clip920)" d="M2063.99 2248.06 L2063.99 2215.94 L2070.87 2215.94 L2070.87 2240.57 L2085.7 2240.57 Q2085.09 2238.79 2084.81 2237.01 Q2084.49 2235.22 2084.49 2233.44 Q2084.49 2223.31 2090.04 2217.4 Q2095.59 2211.48 2105.06 2211.48 Q2114.83 2211.48 2120.26 2217.56 Q2125.64 2223.64 2125.64 2234.7 Q2125.64 2238.5 2124.99 2242.47 Q2124.35 2246.4 2123.05 2250.62 L2114.83 2250.62 Q2116.81 2246.97 2117.78 2243.08 Q2118.76 2239.19 2118.76 2234.86 Q2118.76 2227.85 2115.07 2223.76 Q2111.38 2219.67 2105.06 2219.67 Q2098.74 2219.67 2095.06 2223.76 Q2091.37 2227.85 2091.37 2234.86 Q2091.37 2238.14 2092.1 2241.42 Q2092.83 2244.66 2094.37 2248.06 L2063.99 2248.06 Z" fill="#000000" fill-rule="nonzero" fill-opacity="1" /><path clip-path="url(#clip920)" d="M2182.22 2302.59 L2182.22 2263.7 L2185.7 2263.7 L2242.7 2285.66 L2242.7 2294.2 L2189.1 2273.54 L2189.1 2302.59 L2182.22 2302.59 Z" fill="#000000" fill-rule="nonzero" fill-opacity="1" /><path clip-path="url(#clip920)" d="M2235.81 2246.32 L2235.81 2232.95 L2189.67 2232.95 L2192.59 2247.5 L2185.13 2247.5 L2182.22 2233.04 L2182.22 2224.85 L2235.81 2224.85 L2235.81 2211.48 L2242.7 2211.48 L2242.7 2246.32 L2235.81 2246.32 Z" fill="#000000" fill-rule="nonzero" fill-opacity="1" /><path clip-path="url(#clip920)" d="M2359.67 2299.63 L2352.21 2299.63 Q2353.67 2296.55 2354.44 2293.39 Q2355.21 2290.23 2355.21 2287.2 Q2355.21 2279.09 2349.78 2274.84 Q2344.31 2270.55 2333.22 2269.94 Q2336.7 2272.29 2338.56 2275.89 Q2340.43 2279.5 2340.43 2283.87 Q2340.43 2292.95 2334.96 2298.26 Q2329.45 2303.52 2319.93 2303.52 Q2310.61 2303.52 2304.98 2298.01 Q2299.35 2292.5 2299.35 2283.35 Q2299.35 2272.86 2307.41 2267.35 Q2315.43 2261.8 2330.74 2261.8 Q2345.04 2261.8 2353.59 2268.6 Q2362.1 2275.37 2362.1 2286.83 Q2362.1 2289.91 2361.49 2293.07 Q2360.88 2296.23 2359.67 2299.63 M2334.03 2283.35 Q2334.03 2277.84 2330.26 2274.64 Q2326.49 2271.4 2319.93 2271.4 Q2313.41 2271.4 2309.64 2274.64 Q2305.83 2277.84 2305.83 2283.35 Q2305.83 2288.86 2309.64 2292.1 Q2313.41 2295.3 2319.93 2295.3 Q2326.49 2295.3 2330.26 2292.1 Q2334.03 2288.86 2334.03 2283.35 Z" fill="#000000" fill-rule="nonzero" fill-opacity="1" /><path clip-path="url(#clip920)" d="M2354.04 2240.04 L2354.04 2211.48 L2360.92 2211.48 L2360.92 2249.89 L2354.04 2249.89 Q2349.22 2245.23 2341.11 2237.21 Q2332.97 2229.15 2330.62 2227.08 Q2326.21 2223.15 2323.17 2221.61 Q2320.09 2220.03 2317.13 2220.03 Q2312.31 2220.03 2309.27 2223.44 Q2306.24 2226.8 2306.24 2232.23 Q2306.24 2236.07 2307.57 2240.37 Q2308.91 2244.62 2311.62 2249.48 L2303.36 2249.48 Q2301.38 2244.54 2300.36 2240.25 Q2299.35 2235.95 2299.35 2232.39 Q2299.35 2222.99 2304.05 2217.4 Q2308.75 2211.81 2316.61 2211.81 Q2320.33 2211.81 2323.7 2213.23 Q2327.02 2214.6 2331.55 2218.29 Q2332.73 2219.3 2338.36 2224.73 Q2343.95 2230.16 2354.04 2240.04 Z" fill="#000000" fill-rule="nonzero" fill-opacity="1" /><path clip-path="url(#clip920)" d="M2472.26 2353.87 L2472.26 2340.51 L2426.12 2340.51 L2429.04 2355.05 L2421.59 2355.05 L2418.67 2340.59 L2418.67 2332.4 L2472.26 2332.4 L2472.26 2319.04 L2479.15 2319.04 L2479.15 2353.87 L2472.26 2353.87 Z" fill="#000000" fill-rule="nonzero" fill-opacity="1" /><path clip-path="url(#clip920)" d="M2450.43 2285.01 Q2450.43 2290.84 2453.55 2294.2 Q2456.67 2297.53 2462.14 2297.53 Q2467.61 2297.53 2470.73 2294.2 Q2473.84 2290.84 2473.84 2285.01 Q2473.84 2279.18 2470.73 2275.81 Q2467.57 2272.45 2462.14 2272.45 Q2456.67 2272.45 2453.55 2275.81 Q2450.43 2279.14 2450.43 2285.01 M2446.95 2293.19 Q2445.65 2298.46 2442.04 2301.42 Q2438.44 2304.33 2433.25 2304.33 Q2426 2304.33 2421.79 2299.19 Q2417.58 2294 2417.58 2285.01 Q2417.58 2275.98 2421.79 2270.83 Q2426 2265.69 2433.25 2265.69 Q2438.44 2265.69 2442.04 2268.64 Q2445.65 2271.56 2446.95 2276.79 Q2448.32 2270.87 2452.33 2267.59 Q2456.34 2264.27 2462.14 2264.27 Q2470.93 2264.27 2475.63 2269.66 Q2480.33 2275 2480.33 2285.01 Q2480.33 2295.01 2475.63 2300.4 Q2470.93 2305.75 2462.14 2305.75 Q2456.34 2305.75 2452.33 2302.43 Q2448.32 2299.11 2446.95 2293.19 M2434.02 2296.19 Q2438.72 2296.19 2441.36 2293.27 Q2443.99 2290.32 2443.99 2285.01 Q2443.99 2279.74 2441.36 2276.79 Q2438.72 2273.79 2434.02 2273.79 Q2429.32 2273.79 2426.69 2276.79 Q2424.06 2279.74 2424.06 2285.01 Q2424.06 2290.32 2426.69 2293.27 Q2429.32 2296.19 2434.02 2296.19 Z" fill="#000000" fill-rule="nonzero" fill-opacity="1" /><path clip-path="url(#clip920)" d="M2450.43 2232.23 Q2450.43 2238.06 2453.55 2241.42 Q2456.67 2244.74 2462.14 2244.74 Q2467.61 2244.74 2470.73 2241.42 Q2473.84 2238.06 2473.84 2232.23 Q2473.84 2226.39 2470.73 2223.03 Q2467.57 2219.67 2462.14 2219.67 Q2456.67 2219.67 2453.55 2223.03 Q2450.43 2226.35 2450.43 2232.23 M2446.95 2240.41 Q2445.65 2245.67 2442.04 2248.63 Q2438.44 2251.55 2433.25 2251.55 Q2426 2251.55 2421.79 2246.4 Q2417.58 2241.22 2417.58 2232.23 Q2417.58 2223.19 2421.79 2218.05 Q2426 2212.9 2433.25 2212.9 Q2438.44 2212.9 2442.04 2215.86 Q2445.65 2218.78 2446.95 2224 Q2448.32 2218.09 2452.33 2214.81 Q2456.34 2211.48 2462.14 2211.48 Q2470.93 2211.48 2475.63 2216.87 Q2480.33 2222.22 2480.33 2232.23 Q2480.33 2242.23 2475.63 2247.62 Q2470.93 2252.97 2462.14 2252.97 Q2456.34 2252.97 2452.33 2249.64 Q2448.32 2246.32 2446.95 2240.41 M2434.02 2243.41 Q2438.72 2243.41 2441.36 2240.49 Q2443.99 2237.53 2443.99 2232.23 Q2443.99 2226.96 2441.36 2224 Q2438.72 2221 2434.02 2221 Q2429.32 2221 2426.69 2224 Q2424.06 2226.96 2424.06 2232.23 Q2424.06 2237.53 2426.69 2240.49 Q2429.32 2243.41 2434.02 2243.41 Z" fill="#000000" fill-rule="nonzero" fill-opacity="1" /><path clip-path="url(#clip920)" d="M2590.49 2352.46 L2590.49 2339.09 L2544.35 2339.09 L2547.27 2353.63 L2539.82 2353.63 L2536.9 2339.17 L2536.9 2330.99 L2590.49 2330.99 L2590.49 2317.62 L2597.38 2317.62 L2597.38 2352.46 L2590.49 2352.46 Z" fill="#000000" fill-rule="nonzero" fill-opacity="1" /><path clip-path="url(#clip920)" d="M2568.66 2283.59 Q2568.66 2289.42 2571.78 2292.79 Q2574.9 2296.11 2580.36 2296.11 Q2585.83 2296.11 2588.95 2292.79 Q2592.07 2289.42 2592.07 2283.59 Q2592.07 2277.76 2588.95 2274.4 Q2585.79 2271.03 2580.36 2271.03 Q2574.9 2271.03 2571.78 2274.4 Q2568.66 2277.72 2568.66 2283.59 M2565.17 2291.77 Q2563.88 2297.04 2560.27 2300 Q2556.67 2302.91 2551.48 2302.91 Q2544.23 2302.91 2540.02 2297.77 Q2535.8 2292.58 2535.8 2283.59 Q2535.8 2274.56 2540.02 2269.41 Q2544.23 2264.27 2551.48 2264.27 Q2556.67 2264.27 2560.27 2267.23 Q2563.88 2270.14 2565.17 2275.37 Q2566.55 2269.45 2570.56 2266.17 Q2574.57 2262.85 2580.36 2262.85 Q2589.16 2262.85 2593.85 2268.24 Q2598.55 2273.59 2598.55 2283.59 Q2598.55 2293.6 2593.85 2298.98 Q2589.16 2304.33 2580.36 2304.33 Q2574.57 2304.33 2570.56 2301.01 Q2566.55 2297.69 2565.17 2291.77 M2552.25 2294.77 Q2556.95 2294.77 2559.58 2291.85 Q2562.22 2288.9 2562.22 2283.59 Q2562.22 2278.32 2559.58 2275.37 Q2556.95 2272.37 2552.25 2272.37 Q2547.55 2272.37 2544.92 2275.37 Q2542.29 2278.32 2542.29 2283.59 Q2542.29 2288.9 2544.92 2291.85 Q2547.55 2294.77 2552.25 2294.77 Z" fill="#000000" fill-rule="nonzero" fill-opacity="1" /><path clip-path="url(#clip920)" d="M2536.9 2250.37 L2536.9 2211.48 L2540.38 2211.48 L2597.38 2233.44 L2597.38 2241.99 L2543.79 2221.33 L2543.79 2250.37 L2536.9 2250.37 Z" fill="#000000" fill-rule="nonzero" fill-opacity="1" /><path clip-path="url(#clip920)" d="M2708.72 2354.89 L2708.72 2341.52 L2662.58 2341.52 L2665.5 2356.06 L2658.04 2356.06 L2655.13 2341.6 L2655.13 2333.42 L2708.72 2333.42 L2708.72 2320.05 L2715.61 2320.05 L2715.61 2354.89 L2708.72 2354.89 Z" fill="#000000" fill-rule="nonzero" fill-opacity="1" /><path clip-path="url(#clip920)" d="M2655.13 2303.44 L2655.13 2271.32 L2662.01 2271.32 L2662.01 2295.95 L2676.84 2295.95 Q2676.23 2294.16 2675.95 2292.38 Q2675.62 2290.6 2675.62 2288.82 Q2675.62 2278.69 2681.17 2272.78 Q2686.72 2266.86 2696.2 2266.86 Q2705.97 2266.86 2711.39 2272.94 Q2716.78 2279.01 2716.78 2290.07 Q2716.78 2293.88 2716.13 2297.85 Q2715.48 2301.78 2714.19 2305.99 L2705.97 2305.99 Q2707.95 2302.35 2708.92 2298.46 Q2709.89 2294.57 2709.89 2290.23 Q2709.89 2283.23 2706.21 2279.14 Q2702.52 2275.04 2696.2 2275.04 Q2689.88 2275.04 2686.2 2279.14 Q2682.51 2283.23 2682.51 2290.23 Q2682.51 2293.52 2683.24 2296.8 Q2683.97 2300.04 2685.51 2303.44 L2655.13 2303.44 Z" fill="#000000" fill-rule="nonzero" fill-opacity="1" /><path clip-path="url(#clip920)" d="M2662.26 2228.26 L2694.54 2248.92 L2694.54 2228.26 L2662.26 2228.26 M2655.13 2230.4 L2655.13 2220.11 L2694.54 2220.11 L2694.54 2211.48 L2701.35 2211.48 L2701.35 2220.11 L2715.61 2220.11 L2715.61 2228.26 L2701.35 2228.26 L2701.35 2255.56 L2693.45 2255.56 L2655.13 2230.4 Z" fill="#000000" fill-rule="nonzero" fill-opacity="1" /><polyline clip-path="url(#clip920)" style="stroke:#000000; stroke-linecap:round; stroke-linejoin:round; stroke-width:4; stroke-opacity:1; fill:none" points="371.652,2189.08 371.652,140.752 "/>
<polyline clip-path="url(#clip920)" style="stroke:#000000; stroke-linecap:round; stroke-linejoin:round; stroke-width:4; stroke-opacity:1; fill:none" points="371.652,2101.21 390.55,2101.21 "/>
<polyline clip-path="url(#clip920)" style="stroke:#000000; stroke-linecap:round; stroke-linejoin:round; stroke-width:4; stroke-opacity:1; fill:none" points="371.652,1634.43 390.55,1634.43 "/>
<polyline clip-path="url(#clip920)" style="stroke:#000000; stroke-linecap:round; stroke-linejoin:round; stroke-width:4; stroke-opacity:1; fill:none" points="371.652,1167.66 390.55,1167.66 "/>
<polyline clip-path="url(#clip920)" style="stroke:#000000; stroke-linecap:round; stroke-linejoin:round; stroke-width:4; stroke-opacity:1; fill:none" points="371.652,700.882 390.55,700.882 "/>
<polyline clip-path="url(#clip920)" style="stroke:#000000; stroke-linecap:round; stroke-linejoin:round; stroke-width:4; stroke-opacity:1; fill:none" points="371.652,234.107 390.55,234.107 "/>
<path clip-path="url(#clip920)" d="M142.5 2102 L194.433 2102 L194.433 2108.88 L142.5 2108.88 L142.5 2102 Z" fill="#000000" fill-rule="nonzero" fill-opacity="1" /><path clip-path="url(#clip920)" d="M213.513 2124.56 L226.88 2124.56 L226.88 2078.42 L212.338 2081.34 L212.338 2073.88 L226.799 2070.97 L234.982 2070.97 L234.982 2124.56 L248.35 2124.56 L248.35 2131.45 L213.513 2131.45 L213.513 2124.56 Z" fill="#000000" fill-rule="nonzero" fill-opacity="1" /><path clip-path="url(#clip920)" d="M264.878 2121.16 L273.425 2121.16 L273.425 2131.45 L264.878 2131.45 L264.878 2121.16 Z" fill="#000000" fill-rule="nonzero" fill-opacity="1" /><path clip-path="url(#clip920)" d="M308.749 2076.35 Q302.43 2076.35 299.23 2082.59 Q296.07 2088.79 296.07 2101.27 Q296.07 2113.7 299.23 2119.94 Q302.43 2126.14 308.749 2126.14 Q315.109 2126.14 318.269 2119.94 Q321.469 2113.7 321.469 2101.27 Q321.469 2088.79 318.269 2082.59 Q315.109 2076.35 308.749 2076.35 M308.749 2069.87 Q318.917 2069.87 324.264 2077.93 Q329.652 2085.95 329.652 2101.27 Q329.652 2116.54 324.264 2124.6 Q318.917 2132.62 308.749 2132.62 Q298.581 2132.62 293.194 2124.6 Q287.847 2116.54 287.847 2101.27 Q287.847 2085.95 293.194 2077.93 Q298.581 2069.87 308.749 2069.87 Z" fill="#000000" fill-rule="nonzero" fill-opacity="1" /><path clip-path="url(#clip920)" d="M144.242 1635.22 L196.175 1635.22 L196.175 1642.11 L144.242 1642.11 L144.242 1635.22 Z" fill="#000000" fill-rule="nonzero" fill-opacity="1" /><path clip-path="url(#clip920)" d="M231.336 1609.58 Q225.017 1609.58 221.817 1615.82 Q218.657 1622.01 218.657 1634.49 Q218.657 1646.93 221.817 1653.17 Q225.017 1659.36 231.336 1659.36 Q237.696 1659.36 240.856 1653.17 Q244.056 1646.93 244.056 1634.49 Q244.056 1622.01 240.856 1615.82 Q237.696 1609.58 231.336 1609.58 M231.336 1603.1 Q241.504 1603.1 246.851 1611.16 Q252.239 1619.18 252.239 1634.49 Q252.239 1649.76 246.851 1657.82 Q241.504 1665.85 231.336 1665.85 Q221.169 1665.85 215.781 1657.82 Q210.434 1649.76 210.434 1634.49 Q210.434 1619.18 215.781 1611.16 Q221.169 1603.1 231.336 1603.1 Z" fill="#000000" fill-rule="nonzero" fill-opacity="1" /><path clip-path="url(#clip920)" d="M266.62 1654.38 L275.167 1654.38 L275.167 1664.67 L266.62 1664.67 L266.62 1654.38 Z" fill="#000000" fill-rule="nonzero" fill-opacity="1" /><path clip-path="url(#clip920)" d="M293.072 1604.19 L325.196 1604.19 L325.196 1611.08 L300.566 1611.08 L300.566 1625.9 Q302.349 1625.3 304.131 1625.01 Q305.914 1624.69 307.696 1624.69 Q317.823 1624.69 323.738 1630.24 Q329.652 1635.79 329.652 1645.27 Q329.652 1655.03 323.576 1660.46 Q317.499 1665.85 306.44 1665.85 Q302.632 1665.85 298.663 1665.2 Q294.733 1664.55 290.52 1663.25 L290.52 1655.03 Q294.166 1657.01 298.055 1657.99 Q301.944 1658.96 306.278 1658.96 Q313.286 1658.96 317.378 1655.27 Q321.469 1651.59 321.469 1645.27 Q321.469 1638.95 317.378 1635.26 Q313.286 1631.58 306.278 1631.58 Q302.997 1631.58 299.716 1632.3 Q296.475 1633.03 293.072 1634.57 L293.072 1604.19 Z" fill="#000000" fill-rule="nonzero" fill-opacity="1" /><path clip-path="url(#clip920)" d="M229.595 1142.8 Q223.275 1142.8 220.075 1149.04 Q216.915 1155.24 216.915 1167.72 Q216.915 1180.15 220.075 1186.39 Q223.275 1192.59 229.595 1192.59 Q235.955 1192.59 239.114 1186.39 Q242.314 1180.15 242.314 1167.72 Q242.314 1155.24 239.114 1149.04 Q235.955 1142.8 229.595 1142.8 M229.595 1136.32 Q239.762 1136.32 245.11 1144.38 Q250.497 1152.4 250.497 1167.72 Q250.497 1182.99 245.11 1191.05 Q239.762 1199.07 229.595 1199.07 Q219.427 1199.07 214.039 1191.05 Q208.692 1182.99 208.692 1167.72 Q208.692 1152.4 214.039 1144.38 Q219.427 1136.32 229.595 1136.32 Z" fill="#000000" fill-rule="nonzero" fill-opacity="1" /><path clip-path="url(#clip920)" d="M264.878 1187.61 L273.425 1187.61 L273.425 1197.9 L264.878 1197.9 L264.878 1187.61 Z" fill="#000000" fill-rule="nonzero" fill-opacity="1" /><path clip-path="url(#clip920)" d="M308.749 1142.8 Q302.43 1142.8 299.23 1149.04 Q296.07 1155.24 296.07 1167.72 Q296.07 1180.15 299.23 1186.39 Q302.43 1192.59 308.749 1192.59 Q315.109 1192.59 318.269 1186.39 Q321.469 1180.15 321.469 1167.72 Q321.469 1155.24 318.269 1149.04 Q315.109 1142.8 308.749 1142.8 M308.749 1136.32 Q318.917 1136.32 324.264 1144.38 Q329.652 1152.4 329.652 1167.72 Q329.652 1182.99 324.264 1191.05 Q318.917 1199.07 308.749 1199.07 Q298.581 1199.07 293.194 1191.05 Q287.847 1182.99 287.847 1167.72 Q287.847 1152.4 293.194 1144.38 Q298.581 1136.32 308.749 1136.32 Z" fill="#000000" fill-rule="nonzero" fill-opacity="1" /><path clip-path="url(#clip920)" d="M231.336 676.029 Q225.017 676.029 221.817 682.268 Q218.657 688.466 218.657 700.942 Q218.657 713.379 221.817 719.617 Q225.017 725.815 231.336 725.815 Q237.696 725.815 240.856 719.617 Q244.056 713.379 244.056 700.942 Q244.056 688.466 240.856 682.268 Q237.696 676.029 231.336 676.029 M231.336 669.548 Q241.504 669.548 246.851 677.609 Q252.239 685.63 252.239 700.942 Q252.239 716.214 246.851 724.276 Q241.504 732.296 231.336 732.296 Q221.169 732.296 215.781 724.276 Q210.434 716.214 210.434 700.942 Q210.434 685.63 215.781 677.609 Q221.169 669.548 231.336 669.548 Z" fill="#000000" fill-rule="nonzero" fill-opacity="1" /><path clip-path="url(#clip920)" d="M266.62 720.832 L275.167 720.832 L275.167 731.122 L266.62 731.122 L266.62 720.832 Z" fill="#000000" fill-rule="nonzero" fill-opacity="1" /><path clip-path="url(#clip920)" d="M293.072 670.642 L325.196 670.642 L325.196 677.528 L300.566 677.528 L300.566 692.355 Q302.349 691.747 304.131 691.463 Q305.914 691.139 307.696 691.139 Q317.823 691.139 323.738 696.689 Q329.652 702.239 329.652 711.718 Q329.652 721.481 323.576 726.909 Q317.499 732.296 306.44 732.296 Q302.632 732.296 298.663 731.648 Q294.733 731 290.52 729.704 L290.52 721.481 Q294.166 723.465 298.055 724.438 Q301.944 725.41 306.278 725.41 Q313.286 725.41 317.378 721.724 Q321.469 718.037 321.469 711.718 Q321.469 705.398 317.378 701.712 Q313.286 698.026 306.278 698.026 Q302.997 698.026 299.716 698.755 Q296.475 699.484 293.072 701.023 L293.072 670.642 Z" fill="#000000" fill-rule="nonzero" fill-opacity="1" /><path clip-path="url(#clip920)" d="M213.513 257.461 L226.88 257.461 L226.88 211.321 L212.338 214.237 L212.338 206.784 L226.799 203.867 L234.982 203.867 L234.982 257.461 L248.35 257.461 L248.35 264.347 L213.513 264.347 L213.513 257.461 Z" fill="#000000" fill-rule="nonzero" fill-opacity="1" /><path clip-path="url(#clip920)" d="M264.878 254.058 L273.425 254.058 L273.425 264.347 L264.878 264.347 L264.878 254.058 Z" fill="#000000" fill-rule="nonzero" fill-opacity="1" /><path clip-path="url(#clip920)" d="M308.749 209.255 Q302.43 209.255 299.23 215.493 Q296.07 221.691 296.07 234.168 Q296.07 246.604 299.23 252.842 Q302.43 259.04 308.749 259.04 Q315.109 259.04 318.269 252.842 Q321.469 246.604 321.469 234.168 Q321.469 221.691 318.269 215.493 Q315.109 209.255 308.749 209.255 M308.749 202.773 Q318.917 202.773 324.264 210.835 Q329.652 218.855 329.652 234.168 Q329.652 249.44 324.264 257.501 Q318.917 265.522 308.749 265.522 Q298.581 265.522 293.194 257.501 Q287.847 249.44 287.847 234.168 Q287.847 218.855 293.194 210.835 Q298.581 202.773 308.749 202.773 Z" fill="#000000" fill-rule="nonzero" fill-opacity="1" /><path clip-path="url(#clip920)" d="M21.8762 1625.38 L21.8762 1613.19 L63.0333 1597.76 L21.8762 1582.24 L21.8762 1570.05 L82.3562 1570.05 L82.3562 1578.03 L29.2488 1578.03 L70.7301 1593.63 L70.7301 1601.85 L29.2488 1617.45 L82.3562 1617.45 L82.3562 1625.38 L21.8762 1625.38 Z" fill="#000000" fill-rule="nonzero" fill-opacity="1" /><path clip-path="url(#clip920)" d="M59.5496 1533.51 Q59.5496 1542.54 61.6155 1546.03 Q63.6815 1549.51 68.6641 1549.51 Q72.634 1549.51 74.9835 1546.92 Q77.2925 1544.29 77.2925 1539.79 Q77.2925 1533.59 72.9176 1529.86 Q68.5021 1526.1 61.2104 1526.1 L59.5496 1526.1 L59.5496 1533.51 M56.4709 1518.64 L82.3562 1518.64 L82.3562 1526.1 L75.4696 1526.1 Q79.6015 1528.65 81.5865 1532.46 Q83.5309 1536.26 83.5309 1541.77 Q83.5309 1548.74 79.6421 1552.87 Q75.7127 1556.97 69.1502 1556.97 Q61.494 1556.97 57.6051 1551.86 Q53.7163 1546.72 53.7163 1536.55 L53.7163 1526.1 L52.9871 1526.1 Q47.8425 1526.1 45.0473 1529.5 Q42.2117 1532.86 42.2117 1538.98 Q42.2117 1542.87 43.1434 1546.55 Q44.0751 1550.24 45.9385 1553.64 L39.052 1553.64 Q37.4721 1549.55 36.7025 1545.7 Q35.8923 1541.86 35.8923 1538.21 Q35.8923 1528.37 40.9964 1523.5 Q46.1006 1518.64 56.4709 1518.64 Z" fill="#000000" fill-rule="nonzero" fill-opacity="1" /><path clip-path="url(#clip920)" d="M36.986 1465.58 L59.0635 1481.98 L82.3562 1464.73 L82.3562 1473.52 L64.5322 1486.72 L82.3562 1499.93 L82.3562 1508.72 L58.6179 1491.1 L36.986 1507.22 L36.986 1498.43 L53.1491 1486.4 L36.986 1474.37 L36.986 1465.58 Z" fill="#000000" fill-rule="nonzero" fill-opacity="1" /><path clip-path="url(#clip920)" d="M72.0669 1453.14 L72.0669 1444.59 L82.3562 1444.59 L82.3562 1453.14 L72.0669 1453.14 Z" fill="#000000" fill-rule="nonzero" fill-opacity="1" /><path clip-path="url(#clip920)" d="M56.3088 1431.59 L56.3088 1409.76 L62.9523 1409.76 L62.9523 1431.59 L56.3088 1431.59 Z" fill="#000000" fill-rule="nonzero" fill-opacity="1" /><path clip-path="url(#clip920)" d="M54.972 1360.17 L82.3562 1360.17 L82.3562 1367.63 L55.2151 1367.63 Q48.7742 1367.63 45.5739 1370.14 Q42.3737 1372.65 42.3737 1377.67 Q42.3737 1383.71 46.2221 1387.19 Q50.0705 1390.68 56.7139 1390.68 L82.3562 1390.68 L82.3562 1398.17 L36.986 1398.17 L36.986 1390.68 L44.0346 1390.68 Q39.9432 1388 37.9177 1384.4 Q35.8923 1380.75 35.8923 1376.01 Q35.8923 1368.19 40.7534 1364.18 Q45.5739 1360.17 54.972 1360.17 Z" fill="#000000" fill-rule="nonzero" fill-opacity="1" /><path clip-path="url(#clip920)" d="M42.2117 1327.72 Q42.2117 1333.72 46.9107 1337.2 Q51.5693 1340.69 59.7116 1340.69 Q67.8539 1340.69 72.553 1337.24 Q77.2115 1333.76 77.2115 1327.72 Q77.2115 1321.77 72.5125 1318.29 Q67.8134 1314.8 59.7116 1314.8 Q51.6503 1314.8 46.9513 1318.29 Q42.2117 1321.77 42.2117 1327.72 M35.8923 1327.72 Q35.8923 1318 42.2117 1312.45 Q48.5311 1306.9 59.7116 1306.9 Q70.8516 1306.9 77.2115 1312.45 Q83.5309 1318 83.5309 1327.72 Q83.5309 1337.49 77.2115 1343.04 Q70.8516 1348.55 59.7116 1348.55 Q48.5311 1348.55 42.2117 1343.04 Q35.8923 1337.49 35.8923 1327.72 Z" fill="#000000" fill-rule="nonzero" fill-opacity="1" /><path clip-path="url(#clip920)" d="M43.9536 1268.26 Q43.2244 1269.51 42.9004 1271.01 Q42.5358 1272.47 42.5358 1274.25 Q42.5358 1280.57 46.6677 1283.97 Q50.7591 1287.34 58.4558 1287.34 L82.3562 1287.34 L82.3562 1294.83 L36.986 1294.83 L36.986 1287.34 L44.0346 1287.34 Q39.9027 1284.99 37.9177 1281.22 Q35.8923 1277.45 35.8923 1272.06 Q35.8923 1271.3 36.0138 1270.36 Q36.0948 1269.43 36.2974 1268.3 L43.9536 1268.26 Z" fill="#000000" fill-rule="nonzero" fill-opacity="1" /><path clip-path="url(#clip920)" d="M45.6955 1226.57 Q40.6724 1223.78 38.2823 1219.89 Q35.8923 1216 35.8923 1210.73 Q35.8923 1203.65 40.8749 1199.8 Q45.817 1195.95 54.972 1195.95 L82.3562 1195.95 L82.3562 1203.44 L55.2151 1203.44 Q48.6931 1203.44 45.5334 1205.75 Q42.3737 1208.06 42.3737 1212.8 Q42.3737 1218.59 46.2221 1221.96 Q50.0705 1225.32 56.7139 1225.32 L82.3562 1225.32 L82.3562 1232.81 L55.2151 1232.81 Q48.6526 1232.81 45.5334 1235.12 Q42.3737 1237.43 42.3737 1242.25 Q42.3737 1247.96 46.2626 1251.32 Q50.111 1254.69 56.7139 1254.69 L82.3562 1254.69 L82.3562 1262.18 L36.986 1262.18 L36.986 1254.69 L44.0346 1254.69 Q39.8622 1252.13 37.8772 1248.57 Q35.8923 1245 35.8923 1240.1 Q35.8923 1235.16 38.4038 1231.72 Q40.9154 1228.23 45.6955 1226.57 Z" fill="#000000" fill-rule="nonzero" fill-opacity="1" /><path clip-path="url(#clip920)" d="M72.0669 1180.03 L72.0669 1171.48 L82.3562 1171.48 L82.3562 1180.03 L72.0669 1180.03 Z" fill="#000000" fill-rule="nonzero" fill-opacity="1" /><path clip-path="url(#clip920)" d="M38.7279 1095.69 L45.6955 1095.69 Q43.9536 1098.85 43.1029 1102.05 Q42.2117 1105.21 42.2117 1108.45 Q42.2117 1115.7 46.8297 1119.71 Q51.4072 1123.72 59.7116 1123.72 Q68.016 1123.72 72.634 1119.71 Q77.2115 1115.7 77.2115 1108.45 Q77.2115 1105.21 76.3608 1102.05 Q75.4696 1098.85 73.7277 1095.69 L80.6143 1095.69 Q82.0726 1098.81 82.8018 1102.17 Q83.5309 1105.49 83.5309 1109.26 Q83.5309 1119.51 77.09 1125.54 Q70.649 1131.58 59.7116 1131.58 Q48.6121 1131.58 42.2522 1125.5 Q35.8923 1119.39 35.8923 1108.77 Q35.8923 1105.33 36.6214 1102.05 Q37.3101 1098.77 38.7279 1095.69 Z" fill="#000000" fill-rule="nonzero" fill-opacity="1" /><path clip-path="url(#clip920)" d="M42.2117 1065.14 Q42.2117 1071.14 46.9107 1074.62 Q51.5693 1078.11 59.7116 1078.11 Q67.8539 1078.11 72.553 1074.66 Q77.2115 1071.18 77.2115 1065.14 Q77.2115 1059.19 72.5125 1055.71 Q67.8134 1052.22 59.7116 1052.22 Q51.6503 1052.22 46.9513 1055.71 Q42.2117 1059.19 42.2117 1065.14 M35.8923 1065.14 Q35.8923 1055.42 42.2117 1049.87 Q48.5311 1044.32 59.7116 1044.32 Q70.8516 1044.32 77.2115 1049.87 Q83.5309 1055.42 83.5309 1065.14 Q83.5309 1074.91 77.2115 1080.46 Q70.8516 1085.97 59.7116 1085.97 Q48.5311 1085.97 42.2117 1080.46 Q35.8923 1074.91 35.8923 1065.14 Z" fill="#000000" fill-rule="nonzero" fill-opacity="1" /><path clip-path="url(#clip920)" d="M57.8077 993.16 L61.4535 993.16 L61.4535 1027.43 Q69.1502 1026.94 73.2011 1022.81 Q77.2115 1018.64 77.2115 1011.23 Q77.2115 1006.93 76.1583 1002.92 Q75.105 998.872 72.9986 994.902 L80.0471 994.902 Q81.7485 998.912 82.6397 1003.13 Q83.5309 1007.34 83.5309 1011.67 Q83.5309 1022.53 77.2115 1028.89 Q70.8921 1035.21 60.1167 1035.21 Q48.9767 1035.21 42.4548 1029.21 Q35.8923 1023.18 35.8923 1012.97 Q35.8923 1003.81 41.8066 998.507 Q47.6804 993.16 57.8077 993.16 M55.6202 1000.61 Q49.5033 1000.69 45.8575 1004.06 Q42.2117 1007.38 42.2117 1012.89 Q42.2117 1019.13 45.736 1022.89 Q49.2603 1026.62 55.6607 1027.19 L55.6202 1000.61 Z" fill="#000000" fill-rule="nonzero" fill-opacity="1" /><path clip-path="url(#clip920)" d="M19.3241 957.958 L25.522 957.958 L25.522 965.087 Q25.522 969.098 27.1423 970.678 Q28.7627 972.217 32.9756 972.217 L36.986 972.217 L36.986 959.943 L42.7788 959.943 L42.7788 972.217 L82.3562 972.217 L82.3562 979.711 L42.7788 979.711 L42.7788 986.841 L36.986 986.841 L36.986 979.711 L33.8263 979.711 Q26.2511 979.711 22.8079 976.187 Q19.3241 972.663 19.3241 965.006 L19.3241 957.958 Z" fill="#000000" fill-rule="nonzero" fill-opacity="1" /><path clip-path="url(#clip920)" d="M19.3241 928.751 L25.522 928.751 L25.522 935.88 Q25.522 939.891 27.1423 941.471 Q28.7627 943.01 32.9756 943.01 L36.986 943.01 L36.986 930.736 L42.7788 930.736 L42.7788 943.01 L82.3562 943.01 L82.3562 950.504 L42.7788 950.504 L42.7788 957.634 L36.986 957.634 L36.986 950.504 L33.8263 950.504 Q26.2511 950.504 22.8079 946.98 Q19.3241 943.456 19.3241 935.799 L19.3241 928.751 Z" fill="#000000" fill-rule="nonzero" fill-opacity="1" /><path clip-path="url(#clip920)" d="M36.986 922.512 L36.986 915.059 L82.3562 915.059 L82.3562 922.512 L36.986 922.512 M19.3241 922.512 L19.3241 915.059 L28.7627 915.059 L28.7627 922.512 L19.3241 922.512 Z" fill="#000000" fill-rule="nonzero" fill-opacity="1" /><path clip-path="url(#clip920)" d="M38.7279 866.812 L45.6955 866.812 Q43.9536 869.972 43.1029 873.172 Q42.2117 876.332 42.2117 879.573 Q42.2117 886.824 46.8297 890.834 Q51.4072 894.845 59.7116 894.845 Q68.016 894.845 72.634 890.834 Q77.2115 886.824 77.2115 879.573 Q77.2115 876.332 76.3608 873.172 Q75.4696 869.972 73.7277 866.812 L80.6143 866.812 Q82.0726 869.932 82.8018 873.294 Q83.5309 876.616 83.5309 880.383 Q83.5309 890.632 77.09 896.668 Q70.649 902.703 59.7116 902.703 Q48.6121 902.703 42.2522 896.627 Q35.8923 890.51 35.8923 879.897 Q35.8923 876.454 36.6214 873.172 Q37.3101 869.891 38.7279 866.812 Z" fill="#000000" fill-rule="nonzero" fill-opacity="1" /><path clip-path="url(#clip920)" d="M36.986 853.85 L36.986 846.396 L82.3562 846.396 L82.3562 853.85 L36.986 853.85 M19.3241 853.85 L19.3241 846.396 L28.7627 846.396 L28.7627 853.85 L19.3241 853.85 Z" fill="#000000" fill-rule="nonzero" fill-opacity="1" /><path clip-path="url(#clip920)" d="M57.8077 791.992 L61.4535 791.992 L61.4535 826.263 Q69.1502 825.777 73.2011 821.645 Q77.2115 817.472 77.2115 810.059 Q77.2115 805.765 76.1583 801.755 Q75.105 797.704 72.9986 793.734 L80.0471 793.734 Q81.7485 797.745 82.6397 801.958 Q83.5309 806.17 83.5309 810.505 Q83.5309 821.361 77.2115 827.721 Q70.8921 834.041 60.1167 834.041 Q48.9767 834.041 42.4548 828.045 Q35.8923 822.009 35.8923 811.801 Q35.8923 802.646 41.8066 797.339 Q47.6804 791.992 57.8077 791.992 M55.6202 799.446 Q49.5033 799.527 45.8575 802.889 Q42.2117 806.211 42.2117 811.72 Q42.2117 817.959 45.736 821.726 Q49.2603 825.453 55.6607 826.02 L55.6202 799.446 Z" fill="#000000" fill-rule="nonzero" fill-opacity="1" /><path clip-path="url(#clip920)" d="M54.972 742.045 L82.3562 742.045 L82.3562 749.498 L55.2151 749.498 Q48.7742 749.498 45.5739 752.01 Q42.3737 754.521 42.3737 759.545 Q42.3737 765.58 46.2221 769.064 Q50.0705 772.548 56.7139 772.548 L82.3562 772.548 L82.3562 780.042 L36.986 780.042 L36.986 772.548 L44.0346 772.548 Q39.9432 769.874 37.9177 766.269 Q35.8923 762.623 35.8923 757.884 Q35.8923 750.065 40.7534 746.055 Q45.5739 742.045 54.972 742.045 Z" fill="#000000" fill-rule="nonzero" fill-opacity="1" /><path clip-path="url(#clip920)" d="M24.1042 719.805 L36.986 719.805 L36.986 704.452 L42.7788 704.452 L42.7788 719.805 L67.4083 719.805 Q72.9581 719.805 74.5379 718.306 Q76.1178 716.767 76.1178 712.108 L76.1178 704.452 L82.3562 704.452 L82.3562 712.108 Q82.3562 720.737 79.1559 724.018 Q75.9152 727.299 67.4083 727.299 L42.7788 727.299 L42.7788 732.768 L36.986 732.768 L36.986 727.299 L24.1042 727.299 L24.1042 719.805 Z" fill="#000000" fill-rule="nonzero" fill-opacity="1" /><path clip-path="url(#clip920)" d="M329.149 12.096 L380.312 12.096 L380.312 18.9825 L358.842 18.9825 L358.842 72.576 L350.619 72.576 L350.619 18.9825 L329.149 18.9825 L329.149 12.096 Z" fill="#000000" fill-rule="nonzero" fill-opacity="1" /><path clip-path="url(#clip920)" d="M391.371 32.4315 Q385.376 32.4315 381.892 37.1306 Q378.408 41.7891 378.408 49.9314 Q378.408 58.0738 381.851 62.7728 Q385.335 67.4314 391.371 67.4314 Q397.326 67.4314 400.81 62.7323 Q404.293 58.0333 404.293 49.9314 Q404.293 41.8701 400.81 37.1711 Q397.326 32.4315 391.371 32.4315 M391.371 26.1121 Q401.093 26.1121 406.643 32.4315 Q412.193 38.7509 412.193 49.9314 Q412.193 61.0714 406.643 67.4314 Q401.093 73.7508 391.371 73.7508 Q381.608 73.7508 376.059 67.4314 Q370.549 61.0714 370.549 49.9314 Q370.549 38.7509 376.059 32.4315 Q381.608 26.1121 391.371 26.1121 Z" fill="#000000" fill-rule="nonzero" fill-opacity="1" /><path clip-path="url(#clip920)" d="M431.759 65.7705 L431.759 89.8329 L424.264 89.8329 L424.264 27.2059 L431.759 27.2059 L431.759 34.0924 Q434.108 30.0415 437.673 28.0971 Q441.278 26.1121 446.261 26.1121 Q454.525 26.1121 459.669 32.6746 Q464.854 39.2371 464.854 49.9314 Q464.854 60.6258 459.669 67.1883 Q454.525 73.7508 446.261 73.7508 Q441.278 73.7508 437.673 71.8063 Q434.108 69.8214 431.759 65.7705 M457.117 49.9314 Q457.117 41.7081 453.714 37.0496 Q450.352 32.3505 444.438 32.3505 Q438.524 32.3505 435.121 37.0496 Q431.759 41.7081 431.759 49.9314 Q431.759 58.1548 435.121 62.8538 Q438.524 67.5124 444.438 67.5124 Q450.352 67.5124 453.714 62.8538 Q457.117 58.1548 457.117 49.9314 Z" fill="#000000" fill-rule="nonzero" fill-opacity="1" /><path clip-path="url(#clip920)" d="M511.683 65.6895 L540.242 65.6895 L540.242 72.576 L501.839 72.576 L501.839 65.6895 Q506.498 60.8689 514.519 52.7671 Q522.58 44.6248 524.646 42.2752 Q528.575 37.8598 530.115 34.8216 Q531.694 31.7429 531.694 28.7857 Q531.694 23.9651 528.292 20.927 Q524.929 17.8888 519.501 17.8888 Q515.653 17.8888 511.359 19.2256 Q507.105 20.5624 502.244 23.2765 L502.244 15.0127 Q507.186 13.0277 511.48 12.015 Q515.774 11.0023 519.339 11.0023 Q528.737 11.0023 534.327 15.7013 Q539.918 20.4004 539.918 28.2591 Q539.918 31.9859 538.5 35.3482 Q537.123 38.6699 533.436 43.2069 Q532.424 44.3817 526.995 50.0125 Q521.567 55.6027 511.683 65.6895 Z" fill="#000000" fill-rule="nonzero" fill-opacity="1" /><path clip-path="url(#clip920)" d="M574.918 17.4837 Q568.598 17.4837 565.398 23.7221 Q562.238 29.92 562.238 42.3968 Q562.238 54.833 565.398 61.0714 Q568.598 67.2693 574.918 67.2693 Q581.277 67.2693 584.437 61.0714 Q587.637 54.833 587.637 42.3968 Q587.637 29.92 584.437 23.7221 Q581.277 17.4837 574.918 17.4837 M574.918 11.0023 Q585.085 11.0023 590.433 19.0636 Q595.82 27.0843 595.82 42.3968 Q595.82 57.6687 590.433 65.73 Q585.085 73.7508 574.918 73.7508 Q564.75 73.7508 559.362 65.73 Q554.015 57.6687 554.015 42.3968 Q554.015 27.0843 559.362 19.0636 Q564.75 11.0023 574.918 11.0023 Z" fill="#000000" fill-rule="nonzero" fill-opacity="1" /><path clip-path="url(#clip920)" d="M658.488 9.54393 L658.488 15.7418 L651.358 15.7418 Q647.348 15.7418 645.768 17.3622 Q644.229 18.9825 644.229 23.1955 L644.229 27.2059 L656.503 27.2059 L656.503 32.9987 L644.229 32.9987 L644.229 72.576 L636.734 72.576 L636.734 32.9987 L629.605 32.9987 L629.605 27.2059 L636.734 27.2059 L636.734 24.0462 Q636.734 16.471 640.259 13.0277 Q643.783 9.54393 651.439 9.54393 L658.488 9.54393 Z" fill="#000000" fill-rule="nonzero" fill-opacity="1" /><path clip-path="url(#clip920)" d="M703.534 48.0275 L703.534 51.6733 L669.263 51.6733 Q669.749 59.3701 673.881 63.421 Q678.054 67.4314 685.467 67.4314 Q689.761 67.4314 693.771 66.3781 Q697.822 65.3249 701.792 63.2184 L701.792 70.267 Q697.781 71.9684 693.569 72.8596 Q689.356 73.7508 685.021 73.7508 Q674.165 73.7508 667.805 67.4314 Q661.485 61.1119 661.485 50.3365 Q661.485 39.1965 667.481 32.6746 Q673.517 26.1121 683.725 26.1121 Q692.88 26.1121 698.187 32.0264 Q703.534 37.9003 703.534 48.0275 M696.08 45.84 Q695.999 39.7232 692.637 36.0774 Q689.315 32.4315 683.806 32.4315 Q677.567 32.4315 673.8 35.9558 Q670.073 39.4801 669.506 45.8805 L696.08 45.84 Z" fill="#000000" fill-rule="nonzero" fill-opacity="1" /><path clip-path="url(#clip920)" d="M736.387 49.7694 Q727.353 49.7694 723.869 51.8354 Q720.386 53.9013 720.386 58.8839 Q720.386 62.8538 722.978 65.2034 Q725.611 67.5124 730.108 67.5124 Q736.306 67.5124 740.032 63.1374 Q743.8 58.7219 743.8 51.4303 L743.8 49.7694 L736.387 49.7694 M751.253 46.6907 L751.253 72.576 L743.8 72.576 L743.8 65.6895 Q741.248 69.8214 737.44 71.8063 Q733.632 73.7508 728.123 73.7508 Q721.155 73.7508 717.023 69.8619 Q712.932 65.9325 712.932 59.3701 Q712.932 51.7138 718.036 47.825 Q723.181 43.9361 733.348 43.9361 L743.8 43.9361 L743.8 43.2069 Q743.8 38.0623 740.397 35.2672 Q737.035 32.4315 730.918 32.4315 Q727.029 32.4315 723.343 33.3632 Q719.656 34.295 716.254 36.1584 L716.254 29.2718 Q720.345 27.692 724.193 26.9223 Q728.042 26.1121 731.688 26.1121 Q741.531 26.1121 746.392 31.2163 Q751.253 36.3204 751.253 46.6907 Z" fill="#000000" fill-rule="nonzero" fill-opacity="1" /><path clip-path="url(#clip920)" d="M773.979 14.324 L773.979 27.2059 L789.332 27.2059 L789.332 32.9987 L773.979 32.9987 L773.979 57.6282 Q773.979 63.1779 775.478 64.7578 Q777.017 66.3376 781.676 66.3376 L789.332 66.3376 L789.332 72.576 L781.676 72.576 Q773.047 72.576 769.766 69.3758 Q766.485 66.1351 766.485 57.6282 L766.485 32.9987 L761.016 32.9987 L761.016 27.2059 L766.485 27.2059 L766.485 14.324 L773.979 14.324 Z" fill="#000000" fill-rule="nonzero" fill-opacity="1" /><path clip-path="url(#clip920)" d="M798.365 54.671 L798.365 27.2059 L805.819 27.2059 L805.819 54.3874 Q805.819 60.8284 808.331 64.0691 Q810.842 67.2693 815.865 67.2693 Q821.901 67.2693 825.385 63.421 Q828.909 59.5726 828.909 52.9291 L828.909 27.2059 L836.363 27.2059 L836.363 72.576 L828.909 72.576 L828.909 65.6084 Q826.195 69.7404 822.59 71.7658 Q819.025 73.7508 814.285 73.7508 Q806.467 73.7508 802.416 68.8897 Q798.365 64.0286 798.365 54.671 M817.121 26.1121 L817.121 26.1121 Z" fill="#000000" fill-rule="nonzero" fill-opacity="1" /><path clip-path="url(#clip920)" d="M878.006 34.1734 Q876.75 33.4443 875.252 33.1202 Q873.793 32.7556 872.011 32.7556 Q865.691 32.7556 862.289 36.8875 Q858.926 40.9789 858.926 48.6757 L858.926 72.576 L851.432 72.576 L851.432 27.2059 L858.926 27.2059 L858.926 34.2544 Q861.276 30.1225 865.043 28.1376 Q868.811 26.1121 874.198 26.1121 Q874.968 26.1121 875.9 26.2337 Q876.831 26.3147 877.966 26.5172 L878.006 34.1734 Z" fill="#000000" fill-rule="nonzero" fill-opacity="1" /><path clip-path="url(#clip920)" d="M922.809 48.0275 L922.809 51.6733 L888.539 51.6733 Q889.025 59.3701 893.157 63.421 Q897.329 67.4314 904.742 67.4314 Q909.036 67.4314 913.047 66.3781 Q917.097 65.3249 921.067 63.2184 L921.067 70.267 Q917.057 71.9684 912.844 72.8596 Q908.631 73.7508 904.297 73.7508 Q893.44 73.7508 887.08 67.4314 Q880.761 61.1119 880.761 50.3365 Q880.761 39.1965 886.756 32.6746 Q892.792 26.1121 903 26.1121 Q912.155 26.1121 917.462 32.0264 Q922.809 37.9003 922.809 48.0275 M915.356 45.84 Q915.275 39.7232 911.912 36.0774 Q908.591 32.4315 903.081 32.4315 Q896.843 32.4315 893.076 35.9558 Q889.349 39.4801 888.782 45.8805 L915.356 45.84 Z" fill="#000000" fill-rule="nonzero" fill-opacity="1" /><path clip-path="url(#clip920)" d="M963.966 28.5427 L963.966 35.5912 Q960.807 33.9709 957.404 33.1607 Q954.001 32.3505 950.355 32.3505 Q944.806 32.3505 942.01 34.0519 Q939.256 35.7533 939.256 39.156 Q939.256 41.7486 941.241 43.2475 Q943.226 44.7058 949.221 46.0426 L951.773 46.6097 Q959.713 48.3111 963.035 51.4303 Q966.397 54.509 966.397 60.0587 Q966.397 66.3781 961.374 70.0644 Q956.391 73.7508 947.641 73.7508 Q943.995 73.7508 940.026 73.0216 Q936.096 72.3329 931.721 70.9151 L931.721 63.2184 Q935.853 65.3654 939.864 66.4591 Q943.874 67.5124 947.803 67.5124 Q953.069 67.5124 955.905 65.73 Q958.741 63.9071 958.741 60.6258 Q958.741 57.5877 956.675 55.9673 Q954.649 54.3469 947.722 52.8481 L945.13 52.2405 Q938.203 50.7821 935.124 47.7845 Q932.045 44.7463 932.045 39.4801 Q932.045 33.0797 936.582 29.5959 Q941.119 26.1121 949.464 26.1121 Q953.596 26.1121 957.242 26.7198 Q960.888 27.3274 963.966 28.5427 Z" fill="#000000" fill-rule="nonzero" fill-opacity="1" /><path clip-path="url(#clip920)" d="M1004.64 27.2059 L1012.09 27.2059 L1012.09 72.576 L1004.64 72.576 L1004.64 27.2059 M1004.64 9.54393 L1012.09 9.54393 L1012.09 18.9825 L1004.64 18.9825 L1004.64 9.54393 Z" fill="#000000" fill-rule="nonzero" fill-opacity="1" /><path clip-path="url(#clip920)" d="M1065.4 45.1919 L1065.4 72.576 L1057.95 72.576 L1057.95 45.4349 Q1057.95 38.994 1055.44 35.7938 Q1052.92 32.5936 1047.9 32.5936 Q1041.87 32.5936 1038.38 36.4419 Q1034.9 40.2903 1034.9 46.9338 L1034.9 72.576 L1027.4 72.576 L1027.4 27.2059 L1034.9 27.2059 L1034.9 34.2544 Q1037.57 30.163 1041.18 28.1376 Q1044.82 26.1121 1049.56 26.1121 Q1057.38 26.1121 1061.39 30.9732 Q1065.4 35.7938 1065.4 45.1919 Z" fill="#000000" fill-rule="nonzero" fill-opacity="1" /><path clip-path="url(#clip920)" d="M1106.64 9.54393 L1114.09 9.54393 L1114.09 72.576 L1106.64 72.576 L1106.64 9.54393 Z" fill="#000000" fill-rule="nonzero" fill-opacity="1" /><path clip-path="url(#clip920)" d="M1150.31 49.7694 Q1141.27 49.7694 1137.79 51.8354 Q1134.31 53.9013 1134.31 58.8839 Q1134.31 62.8538 1136.9 65.2034 Q1139.53 67.5124 1144.03 67.5124 Q1150.23 67.5124 1153.95 63.1374 Q1157.72 58.7219 1157.72 51.4303 L1157.72 49.7694 L1150.31 49.7694 M1165.17 46.6907 L1165.17 72.576 L1157.72 72.576 L1157.72 65.6895 Q1155.17 69.8214 1151.36 71.8063 Q1147.55 73.7508 1142.04 73.7508 Q1135.08 73.7508 1130.94 69.8619 Q1126.85 65.9325 1126.85 59.3701 Q1126.85 51.7138 1131.96 47.825 Q1137.1 43.9361 1147.27 43.9361 L1157.72 43.9361 L1157.72 43.2069 Q1157.72 38.0623 1154.32 35.2672 Q1150.96 32.4315 1144.84 32.4315 Q1140.95 32.4315 1137.26 33.3632 Q1133.58 34.295 1130.17 36.1584 L1130.17 29.2718 Q1134.27 27.692 1138.11 26.9223 Q1141.96 26.1121 1145.61 26.1121 Q1155.45 26.1121 1160.31 31.2163 Q1165.17 36.3204 1165.17 46.6907 Z" fill="#000000" fill-rule="nonzero" fill-opacity="1" /><path clip-path="url(#clip920)" d="M1187.9 14.324 L1187.9 27.2059 L1203.25 27.2059 L1203.25 32.9987 L1187.9 32.9987 L1187.9 57.6282 Q1187.9 63.1779 1189.4 64.7578 Q1190.94 66.3376 1195.6 66.3376 L1203.25 66.3376 L1203.25 72.576 L1195.6 72.576 Q1186.97 72.576 1183.69 69.3758 Q1180.41 66.1351 1180.41 57.6282 L1180.41 32.9987 L1174.94 32.9987 L1174.94 27.2059 L1180.41 27.2059 L1180.41 14.324 L1187.9 14.324 Z" fill="#000000" fill-rule="nonzero" fill-opacity="1" /><path clip-path="url(#clip920)" d="M1251.86 48.0275 L1251.86 51.6733 L1217.59 51.6733 Q1218.08 59.3701 1222.21 63.421 Q1226.38 67.4314 1233.8 67.4314 Q1238.09 67.4314 1242.1 66.3781 Q1246.15 65.3249 1250.12 63.2184 L1250.12 70.267 Q1246.11 71.9684 1241.9 72.8596 Q1237.69 73.7508 1233.35 73.7508 Q1222.5 73.7508 1216.14 67.4314 Q1209.82 61.1119 1209.82 50.3365 Q1209.82 39.1965 1215.81 32.6746 Q1221.85 26.1121 1232.06 26.1121 Q1241.21 26.1121 1246.52 32.0264 Q1251.86 37.9003 1251.86 48.0275 M1244.41 45.84 Q1244.33 39.7232 1240.97 36.0774 Q1237.65 32.4315 1232.14 32.4315 Q1225.9 32.4315 1222.13 35.9558 Q1218.4 39.4801 1217.84 45.8805 L1244.41 45.84 Z" fill="#000000" fill-rule="nonzero" fill-opacity="1" /><path clip-path="url(#clip920)" d="M1301.81 45.1919 L1301.81 72.576 L1294.36 72.576 L1294.36 45.4349 Q1294.36 38.994 1291.85 35.7938 Q1289.34 32.5936 1284.31 32.5936 Q1278.28 32.5936 1274.79 36.4419 Q1271.31 40.2903 1271.31 46.9338 L1271.31 72.576 L1263.81 72.576 L1263.81 27.2059 L1271.31 27.2059 L1271.31 34.2544 Q1273.98 30.163 1277.59 28.1376 Q1281.23 26.1121 1285.97 26.1121 Q1293.79 26.1121 1297.8 30.9732 Q1301.81 35.7938 1301.81 45.1919 Z" fill="#000000" fill-rule="nonzero" fill-opacity="1" /><path clip-path="url(#clip920)" d="M1324.05 14.324 L1324.05 27.2059 L1339.4 27.2059 L1339.4 32.9987 L1324.05 32.9987 L1324.05 57.6282 Q1324.05 63.1779 1325.55 64.7578 Q1327.09 66.3376 1331.75 66.3376 L1339.4 66.3376 L1339.4 72.576 L1331.75 72.576 Q1323.12 72.576 1319.84 69.3758 Q1316.56 66.1351 1316.56 57.6282 L1316.56 32.9987 L1311.09 32.9987 L1311.09 27.2059 L1316.56 27.2059 L1316.56 14.324 L1324.05 14.324 Z" fill="#000000" fill-rule="nonzero" fill-opacity="1" /><path clip-path="url(#clip920)" d="M1405.43 34.0924 L1405.43 9.54393 L1412.89 9.54393 L1412.89 72.576 L1405.43 72.576 L1405.43 65.7705 Q1403.08 69.8214 1399.48 71.8063 Q1395.91 73.7508 1390.89 73.7508 Q1382.67 73.7508 1377.48 67.1883 Q1372.34 60.6258 1372.34 49.9314 Q1372.34 39.2371 1377.48 32.6746 Q1382.67 26.1121 1390.89 26.1121 Q1395.91 26.1121 1399.48 28.0971 Q1403.08 30.0415 1405.43 34.0924 M1380.03 49.9314 Q1380.03 58.1548 1383.4 62.8538 Q1386.8 67.5124 1392.71 67.5124 Q1398.63 67.5124 1402.03 62.8538 Q1405.43 58.1548 1405.43 49.9314 Q1405.43 41.7081 1402.03 37.0496 Q1398.63 32.3505 1392.71 32.3505 Q1386.8 32.3505 1383.4 37.0496 Q1380.03 41.7081 1380.03 49.9314 Z" fill="#000000" fill-rule="nonzero" fill-opacity="1" /><path clip-path="url(#clip920)" d="M1428.24 27.2059 L1435.69 27.2059 L1435.69 72.576 L1428.24 72.576 L1428.24 27.2059 M1428.24 9.54393 L1435.69 9.54393 L1435.69 18.9825 L1428.24 18.9825 L1428.24 9.54393 Z" fill="#000000" fill-rule="nonzero" fill-opacity="1" /><path clip-path="url(#clip920)" d="M1486.61 35.9153 Q1489.41 30.8922 1493.3 28.5022 Q1497.19 26.1121 1502.45 26.1121 Q1509.54 26.1121 1513.39 31.0947 Q1517.24 36.0368 1517.24 45.1919 L1517.24 72.576 L1509.74 72.576 L1509.74 45.4349 Q1509.74 38.913 1507.44 35.7533 Q1505.13 32.5936 1500.39 32.5936 Q1494.59 32.5936 1491.23 36.4419 Q1487.87 40.2903 1487.87 46.9338 L1487.87 72.576 L1480.38 72.576 L1480.38 45.4349 Q1480.38 38.8725 1478.07 35.7533 Q1475.76 32.5936 1470.94 32.5936 Q1465.23 32.5936 1461.86 36.4824 Q1458.5 40.3308 1458.5 46.9338 L1458.5 72.576 L1451.01 72.576 L1451.01 27.2059 L1458.5 27.2059 L1458.5 34.2544 Q1461.05 30.082 1464.62 28.0971 Q1468.18 26.1121 1473.08 26.1121 Q1478.03 26.1121 1481.47 28.6237 Q1484.95 31.1352 1486.61 35.9153 Z" fill="#000000" fill-rule="nonzero" fill-opacity="1" /><path clip-path="url(#clip920)" d="M1570.91 48.0275 L1570.91 51.6733 L1536.64 51.6733 Q1537.13 59.3701 1541.26 63.421 Q1545.43 67.4314 1552.85 67.4314 Q1557.14 67.4314 1561.15 66.3781 Q1565.2 65.3249 1569.17 63.2184 L1569.17 70.267 Q1565.16 71.9684 1560.95 72.8596 Q1556.74 73.7508 1552.4 73.7508 Q1541.54 73.7508 1535.18 67.4314 Q1528.86 61.1119 1528.86 50.3365 Q1528.86 39.1965 1534.86 32.6746 Q1540.9 26.1121 1551.1 26.1121 Q1560.26 26.1121 1565.57 32.0264 Q1570.91 37.9003 1570.91 48.0275 M1563.46 45.84 Q1563.38 39.7232 1560.02 36.0774 Q1556.69 32.4315 1551.19 32.4315 Q1544.95 32.4315 1541.18 35.9558 Q1537.45 39.4801 1536.89 45.8805 L1563.46 45.84 Z" fill="#000000" fill-rule="nonzero" fill-opacity="1" /><path clip-path="url(#clip920)" d="M1620.86 45.1919 L1620.86 72.576 L1613.41 72.576 L1613.41 45.4349 Q1613.41 38.994 1610.9 35.7938 Q1608.38 32.5936 1603.36 32.5936 Q1597.33 32.5936 1593.84 36.4419 Q1590.36 40.2903 1590.36 46.9338 L1590.36 72.576 L1582.86 72.576 L1582.86 27.2059 L1590.36 27.2059 L1590.36 34.2544 Q1593.03 30.163 1596.64 28.1376 Q1600.28 26.1121 1605.02 26.1121 Q1612.84 26.1121 1616.85 30.9732 Q1620.86 35.7938 1620.86 45.1919 Z" fill="#000000" fill-rule="nonzero" fill-opacity="1" /><path clip-path="url(#clip920)" d="M1664.65 28.5427 L1664.65 35.5912 Q1661.49 33.9709 1658.09 33.1607 Q1654.69 32.3505 1651.04 32.3505 Q1645.49 32.3505 1642.7 34.0519 Q1639.94 35.7533 1639.94 39.156 Q1639.94 41.7486 1641.93 43.2475 Q1643.91 44.7058 1649.91 46.0426 L1652.46 46.6097 Q1660.4 48.3111 1663.72 51.4303 Q1667.08 54.509 1667.08 60.0587 Q1667.08 66.3781 1662.06 70.0644 Q1657.08 73.7508 1648.33 73.7508 Q1644.68 73.7508 1640.71 73.0216 Q1636.78 72.3329 1632.41 70.9151 L1632.41 63.2184 Q1636.54 65.3654 1640.55 66.4591 Q1644.56 67.5124 1648.49 67.5124 Q1653.75 67.5124 1656.59 65.73 Q1659.43 63.9071 1659.43 60.6258 Q1659.43 57.5877 1657.36 55.9673 Q1655.33 54.3469 1648.41 52.8481 L1645.81 52.2405 Q1638.89 50.7821 1635.81 47.7845 Q1632.73 44.7463 1632.73 39.4801 Q1632.73 33.0797 1637.27 29.5959 Q1641.8 26.1121 1650.15 26.1121 Q1654.28 26.1121 1657.93 26.7198 Q1661.57 27.3274 1664.65 28.5427 Z" fill="#000000" fill-rule="nonzero" fill-opacity="1" /><path clip-path="url(#clip920)" d="M1678.95 27.2059 L1686.4 27.2059 L1686.4 72.576 L1678.95 72.576 L1678.95 27.2059 M1678.95 9.54393 L1686.4 9.54393 L1686.4 18.9825 L1678.95 18.9825 L1678.95 9.54393 Z" fill="#000000" fill-rule="nonzero" fill-opacity="1" /><path clip-path="url(#clip920)" d="M1719.58 32.4315 Q1713.59 32.4315 1710.1 37.1306 Q1706.62 41.7891 1706.62 49.9314 Q1706.62 58.0738 1710.06 62.7728 Q1713.55 67.4314 1719.58 67.4314 Q1725.54 67.4314 1729.02 62.7323 Q1732.5 58.0333 1732.5 49.9314 Q1732.5 41.8701 1729.02 37.1711 Q1725.54 32.4315 1719.58 32.4315 M1719.58 26.1121 Q1729.3 26.1121 1734.85 32.4315 Q1740.4 38.7509 1740.4 49.9314 Q1740.4 61.0714 1734.85 67.4314 Q1729.3 73.7508 1719.58 73.7508 Q1709.82 73.7508 1704.27 67.4314 Q1698.76 61.0714 1698.76 49.9314 Q1698.76 38.7509 1704.27 32.4315 Q1709.82 26.1121 1719.58 26.1121 Z" fill="#000000" fill-rule="nonzero" fill-opacity="1" /><path clip-path="url(#clip920)" d="M1790.47 45.1919 L1790.47 72.576 L1783.02 72.576 L1783.02 45.4349 Q1783.02 38.994 1780.51 35.7938 Q1778 32.5936 1772.97 32.5936 Q1766.94 32.5936 1763.45 36.4419 Q1759.97 40.2903 1759.97 46.9338 L1759.97 72.576 L1752.47 72.576 L1752.47 27.2059 L1759.97 27.2059 L1759.97 34.2544 Q1762.64 30.163 1766.25 28.1376 Q1769.89 26.1121 1774.63 26.1121 Q1782.45 26.1121 1786.46 30.9732 Q1790.47 35.7938 1790.47 45.1919 Z" fill="#000000" fill-rule="nonzero" fill-opacity="1" /><path clip-path="url(#clip920)" d="M1839.81 65.6895 L1868.37 65.6895 L1868.37 72.576 L1829.97 72.576 L1829.97 65.6895 Q1834.63 60.8689 1842.65 52.7671 Q1850.71 44.6248 1852.78 42.2752 Q1856.7 37.8598 1858.24 34.8216 Q1859.82 31.7429 1859.82 28.7857 Q1859.82 23.9651 1856.42 20.927 Q1853.06 17.8888 1847.63 17.8888 Q1843.78 17.8888 1839.49 19.2256 Q1835.23 20.5624 1830.37 23.2765 L1830.37 15.0127 Q1835.32 13.0277 1839.61 12.015 Q1843.9 11.0023 1847.47 11.0023 Q1856.87 11.0023 1862.46 15.7013 Q1868.05 20.4004 1868.05 28.2591 Q1868.05 31.9859 1866.63 35.3482 Q1865.25 38.6699 1861.57 43.2069 Q1860.55 44.3817 1855.12 50.0125 Q1849.7 55.6027 1839.81 65.6895 Z" fill="#000000" fill-rule="nonzero" fill-opacity="1" /><path clip-path="url(#clip920)" d="M1928.77 9.62495 Q1923.34 18.942 1920.71 28.0566 Q1918.08 37.1711 1918.08 46.5287 Q1918.08 55.8863 1920.71 65.0818 Q1923.38 74.2369 1928.77 83.5134 L1922.29 83.5134 Q1916.21 73.9938 1913.17 64.7983 Q1910.18 55.6027 1910.18 46.5287 Q1910.18 37.4952 1913.17 28.3401 Q1916.17 19.1851 1922.29 9.62495 L1928.77 9.62495 Z" fill="#000000" fill-rule="nonzero" fill-opacity="1" /><path clip-path="url(#clip920)" d="M1942.22 12.096 L1981.11 12.096 L1981.11 15.5798 L1959.15 72.576 L1950.6 72.576 L1971.26 18.9825 L1942.22 18.9825 L1942.22 12.096 Z" fill="#000000" fill-rule="nonzero" fill-opacity="1" /><path clip-path="url(#clip920)" d="M1997.31 71.3202 L1997.31 63.8666 Q2000.39 65.3249 2003.55 66.0946 Q2006.71 66.8642 2009.75 66.8642 Q2017.85 66.8642 2022.1 61.436 Q2026.4 55.9673 2027 44.8678 Q2024.66 48.3516 2021.05 50.215 Q2017.44 52.0784 2013.07 52.0784 Q2004 52.0784 1998.69 46.6097 Q1993.42 41.1005 1993.42 31.5808 Q1993.42 22.2638 1998.93 16.633 Q2004.44 11.0023 2013.6 11.0023 Q2024.09 11.0023 2029.6 19.0636 Q2035.15 27.0843 2035.15 42.3968 Q2035.15 56.6965 2028.34 65.2439 Q2021.58 73.7508 2010.11 73.7508 Q2007.03 73.7508 2003.87 73.1431 Q2000.71 72.5355 1997.31 71.3202 M2013.6 45.678 Q2019.11 45.678 2022.31 41.9107 Q2025.55 38.1433 2025.55 31.5808 Q2025.55 25.0589 2022.31 21.2916 Q2019.11 17.4837 2013.6 17.4837 Q2008.09 17.4837 2004.85 21.2916 Q2001.65 25.0589 2001.65 31.5808 Q2001.65 38.1433 2004.85 41.9107 Q2008.09 45.678 2013.6 45.678 Z" fill="#000000" fill-rule="nonzero" fill-opacity="1" /><path clip-path="url(#clip920)" d="M2112.88 45.1919 L2112.88 72.576 L2105.43 72.576 L2105.43 45.4349 Q2105.43 38.994 2102.92 35.7938 Q2100.41 32.5936 2095.38 32.5936 Q2089.35 32.5936 2085.86 36.4419 Q2082.38 40.2903 2082.38 46.9338 L2082.38 72.576 L2074.89 72.576 L2074.89 27.2059 L2082.38 27.2059 L2082.38 34.2544 Q2085.05 30.163 2088.66 28.1376 Q2092.31 26.1121 2097.04 26.1121 Q2104.86 26.1121 2108.87 30.9732 Q2112.88 35.7938 2112.88 45.1919 Z" fill="#000000" fill-rule="nonzero" fill-opacity="1" /><path clip-path="url(#clip920)" d="M2145.33 32.4315 Q2139.34 32.4315 2135.85 37.1306 Q2132.37 41.7891 2132.37 49.9314 Q2132.37 58.0738 2135.81 62.7728 Q2139.3 67.4314 2145.33 67.4314 Q2151.29 67.4314 2154.77 62.7323 Q2158.25 58.0333 2158.25 49.9314 Q2158.25 41.8701 2154.77 37.1711 Q2151.29 32.4315 2145.33 32.4315 M2145.33 26.1121 Q2155.05 26.1121 2160.6 32.4315 Q2166.15 38.7509 2166.15 49.9314 Q2166.15 61.0714 2160.6 67.4314 Q2155.05 73.7508 2145.33 73.7508 Q2135.57 73.7508 2130.02 67.4314 Q2124.51 61.0714 2124.51 49.9314 Q2124.51 38.7509 2130.02 32.4315 Q2135.57 26.1121 2145.33 26.1121 Z" fill="#000000" fill-rule="nonzero" fill-opacity="1" /><path clip-path="url(#clip920)" d="M2216.22 45.1919 L2216.22 72.576 L2208.77 72.576 L2208.77 45.4349 Q2208.77 38.994 2206.26 35.7938 Q2203.75 32.5936 2198.72 32.5936 Q2192.69 32.5936 2189.2 36.4419 Q2185.72 40.2903 2185.72 46.9338 L2185.72 72.576 L2178.22 72.576 L2178.22 27.2059 L2185.72 27.2059 L2185.72 34.2544 Q2188.39 30.163 2192 28.1376 Q2195.64 26.1121 2200.38 26.1121 Q2208.2 26.1121 2212.21 30.9732 Q2216.22 35.7938 2216.22 45.1919 Z" fill="#000000" fill-rule="nonzero" fill-opacity="1" /><path clip-path="url(#clip920)" d="M2227.85 27.2059 L2263.25 27.2059 L2263.25 34.0114 L2235.22 66.6212 L2263.25 66.6212 L2263.25 72.576 L2226.84 72.576 L2226.84 65.7705 L2254.87 33.1607 L2227.85 33.1607 L2227.85 27.2059 Z" fill="#000000" fill-rule="nonzero" fill-opacity="1" /><path clip-path="url(#clip920)" d="M2313.44 48.0275 L2313.44 51.6733 L2279.17 51.6733 Q2279.66 59.3701 2283.79 63.421 Q2287.96 67.4314 2295.38 67.4314 Q2299.67 67.4314 2303.68 66.3781 Q2307.73 65.3249 2311.7 63.2184 L2311.7 70.267 Q2307.69 71.9684 2303.48 72.8596 Q2299.27 73.7508 2294.93 73.7508 Q2284.08 73.7508 2277.72 67.4314 Q2271.4 61.1119 2271.4 50.3365 Q2271.4 39.1965 2277.39 32.6746 Q2283.43 26.1121 2293.64 26.1121 Q2302.79 26.1121 2308.1 32.0264 Q2313.44 37.9003 2313.44 48.0275 M2305.99 45.84 Q2305.91 39.7232 2302.55 36.0774 Q2299.23 32.4315 2293.72 32.4315 Q2287.48 32.4315 2283.71 35.9558 Q2279.98 39.4801 2279.42 45.8805 L2305.99 45.84 Z" fill="#000000" fill-rule="nonzero" fill-opacity="1" /><path clip-path="url(#clip920)" d="M2351.97 34.1734 Q2350.71 33.4443 2349.21 33.1202 Q2347.76 32.7556 2345.97 32.7556 Q2339.65 32.7556 2336.25 36.8875 Q2332.89 40.9789 2332.89 48.6757 L2332.89 72.576 L2325.39 72.576 L2325.39 27.2059 L2332.89 27.2059 L2332.89 34.2544 Q2335.24 30.1225 2339.01 28.1376 Q2342.77 26.1121 2348.16 26.1121 Q2348.93 26.1121 2349.86 26.2337 Q2350.79 26.3147 2351.93 26.5172 L2351.97 34.1734 Z" fill="#000000" fill-rule="nonzero" fill-opacity="1" /><path clip-path="url(#clip920)" d="M2375.54 32.4315 Q2369.55 32.4315 2366.07 37.1306 Q2362.58 41.7891 2362.58 49.9314 Q2362.58 58.0738 2366.02 62.7728 Q2369.51 67.4314 2375.54 67.4314 Q2381.5 67.4314 2384.98 62.7323 Q2388.47 58.0333 2388.47 49.9314 Q2388.47 41.8701 2384.98 37.1711 Q2381.5 32.4315 2375.54 32.4315 M2375.54 26.1121 Q2385.27 26.1121 2390.82 32.4315 Q2396.37 38.7509 2396.37 49.9314 Q2396.37 61.0714 2390.82 67.4314 Q2385.27 73.7508 2375.54 73.7508 Q2365.78 73.7508 2360.23 67.4314 Q2354.72 61.0714 2354.72 49.9314 Q2354.72 38.7509 2360.23 32.4315 Q2365.78 26.1121 2375.54 26.1121 Z" fill="#000000" fill-rule="nonzero" fill-opacity="1" /><path clip-path="url(#clip920)" d="M2458.06 9.54393 L2458.06 15.7418 L2450.93 15.7418 Q2446.92 15.7418 2445.34 17.3622 Q2443.8 18.9825 2443.8 23.1955 L2443.8 27.2059 L2456.08 27.2059 L2456.08 32.9987 L2443.8 32.9987 L2443.8 72.576 L2436.31 72.576 L2436.31 32.9987 L2429.18 32.9987 L2429.18 27.2059 L2436.31 27.2059 L2436.31 24.0462 Q2436.31 16.471 2439.83 13.0277 Q2443.36 9.54393 2451.01 9.54393 L2458.06 9.54393 Z" fill="#000000" fill-rule="nonzero" fill-opacity="1" /><path clip-path="url(#clip920)" d="M2503.11 48.0275 L2503.11 51.6733 L2468.84 51.6733 Q2469.32 59.3701 2473.45 63.421 Q2477.63 67.4314 2485.04 67.4314 Q2489.33 67.4314 2493.34 66.3781 Q2497.4 65.3249 2501.37 63.2184 L2501.37 70.267 Q2497.36 71.9684 2493.14 72.8596 Q2488.93 73.7508 2484.59 73.7508 Q2473.74 73.7508 2467.38 67.4314 Q2461.06 61.1119 2461.06 50.3365 Q2461.06 39.1965 2467.05 32.6746 Q2473.09 26.1121 2483.3 26.1121 Q2492.45 26.1121 2497.76 32.0264 Q2503.11 37.9003 2503.11 48.0275 M2495.65 45.84 Q2495.57 39.7232 2492.21 36.0774 Q2488.89 32.4315 2483.38 32.4315 Q2477.14 32.4315 2473.37 35.9558 Q2469.65 39.4801 2469.08 45.8805 L2495.65 45.84 Z" fill="#000000" fill-rule="nonzero" fill-opacity="1" /><path clip-path="url(#clip920)" d="M2535.96 49.7694 Q2526.93 49.7694 2523.44 51.8354 Q2519.96 53.9013 2519.96 58.8839 Q2519.96 62.8538 2522.55 65.2034 Q2525.18 67.5124 2529.68 67.5124 Q2535.88 67.5124 2539.61 63.1374 Q2543.37 58.7219 2543.37 51.4303 L2543.37 49.7694 L2535.96 49.7694 M2550.83 46.6907 L2550.83 72.576 L2543.37 72.576 L2543.37 65.6895 Q2540.82 69.8214 2537.01 71.8063 Q2533.21 73.7508 2527.7 73.7508 Q2520.73 73.7508 2516.6 69.8619 Q2512.51 65.9325 2512.51 59.3701 Q2512.51 51.7138 2517.61 47.825 Q2522.75 43.9361 2532.92 43.9361 L2543.37 43.9361 L2543.37 43.2069 Q2543.37 38.0623 2539.97 35.2672 Q2536.61 32.4315 2530.49 32.4315 Q2526.6 32.4315 2522.92 33.3632 Q2519.23 34.295 2515.83 36.1584 L2515.83 29.2718 Q2519.92 27.692 2523.77 26.9223 Q2527.62 26.1121 2531.26 26.1121 Q2541.1 26.1121 2545.97 31.2163 Q2550.83 36.3204 2550.83 46.6907 Z" fill="#000000" fill-rule="nonzero" fill-opacity="1" /><path clip-path="url(#clip920)" d="M2573.55 14.324 L2573.55 27.2059 L2588.91 27.2059 L2588.91 32.9987 L2573.55 32.9987 L2573.55 57.6282 Q2573.55 63.1779 2575.05 64.7578 Q2576.59 66.3376 2581.25 66.3376 L2588.91 66.3376 L2588.91 72.576 L2581.25 72.576 Q2572.62 72.576 2569.34 69.3758 Q2566.06 66.1351 2566.06 57.6282 L2566.06 32.9987 L2560.59 32.9987 L2560.59 27.2059 L2566.06 27.2059 L2566.06 14.324 L2573.55 14.324 Z" fill="#000000" fill-rule="nonzero" fill-opacity="1" /><path clip-path="url(#clip920)" d="M2597.94 54.671 L2597.94 27.2059 L2605.39 27.2059 L2605.39 54.3874 Q2605.39 60.8284 2607.9 64.0691 Q2610.42 67.2693 2615.44 67.2693 Q2621.47 67.2693 2624.96 63.421 Q2628.48 59.5726 2628.48 52.9291 L2628.48 27.2059 L2635.94 27.2059 L2635.94 72.576 L2628.48 72.576 L2628.48 65.6084 Q2625.77 69.7404 2622.16 71.7658 Q2618.6 73.7508 2613.86 73.7508 Q2606.04 73.7508 2601.99 68.8897 Q2597.94 64.0286 2597.94 54.671 M2616.69 26.1121 L2616.69 26.1121 Z" fill="#000000" fill-rule="nonzero" fill-opacity="1" /><path clip-path="url(#clip920)" d="M2677.58 34.1734 Q2676.32 33.4443 2674.83 33.1202 Q2673.37 32.7556 2671.58 32.7556 Q2665.27 32.7556 2661.86 36.8875 Q2658.5 40.9789 2658.5 48.6757 L2658.5 72.576 L2651.01 72.576 L2651.01 27.2059 L2658.5 27.2059 L2658.5 34.2544 Q2660.85 30.1225 2664.62 28.1376 Q2668.38 26.1121 2673.77 26.1121 Q2674.54 26.1121 2675.47 26.2337 Q2676.41 26.3147 2677.54 26.5172 L2677.58 34.1734 Z" fill="#000000" fill-rule="nonzero" fill-opacity="1" /><path clip-path="url(#clip920)" d="M2722.38 48.0275 L2722.38 51.6733 L2688.11 51.6733 Q2688.6 59.3701 2692.73 63.421 Q2696.9 67.4314 2704.32 67.4314 Q2708.61 67.4314 2712.62 66.3781 Q2716.67 65.3249 2720.64 63.2184 L2720.64 70.267 Q2716.63 71.9684 2712.42 72.8596 Q2708.2 73.7508 2703.87 73.7508 Q2693.01 73.7508 2686.65 67.4314 Q2680.33 61.1119 2680.33 50.3365 Q2680.33 39.1965 2686.33 32.6746 Q2692.37 26.1121 2702.57 26.1121 Q2711.73 26.1121 2717.04 32.0264 Q2722.38 37.9003 2722.38 48.0275 M2714.93 45.84 Q2714.85 39.7232 2711.49 36.0774 Q2708.16 32.4315 2702.65 32.4315 Q2696.42 32.4315 2692.65 35.9558 Q2688.92 39.4801 2688.36 45.8805 L2714.93 45.84 Z" fill="#000000" fill-rule="nonzero" fill-opacity="1" /><path clip-path="url(#clip920)" d="M2763.54 28.5427 L2763.54 35.5912 Q2760.38 33.9709 2756.98 33.1607 Q2753.57 32.3505 2749.93 32.3505 Q2744.38 32.3505 2741.58 34.0519 Q2738.83 35.7533 2738.83 39.156 Q2738.83 41.7486 2740.81 43.2475 Q2742.8 44.7058 2748.79 46.0426 L2751.35 46.6097 Q2759.29 48.3111 2762.61 51.4303 Q2765.97 54.509 2765.97 60.0587 Q2765.97 66.3781 2760.95 70.0644 Q2755.96 73.7508 2747.21 73.7508 Q2743.57 73.7508 2739.6 73.0216 Q2735.67 72.3329 2731.29 70.9151 L2731.29 63.2184 Q2735.43 65.3654 2739.44 66.4591 Q2743.45 67.5124 2747.38 67.5124 Q2752.64 67.5124 2755.48 65.73 Q2758.31 63.9071 2758.31 60.6258 Q2758.31 57.5877 2756.25 55.9673 Q2754.22 54.3469 2747.3 52.8481 L2744.7 52.2405 Q2737.78 50.7821 2734.7 47.7845 Q2731.62 44.7463 2731.62 39.4801 Q2731.62 33.0797 2736.16 29.5959 Q2740.69 26.1121 2749.04 26.1121 Q2753.17 26.1121 2756.82 26.7198 Q2760.46 27.3274 2763.54 28.5427 Z" fill="#000000" fill-rule="nonzero" fill-opacity="1" /><path clip-path="url(#clip920)" d="M2776.67 9.62495 L2783.15 9.62495 Q2789.22 19.1851 2792.22 28.3401 Q2795.26 37.4952 2795.26 46.5287 Q2795.26 55.6027 2792.22 64.7983 Q2789.22 73.9938 2783.15 83.5134 L2776.67 83.5134 Q2782.05 74.2369 2784.69 65.0818 Q2787.36 55.8863 2787.36 46.5287 Q2787.36 37.1711 2784.69 28.0566 Q2782.05 18.942 2776.67 9.62495 Z" fill="#000000" fill-rule="nonzero" fill-opacity="1" /><circle clip-path="url(#clip922)" cx="439.042" cy="234.107" r="28.8" fill="#590007" fill-rule="evenodd" fill-opacity="1" stroke="#000000" stroke-opacity="1" stroke-width="4.8"/>
<circle clip-path="url(#clip922)" cx="557.269" cy="2095.73" r="28.8" fill="#001361" fill-rule="evenodd" fill-opacity="1" stroke="#000000" stroke-opacity="1" stroke-width="4.8"/>
<circle clip-path="url(#clip922)" cx="675.497" cy="2089.38" r="28.8" fill="#001462" fill-rule="evenodd" fill-opacity="1" stroke="#000000" stroke-opacity="1" stroke-width="4.8"/>
<circle clip-path="url(#clip922)" cx="793.724" cy="273.004" r="28.8" fill="#620607" fill-rule="evenodd" fill-opacity="1" stroke="#000000" stroke-opacity="1" stroke-width="4.8"/>
<circle clip-path="url(#clip922)" cx="911.952" cy="2051.49" r="28.8" fill="#011c67" fill-rule="evenodd" fill-opacity="1" stroke="#000000" stroke-opacity="1" stroke-width="4.8"/>
<circle clip-path="url(#clip922)" cx="1030.18" cy="301.752" r="28.8" fill="#680b07" fill-rule="evenodd" fill-opacity="1" stroke="#000000" stroke-opacity="1" stroke-width="4.8"/>
<circle clip-path="url(#clip922)" cx="1148.41" cy="1971.56" r="28.8" fill="#022d72" fill-rule="evenodd" fill-opacity="1" stroke="#000000" stroke-opacity="1" stroke-width="4.8"/>
<circle clip-path="url(#clip922)" cx="1266.63" cy="434.683" r="28.8" fill="#892605" fill-rule="evenodd" fill-opacity="1" stroke="#000000" stroke-opacity="1" stroke-width="4.8"/>
<circle clip-path="url(#clip922)" cx="1384.86" cy="503.513" r="28.8" fill="#9e3809" fill-rule="evenodd" fill-opacity="1" stroke="#000000" stroke-opacity="1" stroke-width="4.8"/>
<circle clip-path="url(#clip922)" cx="1503.09" cy="1802.96" r="28.8" fill="#045189" fill-rule="evenodd" fill-opacity="1" stroke="#000000" stroke-opacity="1" stroke-width="4.8"/>
<circle clip-path="url(#clip922)" cx="1621.32" cy="1562.5" r="28.8" fill="#4c90b3" fill-rule="evenodd" fill-opacity="1" stroke="#000000" stroke-opacity="1" stroke-width="4.8"/>
<circle clip-path="url(#clip922)" cx="1739.55" cy="900.41" r="28.8" fill="#d8a283" fill-rule="evenodd" fill-opacity="1" stroke="#000000" stroke-opacity="1" stroke-width="4.8"/>
<circle clip-path="url(#clip922)" cx="1857.77" cy="922.713" r="28.8" fill="#daa88b" fill-rule="evenodd" fill-opacity="1" stroke="#000000" stroke-opacity="1" stroke-width="4.8"/>
<circle clip-path="url(#clip922)" cx="1976" cy="930.233" r="28.8" fill="#dbaa8d" fill-rule="evenodd" fill-opacity="1" stroke="#000000" stroke-opacity="1" stroke-width="4.8"/>
<circle clip-path="url(#clip922)" cx="2094.23" cy="943.392" r="28.8" fill="#dcad92" fill-rule="evenodd" fill-opacity="1" stroke="#000000" stroke-opacity="1" stroke-width="4.8"/>
<circle clip-path="url(#clip922)" cx="2212.46" cy="953.74" r="28.8" fill="#deb095" fill-rule="evenodd" fill-opacity="1" stroke="#000000" stroke-opacity="1" stroke-width="4.8"/>
<circle clip-path="url(#clip922)" cx="2330.68" cy="1379.57" r="28.8" fill="#9bc2d5" fill-rule="evenodd" fill-opacity="1" stroke="#000000" stroke-opacity="1" stroke-width="4.8"/>
<circle clip-path="url(#clip922)" cx="2448.91" cy="1371.61" r="28.8" fill="#9fc4d7" fill-rule="evenodd" fill-opacity="1" stroke="#000000" stroke-opacity="1" stroke-width="4.8"/>
<circle clip-path="url(#clip922)" cx="2567.14" cy="972.711" r="28.8" fill="#e0b59c" fill-rule="evenodd" fill-opacity="1" stroke="#000000" stroke-opacity="1" stroke-width="4.8"/>
<circle clip-path="url(#clip922)" cx="2685.37" cy="1358.27" r="28.8" fill="#a4c8d9" fill-rule="evenodd" fill-opacity="1" stroke="#000000" stroke-opacity="1" stroke-width="4.8"/>
<polyline clip-path="url(#clip922)" style="stroke:#000000; stroke-linecap:round; stroke-linejoin:round; stroke-width:6; stroke-opacity:1; fill:none" stroke-dasharray="24, 15" points="-2009.45,1167.66 5133.86,1167.66 "/>
</svg>
