<?xml version="1.0" encoding="utf-8"?>
<svg xmlns="http://www.w3.org/2000/svg" xmlns:xlink="http://www.w3.org/1999/xlink" width="800" height="700" viewBox="0 0 3200 2800">
<defs>
  <clipPath id="clip560">
    <rect x="0" y="0" width="3200" height="2800"/>
  </clipPath>
</defs>
<path clip-path="url(#clip560)" d="M0 2800 L3200 2800 L3200 0 L0 0  Z" fill="#ffffff" fill-rule="evenodd" fill-opacity="1"/>
<defs>
  <clipPath id="clip561">
    <rect x="640" y="0" width="2241" height="2241"/>
  </clipPath>
</defs>
<path clip-path="url(#clip560)" d="M363.863 2583.25 L3152.76 2583.25 L3152.76 142.372 L363.863 142.372  Z" fill="#ffffff" fill-rule="evenodd" fill-opacity="1"/>
<defs>
  <clipPath id="clip562">
    <rect x="363" y="142" width="2790" height="2442"/>
  </clipPath>
</defs>
<polyline clip-path="url(#clip560)" style="stroke:#000000; stroke-linecap:round; stroke-linejoin:round; stroke-width:4; stroke-opacity:1; fill:none" points="363.863,2583.25 3152.76,2583.25 "/>
<polyline clip-path="url(#clip560)" style="stroke:#000000; stroke-linecap:round; stroke-linejoin:round; stroke-width:4; stroke-opacity:1; fill:none" points="442.794,2583.25 442.794,2564.35 "/>
<polyline clip-path="url(#clip560)" style="stroke:#000000; stroke-linecap:round; stroke-linejoin:round; stroke-width:4; stroke-opacity:1; fill:none" points="735.131,2583.25 735.131,2564.35 "/>
<polyline clip-path="url(#clip560)" style="stroke:#000000; stroke-linecap:round; stroke-linejoin:round; stroke-width:4; stroke-opacity:1; fill:none" points="1027.47,2583.25 1027.47,2564.35 "/>
<polyline clip-path="url(#clip560)" style="stroke:#000000; stroke-linecap:round; stroke-linejoin:round; stroke-width:4; stroke-opacity:1; fill:none" points="1319.8,2583.25 1319.8,2564.35 "/>
<polyline clip-path="url(#clip560)" style="stroke:#000000; stroke-linecap:round; stroke-linejoin:round; stroke-width:4; stroke-opacity:1; fill:none" points="1612.14,2583.25 1612.14,2564.35 "/>
<polyline clip-path="url(#clip560)" style="stroke:#000000; stroke-linecap:round; stroke-linejoin:round; stroke-width:4; stroke-opacity:1; fill:none" points="1904.48,2583.25 1904.48,2564.35 "/>
<polyline clip-path="url(#clip560)" style="stroke:#000000; stroke-linecap:round; stroke-linejoin:round; stroke-width:4; stroke-opacity:1; fill:none" points="2196.81,2583.25 2196.81,2564.35 "/>
<polyline clip-path="url(#clip560)" style="stroke:#000000; stroke-linecap:round; stroke-linejoin:round; stroke-width:4; stroke-opacity:1; fill:none" points="2489.15,2583.25 2489.15,2564.35 "/>
<polyline clip-path="url(#clip560)" style="stroke:#000000; stroke-linecap:round; stroke-linejoin:round; stroke-width:4; stroke-opacity:1; fill:none" points="2781.49,2583.25 2781.49,2564.35 "/>
<polyline clip-path="url(#clip560)" style="stroke:#000000; stroke-linecap:round; stroke-linejoin:round; stroke-width:4; stroke-opacity:1; fill:none" points="3073.82,2583.25 3073.82,2564.35 "/>
<path clip-path="url(#clip560)" d="M466.148 2698.45 L466.148 2685.09 L420.008 2685.09 L422.925 2699.63 L415.471 2699.63 L412.554 2685.17 L412.554 2676.98 L466.148 2676.98 L466.148 2663.62 L473.034 2663.62 L473.034 2698.45 L466.148 2698.45 Z" fill="#000000" fill-rule="nonzero" fill-opacity="1" /><path clip-path="url(#clip560)" d="M444.313 2629.59 Q444.313 2635.42 447.433 2638.78 Q450.552 2642.11 456.021 2642.11 Q461.489 2642.11 464.608 2638.78 Q467.728 2635.42 467.728 2629.59 Q467.728 2623.75 464.608 2620.39 Q461.449 2617.03 456.021 2617.03 Q450.552 2617.03 447.433 2620.39 Q444.313 2623.71 444.313 2629.59 M440.83 2637.77 Q439.533 2643.04 435.928 2645.99 Q432.323 2648.91 427.138 2648.91 Q419.886 2648.91 415.674 2643.77 Q411.461 2638.58 411.461 2629.59 Q411.461 2620.55 415.674 2615.41 Q419.886 2610.27 427.138 2610.27 Q432.323 2610.27 435.928 2613.22 Q439.533 2616.14 440.83 2621.36 Q442.207 2615.45 446.217 2612.17 Q450.228 2608.85 456.021 2608.85 Q464.811 2608.85 469.51 2614.24 Q474.209 2619.58 474.209 2629.59 Q474.209 2639.59 469.51 2644.98 Q464.811 2650.33 456.021 2650.33 Q450.228 2650.33 446.217 2647.01 Q442.207 2643.69 440.83 2637.77 M427.907 2640.77 Q432.606 2640.77 435.239 2637.85 Q437.873 2634.89 437.873 2629.59 Q437.873 2624.32 435.239 2621.36 Q432.606 2618.37 427.907 2618.37 Q423.208 2618.37 420.575 2621.36 Q417.942 2624.32 417.942 2629.59 Q417.942 2634.89 420.575 2637.85 Q423.208 2640.77 427.907 2640.77 Z" fill="#000000" fill-rule="nonzero" fill-opacity="1" /><path clip-path="url(#clip560)" d="M758.485 2698.29 L758.485 2684.92 L712.345 2684.92 L715.261 2699.47 L707.808 2699.47 L704.891 2685 L704.891 2676.82 L758.485 2676.82 L758.485 2663.45 L765.371 2663.45 L765.371 2698.29 L758.485 2698.29 Z" fill="#000000" fill-rule="nonzero" fill-opacity="1" /><path clip-path="url(#clip560)" d="M764.115 2646.68 L756.662 2646.68 Q758.12 2643.6 758.89 2640.44 Q759.659 2637.28 759.659 2634.25 Q759.659 2626.14 754.231 2621.89 Q748.762 2617.6 737.663 2616.99 Q741.147 2619.34 743.01 2622.94 Q744.874 2626.55 744.874 2630.92 Q744.874 2640 739.405 2645.31 Q733.896 2650.57 724.376 2650.57 Q715.059 2650.57 709.428 2645.06 Q703.797 2639.55 703.797 2630.4 Q703.797 2619.91 711.859 2614.4 Q719.879 2608.85 735.192 2608.85 Q749.492 2608.85 758.039 2615.65 Q766.546 2622.42 766.546 2633.88 Q766.546 2636.96 765.938 2640.12 Q765.331 2643.28 764.115 2646.68 M738.473 2630.4 Q738.473 2624.89 734.706 2621.69 Q730.938 2618.45 724.376 2618.45 Q717.854 2618.45 714.087 2621.69 Q710.279 2624.89 710.279 2630.4 Q710.279 2635.91 714.087 2639.15 Q717.854 2642.35 724.376 2642.35 Q730.938 2642.35 734.706 2639.15 Q738.473 2635.91 738.473 2630.4 Z" fill="#000000" fill-rule="nonzero" fill-opacity="1" /><path clip-path="url(#clip560)" d="M1050.82 2692.98 L1050.82 2664.43 L1057.71 2664.43 L1057.71 2702.83 L1050.82 2702.83 Q1046 2698.17 1037.9 2690.15 Q1029.76 2682.09 1027.41 2680.02 Q1022.99 2676.09 1019.95 2674.55 Q1016.87 2672.97 1013.92 2672.97 Q1009.1 2672.97 1006.06 2676.38 Q1003.02 2679.74 1003.02 2685.17 Q1003.02 2689.01 1004.36 2693.31 Q1005.69 2697.56 1008.41 2702.42 L1000.14 2702.42 Q998.16 2697.48 997.147 2693.19 Q996.134 2688.89 996.134 2685.33 Q996.134 2675.93 1000.83 2670.34 Q1005.53 2664.75 1013.39 2664.75 Q1017.12 2664.75 1020.48 2666.17 Q1023.8 2667.55 1028.34 2671.23 Q1029.51 2672.24 1035.14 2677.67 Q1040.73 2683.1 1050.82 2692.98 Z" fill="#000000" fill-rule="nonzero" fill-opacity="1" /><path clip-path="url(#clip560)" d="M1002.62 2629.75 Q1002.62 2636.07 1008.85 2639.27 Q1015.05 2642.43 1027.53 2642.43 Q1039.96 2642.43 1046.2 2639.27 Q1052.4 2636.07 1052.4 2629.75 Q1052.4 2623.39 1046.2 2620.23 Q1039.96 2617.03 1027.53 2617.03 Q1015.05 2617.03 1008.85 2620.23 Q1002.62 2623.39 1002.62 2629.75 M996.134 2629.75 Q996.134 2619.58 1004.2 2614.24 Q1012.22 2608.85 1027.53 2608.85 Q1042.8 2608.85 1050.86 2614.24 Q1058.88 2619.58 1058.88 2629.75 Q1058.88 2639.92 1050.86 2645.31 Q1042.8 2650.65 1027.53 2650.65 Q1012.22 2650.65 1004.2 2645.31 Q996.134 2639.92 996.134 2629.75 Z" fill="#000000" fill-rule="nonzero" fill-opacity="1" /><path clip-path="url(#clip560)" d="M1343.16 2697.04 L1343.16 2683.67 L1297.02 2683.67 L1299.93 2698.21 L1292.48 2698.21 L1289.56 2683.75 L1289.56 2675.57 L1343.16 2675.57 L1343.16 2662.2 L1350.04 2662.2 L1350.04 2697.04 L1343.16 2697.04 Z" fill="#000000" fill-rule="nonzero" fill-opacity="1" /><path clip-path="url(#clip560)" d="M1289.56 2647.74 L1289.56 2608.85 L1293.05 2608.85 L1350.04 2630.8 L1350.04 2639.35 L1296.45 2618.69 L1296.45 2647.74 L1289.56 2647.74 Z" fill="#000000" fill-rule="nonzero" fill-opacity="1" /><path clip-path="url(#clip560)" d="M1635.49 2698.9 L1635.49 2685.53 L1589.35 2685.53 L1592.27 2700.07 L1584.82 2700.07 L1581.9 2685.61 L1581.9 2677.43 L1635.49 2677.43 L1635.49 2664.06 L1642.38 2664.06 L1642.38 2698.9 L1635.49 2698.9 Z" fill="#000000" fill-rule="nonzero" fill-opacity="1" /><path clip-path="url(#clip560)" d="M1608.88 2629.02 Q1608.88 2634.53 1612.65 2637.77 Q1616.42 2640.97 1622.98 2640.97 Q1629.5 2640.97 1633.31 2637.77 Q1637.07 2634.53 1637.07 2629.02 Q1637.07 2623.51 1633.31 2620.31 Q1629.5 2617.07 1622.98 2617.07 Q1616.42 2617.07 1612.65 2620.31 Q1608.88 2623.51 1608.88 2629.02 M1583.24 2612.78 L1590.69 2612.78 Q1589.23 2615.86 1588.46 2619.02 Q1587.69 2622.13 1587.69 2625.21 Q1587.69 2633.32 1593.16 2637.61 Q1598.63 2641.86 1609.69 2642.47 Q1606.17 2640.08 1604.3 2636.47 Q1602.4 2632.87 1602.4 2628.53 Q1602.4 2619.42 1607.95 2614.15 Q1613.46 2608.85 1622.98 2608.85 Q1632.29 2608.85 1637.93 2614.36 Q1643.56 2619.87 1643.56 2629.02 Q1643.56 2639.51 1635.54 2645.06 Q1627.47 2650.61 1612.2 2650.61 Q1597.86 2650.61 1589.35 2643.81 Q1580.81 2637 1580.81 2625.54 Q1580.81 2622.46 1581.42 2619.34 Q1582.02 2616.18 1583.24 2612.78 Z" fill="#000000" fill-rule="nonzero" fill-opacity="1" /><path clip-path="url(#clip560)" d="M1927.83 2751.4 L1927.83 2738.03 L1881.69 2738.03 L1884.61 2752.57 L1877.15 2752.57 L1874.24 2738.11 L1874.24 2729.93 L1927.83 2729.93 L1927.83 2716.56 L1934.72 2716.56 L1934.72 2751.4 L1927.83 2751.4 Z" fill="#000000" fill-rule="nonzero" fill-opacity="1" /><path clip-path="url(#clip560)" d="M1874.24 2699.95 L1874.24 2667.83 L1881.12 2667.83 L1881.12 2692.46 L1895.95 2692.46 Q1895.34 2690.68 1895.06 2688.89 Q1894.74 2687.11 1894.74 2685.33 Q1894.74 2675.2 1900.29 2669.29 Q1905.84 2663.37 1915.31 2663.37 Q1925.08 2663.37 1930.51 2669.45 Q1935.89 2675.53 1935.89 2686.58 Q1935.89 2690.39 1935.24 2694.36 Q1934.6 2698.29 1933.3 2702.5 L1925.08 2702.5 Q1927.06 2698.86 1928.03 2694.97 Q1929.01 2691.08 1929.01 2686.75 Q1929.01 2679.74 1925.32 2675.65 Q1921.63 2671.56 1915.31 2671.56 Q1908.99 2671.56 1905.31 2675.65 Q1901.62 2679.74 1901.62 2686.75 Q1901.62 2690.03 1902.35 2693.31 Q1903.08 2696.55 1904.62 2699.95 L1874.24 2699.95 Z" fill="#000000" fill-rule="nonzero" fill-opacity="1" /><path clip-path="url(#clip560)" d="M1879.63 2629.75 Q1879.63 2636.07 1885.86 2639.27 Q1892.06 2642.43 1904.54 2642.43 Q1916.98 2642.43 1923.21 2639.27 Q1929.41 2636.07 1929.41 2629.75 Q1929.41 2623.39 1923.21 2620.23 Q1916.98 2617.03 1904.54 2617.03 Q1892.06 2617.03 1885.86 2620.23 Q1879.63 2623.39 1879.63 2629.75 M1873.14 2629.75 Q1873.14 2619.58 1881.21 2614.24 Q1889.23 2608.85 1904.54 2608.85 Q1919.81 2608.85 1927.87 2614.24 Q1935.89 2619.58 1935.89 2629.75 Q1935.89 2639.92 1927.87 2645.31 Q1919.81 2650.65 1904.54 2650.65 Q1889.23 2650.65 1881.21 2645.31 Q1873.14 2639.92 1873.14 2629.75 Z" fill="#000000" fill-rule="nonzero" fill-opacity="1" /><path clip-path="url(#clip560)" d="M2225.8 2697.64 L2218.35 2697.64 Q2219.8 2694.56 2220.57 2691.4 Q2221.34 2688.25 2221.34 2685.21 Q2221.34 2677.11 2215.91 2672.85 Q2210.45 2668.56 2199.35 2667.95 Q2202.83 2670.3 2204.69 2673.91 Q2206.56 2677.51 2206.56 2681.89 Q2206.56 2690.96 2201.09 2696.27 Q2195.58 2701.53 2186.06 2701.53 Q2176.74 2701.53 2171.11 2696.02 Q2165.48 2690.51 2165.48 2681.36 Q2165.48 2670.87 2173.54 2665.36 Q2181.56 2659.81 2196.88 2659.81 Q2211.18 2659.81 2219.72 2666.61 Q2228.23 2673.38 2228.23 2684.84 Q2228.23 2687.92 2227.62 2691.08 Q2227.01 2694.24 2225.8 2697.64 M2200.16 2681.36 Q2200.16 2675.85 2196.39 2672.65 Q2192.62 2669.41 2186.06 2669.41 Q2179.54 2669.41 2175.77 2672.65 Q2171.96 2675.85 2171.96 2681.36 Q2171.96 2686.87 2175.77 2690.11 Q2179.54 2693.31 2186.06 2693.31 Q2192.62 2693.31 2196.39 2690.11 Q2200.16 2686.87 2200.16 2681.36 Z" fill="#000000" fill-rule="nonzero" fill-opacity="1" /><path clip-path="url(#clip560)" d="M2220.17 2643.69 L2220.17 2630.32 L2174.03 2630.32 L2176.95 2644.86 L2169.49 2644.86 L2166.57 2630.4 L2166.57 2622.22 L2220.17 2622.22 L2220.17 2608.85 L2227.05 2608.85 L2227.05 2643.69 L2220.17 2643.69 Z" fill="#000000" fill-rule="nonzero" fill-opacity="1" /><path clip-path="url(#clip560)" d="M2518.14 2699.79 L2510.68 2699.79 Q2512.14 2696.71 2512.91 2693.55 Q2513.68 2690.39 2513.68 2687.35 Q2513.68 2679.25 2508.25 2675 Q2502.78 2670.7 2491.68 2670.1 Q2495.17 2672.45 2497.03 2676.05 Q2498.89 2679.66 2498.89 2684.03 Q2498.89 2693.11 2493.43 2698.41 Q2487.92 2703.68 2478.4 2703.68 Q2469.08 2703.68 2463.45 2698.17 Q2457.82 2692.66 2457.82 2683.51 Q2457.82 2673.01 2465.88 2667.5 Q2473.9 2661.95 2489.21 2661.95 Q2503.51 2661.95 2512.06 2668.76 Q2520.57 2675.53 2520.57 2686.99 Q2520.57 2690.07 2519.96 2693.23 Q2519.35 2696.39 2518.14 2699.79 M2492.49 2683.51 Q2492.49 2678 2488.73 2674.8 Q2484.96 2671.56 2478.4 2671.56 Q2471.87 2671.56 2468.11 2674.8 Q2464.3 2678 2464.3 2683.51 Q2464.3 2689.01 2468.11 2692.26 Q2471.87 2695.46 2478.4 2695.46 Q2484.96 2695.46 2488.73 2692.26 Q2492.49 2689.01 2492.49 2683.51 Z" fill="#000000" fill-rule="nonzero" fill-opacity="1" /><path clip-path="url(#clip560)" d="M2464.3 2629.75 Q2464.3 2636.07 2470.54 2639.27 Q2476.74 2642.43 2489.21 2642.43 Q2501.65 2642.43 2507.89 2639.27 Q2514.08 2636.07 2514.08 2629.75 Q2514.08 2623.39 2507.89 2620.23 Q2501.65 2617.03 2489.21 2617.03 Q2476.74 2617.03 2470.54 2620.23 Q2464.3 2623.39 2464.3 2629.75 M2457.82 2629.75 Q2457.82 2619.58 2465.88 2614.24 Q2473.9 2608.85 2489.21 2608.85 Q2504.48 2608.85 2512.55 2614.24 Q2520.57 2619.58 2520.57 2629.75 Q2520.57 2639.92 2512.55 2645.31 Q2504.48 2650.65 2489.21 2650.65 Q2473.9 2650.65 2465.88 2645.31 Q2457.82 2639.92 2457.82 2629.75 Z" fill="#000000" fill-rule="nonzero" fill-opacity="1" /><path clip-path="url(#clip560)" d="M2778.23 2679.78 Q2778.23 2685.29 2781.99 2688.53 Q2785.76 2691.73 2792.32 2691.73 Q2798.85 2691.73 2802.65 2688.53 Q2806.42 2685.29 2806.42 2679.78 Q2806.42 2674.27 2802.65 2671.07 Q2798.85 2667.83 2792.32 2667.83 Q2785.76 2667.83 2781.99 2671.07 Q2778.23 2674.27 2778.23 2679.78 M2752.59 2663.53 L2760.04 2663.53 Q2758.58 2666.61 2757.81 2669.77 Q2757.04 2672.89 2757.04 2675.97 Q2757.04 2684.07 2762.51 2688.37 Q2767.98 2692.62 2779.04 2693.23 Q2775.51 2690.84 2773.65 2687.23 Q2771.75 2683.63 2771.75 2679.29 Q2771.75 2670.18 2777.3 2664.91 Q2782.8 2659.61 2792.32 2659.61 Q2801.64 2659.61 2807.27 2665.11 Q2812.9 2670.62 2812.9 2679.78 Q2812.9 2690.27 2804.88 2695.82 Q2796.82 2701.37 2781.55 2701.37 Q2767.21 2701.37 2758.7 2694.56 Q2750.15 2687.76 2750.15 2676.3 Q2750.15 2673.22 2750.76 2670.1 Q2751.37 2666.94 2752.59 2663.53 Z" fill="#000000" fill-rule="nonzero" fill-opacity="1" /><path clip-path="url(#clip560)" d="M2751.25 2645.43 L2751.25 2613.3 L2758.13 2613.3 L2758.13 2637.93 L2772.96 2637.93 Q2772.35 2636.15 2772.07 2634.37 Q2771.75 2632.59 2771.75 2630.8 Q2771.75 2620.68 2777.3 2614.76 Q2782.85 2608.85 2792.32 2608.85 Q2802.09 2608.85 2807.52 2614.92 Q2812.9 2621 2812.9 2632.06 Q2812.9 2635.87 2812.25 2639.84 Q2811.61 2643.77 2810.31 2647.98 L2802.09 2647.98 Q2804.07 2644.33 2805.04 2640.44 Q2806.02 2636.56 2806.02 2632.22 Q2806.02 2625.21 2802.33 2621.12 Q2798.64 2617.03 2792.32 2617.03 Q2786.01 2617.03 2782.32 2621.12 Q2778.63 2625.21 2778.63 2632.22 Q2778.63 2635.5 2779.36 2638.78 Q2780.09 2642.02 2781.63 2645.43 L2751.25 2645.43 Z" fill="#000000" fill-rule="nonzero" fill-opacity="1" /><path clip-path="url(#clip560)" d="M3043.58 2699.95 L3043.58 2661.06 L3047.07 2661.06 L3104.06 2683.02 L3104.06 2691.57 L3050.47 2670.91 L3050.47 2699.95 L3043.58 2699.95 Z" fill="#000000" fill-rule="nonzero" fill-opacity="1" /><path clip-path="url(#clip560)" d="M3097.18 2643.69 L3097.18 2630.32 L3051.04 2630.32 L3053.96 2644.86 L3046.5 2644.86 L3043.58 2630.4 L3043.58 2622.22 L3097.18 2622.22 L3097.18 2608.85 L3104.06 2608.85 L3104.06 2643.69 L3097.18 2643.69 Z" fill="#000000" fill-rule="nonzero" fill-opacity="1" /><polyline clip-path="url(#clip560)" style="stroke:#000000; stroke-linecap:round; stroke-linejoin:round; stroke-width:4; stroke-opacity:1; fill:none" points="363.863,2583.25 363.863,142.372 "/>
<polyline clip-path="url(#clip560)" style="stroke:#000000; stroke-linecap:round; stroke-linejoin:round; stroke-width:4; stroke-opacity:1; fill:none" points="363.863,2379.84 382.761,2379.84 "/>
<polyline clip-path="url(#clip560)" style="stroke:#000000; stroke-linecap:round; stroke-linejoin:round; stroke-width:4; stroke-opacity:1; fill:none" points="363.863,1871.33 382.761,1871.33 "/>
<polyline clip-path="url(#clip560)" style="stroke:#000000; stroke-linecap:round; stroke-linejoin:round; stroke-width:4; stroke-opacity:1; fill:none" points="363.863,1362.81 382.761,1362.81 "/>
<polyline clip-path="url(#clip560)" style="stroke:#000000; stroke-linecap:round; stroke-linejoin:round; stroke-width:4; stroke-opacity:1; fill:none" points="363.863,854.294 382.761,854.294 "/>
<polyline clip-path="url(#clip560)" style="stroke:#000000; stroke-linecap:round; stroke-linejoin:round; stroke-width:4; stroke-opacity:1; fill:none" points="363.863,345.778 382.761,345.778 "/>
<path clip-path="url(#clip560)" d="M163.023 2354.99 Q156.703 2354.99 153.503 2361.23 Q150.343 2367.43 150.343 2379.9 Q150.343 2392.34 153.503 2398.58 Q156.703 2404.77 163.023 2404.77 Q169.383 2404.77 172.542 2398.58 Q175.743 2392.34 175.743 2379.9 Q175.743 2367.43 172.542 2361.23 Q169.383 2354.99 163.023 2354.99 M163.023 2348.51 Q173.191 2348.51 178.538 2356.57 Q183.925 2364.59 183.925 2379.9 Q183.925 2395.17 178.538 2403.24 Q173.191 2411.26 163.023 2411.26 Q152.855 2411.26 147.467 2403.24 Q142.12 2395.17 142.12 2379.9 Q142.12 2364.59 147.467 2356.57 Q152.855 2348.51 163.023 2348.51 Z" fill="#000000" fill-rule="nonzero" fill-opacity="1" /><path clip-path="url(#clip560)" d="M198.306 2399.79 L206.854 2399.79 L206.854 2410.08 L198.306 2410.08 L198.306 2399.79 Z" fill="#000000" fill-rule="nonzero" fill-opacity="1" /><path clip-path="url(#clip560)" d="M242.177 2354.99 Q235.858 2354.99 232.658 2361.23 Q229.498 2367.43 229.498 2379.9 Q229.498 2392.34 232.658 2398.58 Q235.858 2404.77 242.177 2404.77 Q248.537 2404.77 251.697 2398.58 Q254.897 2392.34 254.897 2379.9 Q254.897 2367.43 251.697 2361.23 Q248.537 2354.99 242.177 2354.99 M242.177 2348.51 Q252.345 2348.51 257.692 2356.57 Q263.08 2364.59 263.08 2379.9 Q263.08 2395.17 257.692 2403.24 Q252.345 2411.26 242.177 2411.26 Q232.01 2411.26 226.622 2403.24 Q221.275 2395.17 221.275 2379.9 Q221.275 2364.59 226.622 2356.57 Q232.01 2348.51 242.177 2348.51 Z" fill="#000000" fill-rule="nonzero" fill-opacity="1" /><path clip-path="url(#clip560)" d="M294.961 2354.99 Q288.641 2354.99 285.441 2361.23 Q282.281 2367.43 282.281 2379.9 Q282.281 2392.34 285.441 2398.58 Q288.641 2404.77 294.961 2404.77 Q301.321 2404.77 304.48 2398.58 Q307.681 2392.34 307.681 2379.9 Q307.681 2367.43 304.48 2361.23 Q301.321 2354.99 294.961 2354.99 M294.961 2348.51 Q305.129 2348.51 310.476 2356.57 Q315.863 2364.59 315.863 2379.9 Q315.863 2395.17 310.476 2403.24 Q305.129 2411.26 294.961 2411.26 Q284.793 2411.26 279.405 2403.24 Q274.058 2395.17 274.058 2379.9 Q274.058 2364.59 279.405 2356.57 Q284.793 2348.51 294.961 2348.51 Z" fill="#000000" fill-rule="nonzero" fill-opacity="1" /><path clip-path="url(#clip560)" d="M164.765 1846.47 Q158.445 1846.47 155.245 1852.71 Q152.085 1858.91 152.085 1871.39 Q152.085 1883.82 155.245 1890.06 Q158.445 1896.26 164.765 1896.26 Q171.125 1896.26 174.284 1890.06 Q177.485 1883.82 177.485 1871.39 Q177.485 1858.91 174.284 1852.71 Q171.125 1846.47 164.765 1846.47 M164.765 1839.99 Q174.932 1839.99 180.28 1848.05 Q185.667 1856.07 185.667 1871.39 Q185.667 1886.66 180.28 1894.72 Q174.932 1902.74 164.765 1902.74 Q154.597 1902.74 149.209 1894.72 Q143.862 1886.66 143.862 1871.39 Q143.862 1856.07 149.209 1848.05 Q154.597 1839.99 164.765 1839.99 Z" fill="#000000" fill-rule="nonzero" fill-opacity="1" /><path clip-path="url(#clip560)" d="M200.048 1891.28 L208.595 1891.28 L208.595 1901.57 L200.048 1901.57 L200.048 1891.28 Z" fill="#000000" fill-rule="nonzero" fill-opacity="1" /><path clip-path="url(#clip560)" d="M233.468 1894.68 L262.027 1894.68 L262.027 1901.57 L223.624 1901.57 L223.624 1894.68 Q228.283 1889.86 236.304 1881.76 Q244.365 1873.61 246.431 1871.26 Q250.36 1866.85 251.9 1863.81 Q253.48 1860.73 253.48 1857.78 Q253.48 1852.95 250.077 1849.92 Q246.715 1846.88 241.286 1846.88 Q237.438 1846.88 233.144 1848.22 Q228.891 1849.55 224.029 1852.27 L224.029 1844 Q228.972 1842.02 233.266 1841 Q237.559 1839.99 241.124 1839.99 Q250.522 1839.99 256.113 1844.69 Q261.703 1849.39 261.703 1857.25 Q261.703 1860.98 260.285 1864.34 Q258.908 1867.66 255.221 1872.2 Q254.209 1873.37 248.78 1879 Q243.352 1884.59 233.468 1894.68 Z" fill="#000000" fill-rule="nonzero" fill-opacity="1" /><path clip-path="url(#clip560)" d="M279.284 1841.09 L311.407 1841.09 L311.407 1847.97 L286.778 1847.97 L286.778 1862.8 Q288.56 1862.19 290.343 1861.91 Q292.125 1861.58 293.908 1861.58 Q304.035 1861.58 309.949 1867.13 Q315.863 1872.68 315.863 1882.16 Q315.863 1891.92 309.787 1897.35 Q303.711 1902.74 292.652 1902.74 Q288.844 1902.74 284.874 1902.09 Q280.945 1901.44 276.732 1900.15 L276.732 1891.92 Q280.378 1893.91 284.266 1894.88 Q288.155 1895.85 292.49 1895.85 Q299.498 1895.85 303.589 1892.17 Q307.681 1888.48 307.681 1882.16 Q307.681 1875.84 303.589 1872.16 Q299.498 1868.47 292.49 1868.47 Q289.208 1868.47 285.927 1869.2 Q282.687 1869.93 279.284 1871.47 L279.284 1841.09 Z" fill="#000000" fill-rule="nonzero" fill-opacity="1" /><path clip-path="url(#clip560)" d="M163.023 1337.96 Q156.703 1337.96 153.503 1344.2 Q150.343 1350.39 150.343 1362.87 Q150.343 1375.31 153.503 1381.55 Q156.703 1387.74 163.023 1387.74 Q169.383 1387.74 172.542 1381.55 Q175.743 1375.31 175.743 1362.87 Q175.743 1350.39 172.542 1344.2 Q169.383 1337.96 163.023 1337.96 M163.023 1331.48 Q173.191 1331.48 178.538 1339.54 Q183.925 1347.56 183.925 1362.87 Q183.925 1378.14 178.538 1386.2 Q173.191 1394.22 163.023 1394.22 Q152.855 1394.22 147.467 1386.2 Q142.12 1378.14 142.12 1362.87 Q142.12 1347.56 147.467 1339.54 Q152.855 1331.48 163.023 1331.48 Z" fill="#000000" fill-rule="nonzero" fill-opacity="1" /><path clip-path="url(#clip560)" d="M198.306 1382.76 L206.854 1382.76 L206.854 1393.05 L198.306 1393.05 L198.306 1382.76 Z" fill="#000000" fill-rule="nonzero" fill-opacity="1" /><path clip-path="url(#clip560)" d="M224.759 1332.57 L256.882 1332.57 L256.882 1339.46 L232.253 1339.46 L232.253 1354.28 Q234.035 1353.68 235.818 1353.39 Q237.6 1353.07 239.382 1353.07 Q249.51 1353.07 255.424 1358.62 Q261.338 1364.17 261.338 1373.65 Q261.338 1383.41 255.262 1388.84 Q249.186 1394.22 238.127 1394.22 Q234.319 1394.22 230.349 1393.58 Q226.419 1392.93 222.207 1391.63 L222.207 1383.41 Q225.852 1385.39 229.741 1386.37 Q233.63 1387.34 237.965 1387.34 Q244.973 1387.34 249.064 1383.65 Q253.155 1379.97 253.155 1373.65 Q253.155 1367.33 249.064 1363.64 Q244.973 1359.95 237.965 1359.95 Q234.683 1359.95 231.402 1360.68 Q228.161 1361.41 224.759 1362.95 L224.759 1332.57 Z" fill="#000000" fill-rule="nonzero" fill-opacity="1" /><path clip-path="url(#clip560)" d="M294.961 1337.96 Q288.641 1337.96 285.441 1344.2 Q282.281 1350.39 282.281 1362.87 Q282.281 1375.31 285.441 1381.55 Q288.641 1387.74 294.961 1387.74 Q301.321 1387.74 304.48 1381.55 Q307.681 1375.31 307.681 1362.87 Q307.681 1350.39 304.48 1344.2 Q301.321 1337.96 294.961 1337.96 M294.961 1331.48 Q305.129 1331.48 310.476 1339.54 Q315.863 1347.56 315.863 1362.87 Q315.863 1378.14 310.476 1386.2 Q305.129 1394.22 294.961 1394.22 Q284.793 1394.22 279.405 1386.2 Q274.058 1378.14 274.058 1362.87 Q274.058 1347.56 279.405 1339.54 Q284.793 1331.48 294.961 1331.48 Z" fill="#000000" fill-rule="nonzero" fill-opacity="1" /><path clip-path="url(#clip560)" d="M164.765 829.442 Q158.445 829.442 155.245 835.68 Q152.085 841.878 152.085 854.355 Q152.085 866.791 155.245 873.03 Q158.445 879.227 164.765 879.227 Q171.125 879.227 174.284 873.03 Q177.485 866.791 177.485 854.355 Q177.485 841.878 174.284 835.68 Q171.125 829.442 164.765 829.442 M164.765 822.96 Q174.932 822.96 180.28 831.022 Q185.667 839.042 185.667 854.355 Q185.667 869.627 180.28 877.688 Q174.932 885.709 164.765 885.709 Q154.597 885.709 149.209 877.688 Q143.862 869.627 143.862 854.355 Q143.862 839.042 149.209 831.022 Q154.597 822.96 164.765 822.96 Z" fill="#000000" fill-rule="nonzero" fill-opacity="1" /><path clip-path="url(#clip560)" d="M200.048 874.245 L208.595 874.245 L208.595 884.534 L200.048 884.534 L200.048 874.245 Z" fill="#000000" fill-rule="nonzero" fill-opacity="1" /><path clip-path="url(#clip560)" d="M224.354 824.054 L263.242 824.054 L263.242 827.538 L241.286 884.534 L232.739 884.534 L253.398 830.941 L224.354 830.941 L224.354 824.054 Z" fill="#000000" fill-rule="nonzero" fill-opacity="1" /><path clip-path="url(#clip560)" d="M279.284 824.054 L311.407 824.054 L311.407 830.941 L286.778 830.941 L286.778 845.767 Q288.56 845.159 290.343 844.876 Q292.125 844.552 293.908 844.552 Q304.035 844.552 309.949 850.101 Q315.863 855.651 315.863 865.13 Q315.863 874.893 309.787 880.321 Q303.711 885.709 292.652 885.709 Q288.844 885.709 284.874 885.061 Q280.945 884.413 276.732 883.116 L276.732 874.893 Q280.378 876.878 284.266 877.85 Q288.155 878.822 292.49 878.822 Q299.498 878.822 303.589 875.136 Q307.681 871.45 307.681 865.13 Q307.681 858.811 303.589 855.125 Q299.498 851.438 292.49 851.438 Q289.208 851.438 285.927 852.167 Q282.687 852.897 279.284 854.436 L279.284 824.054 Z" fill="#000000" fill-rule="nonzero" fill-opacity="1" /><path clip-path="url(#clip560)" d="M146.941 369.132 L160.309 369.132 L160.309 322.992 L145.766 325.909 L145.766 318.455 L160.228 315.538 L168.411 315.538 L168.411 369.132 L181.779 369.132 L181.779 376.018 L146.941 376.018 L146.941 369.132 Z" fill="#000000" fill-rule="nonzero" fill-opacity="1" /><path clip-path="url(#clip560)" d="M198.306 365.729 L206.854 365.729 L206.854 376.018 L198.306 376.018 L198.306 365.729 Z" fill="#000000" fill-rule="nonzero" fill-opacity="1" /><path clip-path="url(#clip560)" d="M242.177 320.926 Q235.858 320.926 232.658 327.165 Q229.498 333.362 229.498 345.839 Q229.498 358.275 232.658 364.514 Q235.858 370.712 242.177 370.712 Q248.537 370.712 251.697 364.514 Q254.897 358.275 254.897 345.839 Q254.897 333.362 251.697 327.165 Q248.537 320.926 242.177 320.926 M242.177 314.445 Q252.345 314.445 257.692 322.506 Q263.08 330.527 263.08 345.839 Q263.08 361.111 257.692 369.172 Q252.345 377.193 242.177 377.193 Q232.01 377.193 226.622 369.172 Q221.275 361.111 221.275 345.839 Q221.275 330.527 226.622 322.506 Q232.01 314.445 242.177 314.445 Z" fill="#000000" fill-rule="nonzero" fill-opacity="1" /><path clip-path="url(#clip560)" d="M294.961 320.926 Q288.641 320.926 285.441 327.165 Q282.281 333.362 282.281 345.839 Q282.281 358.275 285.441 364.514 Q288.641 370.712 294.961 370.712 Q301.321 370.712 304.48 364.514 Q307.681 358.275 307.681 345.839 Q307.681 333.362 304.48 327.165 Q301.321 320.926 294.961 320.926 M294.961 314.445 Q305.129 314.445 310.476 322.506 Q315.863 330.527 315.863 345.839 Q315.863 361.111 310.476 369.172 Q305.129 377.193 294.961 377.193 Q284.793 377.193 279.405 369.172 Q274.058 361.111 274.058 345.839 Q274.058 330.527 279.405 322.506 Q284.793 314.445 294.961 314.445 Z" fill="#000000" fill-rule="nonzero" fill-opacity="1" /><path clip-path="url(#clip560)" d="M15.4962 1823.28 L15.4962 1811.08 L56.6533 1795.65 L15.4962 1780.13 L15.4962 1767.94 L75.9762 1767.94 L75.9762 1775.92 L22.8688 1775.92 L64.3501 1791.52 L64.3501 1799.74 L22.8688 1815.34 L75.9762 1815.34 L75.9762 1823.28 L15.4962 1823.28 Z" fill="#000000" fill-rule="nonzero" fill-opacity="1" /><path clip-path="url(#clip560)" d="M53.1696 1731.4 Q53.1696 1740.44 55.2355 1743.92 Q57.3015 1747.4 62.2841 1747.4 Q66.254 1747.4 68.6035 1744.81 Q70.9125 1742.18 70.9125 1737.68 Q70.9125 1731.48 66.5376 1727.76 Q62.1221 1723.99 54.8304 1723.99 L53.1696 1723.99 L53.1696 1731.4 M50.0909 1716.53 L75.9762 1716.53 L75.9762 1723.99 L69.0896 1723.99 Q73.2215 1726.54 75.2065 1730.35 Q77.1509 1734.16 77.1509 1739.67 Q77.1509 1746.63 73.2621 1750.76 Q69.3327 1754.86 62.7702 1754.86 Q55.114 1754.86 51.2251 1749.75 Q47.3363 1744.61 47.3363 1734.44 L47.3363 1723.99 L46.6071 1723.99 Q41.4625 1723.99 38.6673 1727.39 Q35.8317 1730.75 35.8317 1736.87 Q35.8317 1740.76 36.7634 1744.45 Q37.6951 1748.13 39.5585 1751.53 L32.672 1751.53 Q31.0921 1747.44 30.3225 1743.59 Q29.5123 1739.75 29.5123 1736.1 Q29.5123 1726.26 34.6164 1721.4 Q39.7206 1716.53 50.0909 1716.53 Z" fill="#000000" fill-rule="nonzero" fill-opacity="1" /><path clip-path="url(#clip560)" d="M30.606 1663.47 L52.6835 1679.87 L75.9762 1662.62 L75.9762 1671.41 L58.1522 1684.61 L75.9762 1697.82 L75.9762 1706.61 L52.2379 1688.99 L30.606 1705.11 L30.606 1696.32 L46.7691 1684.29 L30.606 1672.26 L30.606 1663.47 Z" fill="#000000" fill-rule="nonzero" fill-opacity="1" /><path clip-path="url(#clip560)" d="M65.6869 1651.03 L65.6869 1642.48 L75.9762 1642.48 L75.9762 1651.03 L65.6869 1651.03 Z" fill="#000000" fill-rule="nonzero" fill-opacity="1" /><path clip-path="url(#clip560)" d="M49.9288 1629.48 L49.9288 1607.65 L56.5723 1607.65 L56.5723 1629.48 L49.9288 1629.48 Z" fill="#000000" fill-rule="nonzero" fill-opacity="1" /><path clip-path="url(#clip560)" d="M48.592 1558.06 L75.9762 1558.06 L75.9762 1565.52 L48.8351 1565.52 Q42.3942 1565.52 39.1939 1568.03 Q35.9937 1570.54 35.9937 1575.56 Q35.9937 1581.6 39.8421 1585.08 Q43.6905 1588.57 50.3339 1588.57 L75.9762 1588.57 L75.9762 1596.06 L30.606 1596.06 L30.606 1588.57 L37.6546 1588.57 Q33.5632 1585.89 31.5377 1582.29 Q29.5123 1578.64 29.5123 1573.9 Q29.5123 1566.08 34.3734 1562.07 Q39.1939 1558.06 48.592 1558.06 Z" fill="#000000" fill-rule="nonzero" fill-opacity="1" /><path clip-path="url(#clip560)" d="M35.8317 1525.62 Q35.8317 1531.61 40.5307 1535.09 Q45.1893 1538.58 53.3316 1538.58 Q61.4739 1538.58 66.173 1535.14 Q70.8315 1531.65 70.8315 1525.62 Q70.8315 1519.66 66.1325 1516.18 Q61.4334 1512.69 53.3316 1512.69 Q45.2703 1512.69 40.5713 1516.18 Q35.8317 1519.66 35.8317 1525.62 M29.5123 1525.62 Q29.5123 1515.89 35.8317 1510.34 Q42.1511 1504.79 53.3316 1504.79 Q64.4716 1504.79 70.8315 1510.34 Q77.1509 1515.89 77.1509 1525.62 Q77.1509 1535.38 70.8315 1540.93 Q64.4716 1546.44 53.3316 1546.44 Q42.1511 1546.44 35.8317 1540.93 Q29.5123 1535.38 29.5123 1525.62 Z" fill="#000000" fill-rule="nonzero" fill-opacity="1" /><path clip-path="url(#clip560)" d="M37.5736 1466.15 Q36.8444 1467.4 36.5204 1468.9 Q36.1558 1470.36 36.1558 1472.14 Q36.1558 1478.46 40.2877 1481.87 Q44.3791 1485.23 52.0758 1485.23 L75.9762 1485.23 L75.9762 1492.72 L30.606 1492.72 L30.606 1485.23 L37.6546 1485.23 Q33.5227 1482.88 31.5377 1479.11 Q29.5123 1475.34 29.5123 1469.96 Q29.5123 1469.19 29.6338 1468.25 Q29.7148 1467.32 29.9174 1466.19 L37.5736 1466.15 Z" fill="#000000" fill-rule="nonzero" fill-opacity="1" /><path clip-path="url(#clip560)" d="M39.3155 1424.46 Q34.2924 1421.67 31.9023 1417.78 Q29.5123 1413.89 29.5123 1408.63 Q29.5123 1401.54 34.4949 1397.69 Q39.437 1393.84 48.592 1393.84 L75.9762 1393.84 L75.9762 1401.33 L48.8351 1401.33 Q42.3131 1401.33 39.1534 1403.64 Q35.9937 1405.95 35.9937 1410.69 Q35.9937 1416.48 39.8421 1419.85 Q43.6905 1423.21 50.3339 1423.21 L75.9762 1423.21 L75.9762 1430.7 L48.8351 1430.7 Q42.2726 1430.7 39.1534 1433.01 Q35.9937 1435.32 35.9937 1440.14 Q35.9937 1445.85 39.8826 1449.22 Q43.731 1452.58 50.3339 1452.58 L75.9762 1452.58 L75.9762 1460.07 L30.606 1460.07 L30.606 1452.58 L37.6546 1452.58 Q33.4822 1450.03 31.4972 1446.46 Q29.5123 1442.9 29.5123 1437.99 Q29.5123 1433.05 32.0238 1429.61 Q34.5354 1426.13 39.3155 1424.46 Z" fill="#000000" fill-rule="nonzero" fill-opacity="1" /><path clip-path="url(#clip560)" d="M65.6869 1377.92 L65.6869 1369.37 L75.9762 1369.37 L75.9762 1377.92 L65.6869 1377.92 Z" fill="#000000" fill-rule="nonzero" fill-opacity="1" /><path clip-path="url(#clip560)" d="M32.3479 1293.58 L39.3155 1293.58 Q37.5736 1296.74 36.7229 1299.94 Q35.8317 1303.1 35.8317 1306.34 Q35.8317 1313.59 40.4497 1317.6 Q45.0272 1321.61 53.3316 1321.61 Q61.636 1321.61 66.254 1317.6 Q70.8315 1313.59 70.8315 1306.34 Q70.8315 1303.1 69.9808 1299.94 Q69.0896 1296.74 67.3477 1293.58 L74.2343 1293.58 Q75.6926 1296.7 76.4218 1300.06 Q77.1509 1303.38 77.1509 1307.15 Q77.1509 1317.4 70.71 1323.44 Q64.269 1329.47 53.3316 1329.47 Q42.2321 1329.47 35.8722 1323.39 Q29.5123 1317.28 29.5123 1306.66 Q29.5123 1303.22 30.2414 1299.94 Q30.9301 1296.66 32.3479 1293.58 Z" fill="#000000" fill-rule="nonzero" fill-opacity="1" /><path clip-path="url(#clip560)" d="M35.8317 1263.04 Q35.8317 1269.03 40.5307 1272.52 Q45.1893 1276 53.3316 1276 Q61.4739 1276 66.173 1272.56 Q70.8315 1269.07 70.8315 1263.04 Q70.8315 1257.08 66.1325 1253.6 Q61.4334 1250.11 53.3316 1250.11 Q45.2703 1250.11 40.5713 1253.6 Q35.8317 1257.08 35.8317 1263.04 M29.5123 1263.04 Q29.5123 1253.31 35.8317 1247.76 Q42.1511 1242.21 53.3316 1242.21 Q64.4716 1242.21 70.8315 1247.76 Q77.1509 1253.31 77.1509 1263.04 Q77.1509 1272.8 70.8315 1278.35 Q64.4716 1283.86 53.3316 1283.86 Q42.1511 1283.86 35.8317 1278.35 Q29.5123 1272.8 29.5123 1263.04 Z" fill="#000000" fill-rule="nonzero" fill-opacity="1" /><path clip-path="url(#clip560)" d="M51.4277 1191.05 L55.0735 1191.05 L55.0735 1225.32 Q62.7702 1224.84 66.8211 1220.7 Q70.8315 1216.53 70.8315 1209.12 Q70.8315 1204.82 69.7783 1200.81 Q68.725 1196.76 66.6186 1192.79 L73.6671 1192.79 Q75.3685 1196.8 76.2597 1201.02 Q77.1509 1205.23 77.1509 1209.56 Q77.1509 1220.42 70.8315 1226.78 Q64.5121 1233.1 53.7367 1233.1 Q42.5967 1233.1 36.0748 1227.1 Q29.5123 1221.07 29.5123 1210.86 Q29.5123 1201.71 35.4266 1196.4 Q41.3004 1191.05 51.4277 1191.05 M49.2402 1198.51 Q43.1233 1198.59 39.4775 1201.95 Q35.8317 1205.27 35.8317 1210.78 Q35.8317 1217.02 39.356 1220.79 Q42.8803 1224.51 49.2807 1225.08 L49.2402 1198.51 Z" fill="#000000" fill-rule="nonzero" fill-opacity="1" /><path clip-path="url(#clip560)" d="M12.9441 1155.85 L19.142 1155.85 L19.142 1162.98 Q19.142 1166.99 20.7623 1168.57 Q22.3827 1170.11 26.5956 1170.11 L30.606 1170.11 L30.606 1157.83 L36.3988 1157.83 L36.3988 1170.11 L75.9762 1170.11 L75.9762 1177.6 L36.3988 1177.6 L36.3988 1184.73 L30.606 1184.73 L30.606 1177.6 L27.4463 1177.6 Q19.8711 1177.6 16.4279 1174.08 Q12.9441 1170.55 12.9441 1162.9 L12.9441 1155.85 Z" fill="#000000" fill-rule="nonzero" fill-opacity="1" /><path clip-path="url(#clip560)" d="M12.9441 1126.64 L19.142 1126.64 L19.142 1133.77 Q19.142 1137.78 20.7623 1139.36 Q22.3827 1140.9 26.5956 1140.9 L30.606 1140.9 L30.606 1128.63 L36.3988 1128.63 L36.3988 1140.9 L75.9762 1140.9 L75.9762 1148.4 L36.3988 1148.4 L36.3988 1155.53 L30.606 1155.53 L30.606 1148.4 L27.4463 1148.4 Q19.8711 1148.4 16.4279 1144.87 Q12.9441 1141.35 12.9441 1133.69 L12.9441 1126.64 Z" fill="#000000" fill-rule="nonzero" fill-opacity="1" /><path clip-path="url(#clip560)" d="M30.606 1120.4 L30.606 1112.95 L75.9762 1112.95 L75.9762 1120.4 L30.606 1120.4 M12.9441 1120.4 L12.9441 1112.95 L22.3827 1112.95 L22.3827 1120.4 L12.9441 1120.4 Z" fill="#000000" fill-rule="nonzero" fill-opacity="1" /><path clip-path="url(#clip560)" d="M32.3479 1064.7 L39.3155 1064.7 Q37.5736 1067.86 36.7229 1071.06 Q35.8317 1074.22 35.8317 1077.46 Q35.8317 1084.72 40.4497 1088.73 Q45.0272 1092.74 53.3316 1092.74 Q61.636 1092.74 66.254 1088.73 Q70.8315 1084.72 70.8315 1077.46 Q70.8315 1074.22 69.9808 1071.06 Q69.0896 1067.86 67.3477 1064.7 L74.2343 1064.7 Q75.6926 1067.82 76.4218 1071.19 Q77.1509 1074.51 77.1509 1078.27 Q77.1509 1088.52 70.71 1094.56 Q64.269 1100.59 53.3316 1100.59 Q42.2321 1100.59 35.8722 1094.52 Q29.5123 1088.4 29.5123 1077.79 Q29.5123 1074.34 30.2414 1071.06 Q30.9301 1067.78 32.3479 1064.7 Z" fill="#000000" fill-rule="nonzero" fill-opacity="1" /><path clip-path="url(#clip560)" d="M30.606 1051.74 L30.606 1044.29 L75.9762 1044.29 L75.9762 1051.74 L30.606 1051.74 M12.9441 1051.74 L12.9441 1044.29 L22.3827 1044.29 L22.3827 1051.74 L12.9441 1051.74 Z" fill="#000000" fill-rule="nonzero" fill-opacity="1" /><path clip-path="url(#clip560)" d="M51.4277 989.884 L55.0735 989.884 L55.0735 1024.15 Q62.7702 1023.67 66.8211 1019.54 Q70.8315 1015.36 70.8315 1007.95 Q70.8315 1003.66 69.7783 999.646 Q68.725 995.595 66.6186 991.625 L73.6671 991.625 Q75.3685 995.636 76.2597 999.849 Q77.1509 1004.06 77.1509 1008.4 Q77.1509 1019.25 70.8315 1025.61 Q64.5121 1031.93 53.7367 1031.93 Q42.5967 1031.93 36.0748 1025.94 Q29.5123 1019.9 29.5123 1009.69 Q29.5123 1000.54 35.4266 995.231 Q41.3004 989.884 51.4277 989.884 M49.2402 997.337 Q43.1233 997.418 39.4775 1000.78 Q35.8317 1004.1 35.8317 1009.61 Q35.8317 1015.85 39.356 1019.62 Q42.8803 1023.34 49.2807 1023.91 L49.2402 997.337 Z" fill="#000000" fill-rule="nonzero" fill-opacity="1" /><path clip-path="url(#clip560)" d="M48.592 939.936 L75.9762 939.936 L75.9762 947.39 L48.8351 947.39 Q42.3942 947.39 39.1939 949.901 Q35.9937 952.413 35.9937 957.436 Q35.9937 963.472 39.8421 966.955 Q43.6905 970.439 50.3339 970.439 L75.9762 970.439 L75.9762 977.933 L30.606 977.933 L30.606 970.439 L37.6546 970.439 Q33.5632 967.766 31.5377 964.16 Q29.5123 960.515 29.5123 955.775 Q29.5123 947.957 34.3734 943.946 Q39.1939 939.936 48.592 939.936 Z" fill="#000000" fill-rule="nonzero" fill-opacity="1" /><path clip-path="url(#clip560)" d="M17.7242 917.696 L30.606 917.696 L30.606 902.344 L36.3988 902.344 L36.3988 917.696 L61.0283 917.696 Q66.5781 917.696 68.1579 916.198 Q69.7378 914.658 69.7378 910 L69.7378 902.344 L75.9762 902.344 L75.9762 910 Q75.9762 918.628 72.7759 921.909 Q69.5352 925.191 61.0283 925.191 L36.3988 925.191 L36.3988 930.659 L30.606 930.659 L30.606 925.191 L17.7242 925.191 L17.7242 917.696 Z" fill="#000000" fill-rule="nonzero" fill-opacity="1" /><path clip-path="url(#clip560)" d="M727.496 12.096 L778.659 12.096 L778.659 18.9825 L757.189 18.9825 L757.189 72.576 L748.966 72.576 L748.966 18.9825 L727.496 18.9825 L727.496 12.096 Z" fill="#000000" fill-rule="nonzero" fill-opacity="1" /><path clip-path="url(#clip560)" d="M789.718 32.4315 Q783.723 32.4315 780.239 37.1306 Q776.755 41.7891 776.755 49.9314 Q776.755 58.0738 780.199 62.7728 Q783.682 67.4314 789.718 67.4314 Q795.673 67.4314 799.157 62.7323 Q802.641 58.0333 802.641 49.9314 Q802.641 41.8701 799.157 37.1711 Q795.673 32.4315 789.718 32.4315 M789.718 26.1121 Q799.44 26.1121 804.99 32.4315 Q810.54 38.7509 810.54 49.9314 Q810.54 61.0714 804.99 67.4314 Q799.44 73.7508 789.718 73.7508 Q779.956 73.7508 774.406 67.4314 Q768.897 61.0714 768.897 49.9314 Q768.897 38.7509 774.406 32.4315 Q779.956 26.1121 789.718 26.1121 Z" fill="#000000" fill-rule="nonzero" fill-opacity="1" /><path clip-path="url(#clip560)" d="M830.106 65.7705 L830.106 89.8329 L822.612 89.8329 L822.612 27.2059 L830.106 27.2059 L830.106 34.0924 Q832.455 30.0415 836.02 28.0971 Q839.625 26.1121 844.608 26.1121 Q852.872 26.1121 858.016 32.6746 Q863.202 39.2371 863.202 49.9314 Q863.202 60.6258 858.016 67.1883 Q852.872 73.7508 844.608 73.7508 Q839.625 73.7508 836.02 71.8063 Q832.455 69.8214 830.106 65.7705 M855.464 49.9314 Q855.464 41.7081 852.062 37.0496 Q848.699 32.3505 842.785 32.3505 Q836.871 32.3505 833.468 37.0496 Q830.106 41.7081 830.106 49.9314 Q830.106 58.1548 833.468 62.8538 Q836.871 67.5124 842.785 67.5124 Q848.699 67.5124 852.062 62.8538 Q855.464 58.1548 855.464 49.9314 Z" fill="#000000" fill-rule="nonzero" fill-opacity="1" /><path clip-path="url(#clip560)" d="M904.399 65.6895 L917.767 65.6895 L917.767 19.5497 L903.225 22.4663 L903.225 15.0127 L917.686 12.096 L925.869 12.096 L925.869 65.6895 L939.237 65.6895 L939.237 72.576 L904.399 72.576 L904.399 65.6895 Z" fill="#000000" fill-rule="nonzero" fill-opacity="1" /><path clip-path="url(#clip560)" d="M973.265 17.4837 Q966.945 17.4837 963.745 23.7221 Q960.585 29.92 960.585 42.3968 Q960.585 54.833 963.745 61.0714 Q966.945 67.2693 973.265 67.2693 Q979.625 67.2693 982.784 61.0714 Q985.985 54.833 985.985 42.3968 Q985.985 29.92 982.784 23.7221 Q979.625 17.4837 973.265 17.4837 M973.265 11.0023 Q983.432 11.0023 988.78 19.0636 Q994.167 27.0843 994.167 42.3968 Q994.167 57.6687 988.78 65.73 Q983.432 73.7508 973.265 73.7508 Q963.097 73.7508 957.709 65.73 Q952.362 57.6687 952.362 42.3968 Q952.362 27.0843 957.709 19.0636 Q963.097 11.0023 973.265 11.0023 Z" fill="#000000" fill-rule="nonzero" fill-opacity="1" /><path clip-path="url(#clip560)" d="M1056.83 9.54393 L1056.83 15.7418 L1049.71 15.7418 Q1045.69 15.7418 1044.12 17.3622 Q1042.58 18.9825 1042.58 23.1955 L1042.58 27.2059 L1054.85 27.2059 L1054.85 32.9987 L1042.58 32.9987 L1042.58 72.576 L1035.08 72.576 L1035.08 32.9987 L1027.95 32.9987 L1027.95 27.2059 L1035.08 27.2059 L1035.08 24.0462 Q1035.08 16.471 1038.61 13.0277 Q1042.13 9.54393 1049.79 9.54393 L1056.83 9.54393 Z" fill="#000000" fill-rule="nonzero" fill-opacity="1" /><path clip-path="url(#clip560)" d="M1101.88 48.0275 L1101.88 51.6733 L1067.61 51.6733 Q1068.1 59.3701 1072.23 63.421 Q1076.4 67.4314 1083.81 67.4314 Q1088.11 67.4314 1092.12 66.3781 Q1096.17 65.3249 1100.14 63.2184 L1100.14 70.267 Q1096.13 71.9684 1091.92 72.8596 Q1087.7 73.7508 1083.37 73.7508 Q1072.51 73.7508 1066.15 67.4314 Q1059.83 61.1119 1059.83 50.3365 Q1059.83 39.1965 1065.83 32.6746 Q1071.86 26.1121 1082.07 26.1121 Q1091.23 26.1121 1096.53 32.0264 Q1101.88 37.9003 1101.88 48.0275 M1094.43 45.84 Q1094.35 39.7232 1090.98 36.0774 Q1087.66 32.4315 1082.15 32.4315 Q1075.91 32.4315 1072.15 35.9558 Q1068.42 39.4801 1067.85 45.8805 L1094.43 45.84 Z" fill="#000000" fill-rule="nonzero" fill-opacity="1" /><path clip-path="url(#clip560)" d="M1134.73 49.7694 Q1125.7 49.7694 1122.22 51.8354 Q1118.73 53.9013 1118.73 58.8839 Q1118.73 62.8538 1121.33 65.2034 Q1123.96 67.5124 1128.45 67.5124 Q1134.65 67.5124 1138.38 63.1374 Q1142.15 58.7219 1142.15 51.4303 L1142.15 49.7694 L1134.73 49.7694 M1149.6 46.6907 L1149.6 72.576 L1142.15 72.576 L1142.15 65.6895 Q1139.59 69.8214 1135.79 71.8063 Q1131.98 73.7508 1126.47 73.7508 Q1119.5 73.7508 1115.37 69.8619 Q1111.28 65.9325 1111.28 59.3701 Q1111.28 51.7138 1116.38 47.825 Q1121.53 43.9361 1131.7 43.9361 L1142.15 43.9361 L1142.15 43.2069 Q1142.15 38.0623 1138.74 35.2672 Q1135.38 32.4315 1129.27 32.4315 Q1125.38 32.4315 1121.69 33.3632 Q1118 34.295 1114.6 36.1584 L1114.6 29.2718 Q1118.69 27.692 1122.54 26.9223 Q1126.39 26.1121 1130.03 26.1121 Q1139.88 26.1121 1144.74 31.2163 Q1149.6 36.3204 1149.6 46.6907 Z" fill="#000000" fill-rule="nonzero" fill-opacity="1" /><path clip-path="url(#clip560)" d="M1172.33 14.324 L1172.33 27.2059 L1187.68 27.2059 L1187.68 32.9987 L1172.33 32.9987 L1172.33 57.6282 Q1172.33 63.1779 1173.82 64.7578 Q1175.36 66.3376 1180.02 66.3376 L1187.68 66.3376 L1187.68 72.576 L1180.02 72.576 Q1171.39 72.576 1168.11 69.3758 Q1164.83 66.1351 1164.83 57.6282 L1164.83 32.9987 L1159.36 32.9987 L1159.36 27.2059 L1164.83 27.2059 L1164.83 14.324 L1172.33 14.324 Z" fill="#000000" fill-rule="nonzero" fill-opacity="1" /><path clip-path="url(#clip560)" d="M1196.71 54.671 L1196.71 27.2059 L1204.17 27.2059 L1204.17 54.3874 Q1204.17 60.8284 1206.68 64.0691 Q1209.19 67.2693 1214.21 67.2693 Q1220.25 67.2693 1223.73 63.421 Q1227.26 59.5726 1227.26 52.9291 L1227.26 27.2059 L1234.71 27.2059 L1234.71 72.576 L1227.26 72.576 L1227.26 65.6084 Q1224.54 69.7404 1220.94 71.7658 Q1217.37 73.7508 1212.63 73.7508 Q1204.81 73.7508 1200.76 68.8897 Q1196.71 64.0286 1196.71 54.671 M1215.47 26.1121 L1215.47 26.1121 Z" fill="#000000" fill-rule="nonzero" fill-opacity="1" /><path clip-path="url(#clip560)" d="M1276.35 34.1734 Q1275.1 33.4443 1273.6 33.1202 Q1272.14 32.7556 1270.36 32.7556 Q1264.04 32.7556 1260.64 36.8875 Q1257.27 40.9789 1257.27 48.6757 L1257.27 72.576 L1249.78 72.576 L1249.78 27.2059 L1257.27 27.2059 L1257.27 34.2544 Q1259.62 30.1225 1263.39 28.1376 Q1267.16 26.1121 1272.55 26.1121 Q1273.32 26.1121 1274.25 26.2337 Q1275.18 26.3147 1276.31 26.5172 L1276.35 34.1734 Z" fill="#000000" fill-rule="nonzero" fill-opacity="1" /><path clip-path="url(#clip560)" d="M1321.16 48.0275 L1321.16 51.6733 L1286.89 51.6733 Q1287.37 59.3701 1291.5 63.421 Q1295.68 67.4314 1303.09 67.4314 Q1307.38 67.4314 1311.39 66.3781 Q1315.44 65.3249 1319.41 63.2184 L1319.41 70.267 Q1315.4 71.9684 1311.19 72.8596 Q1306.98 73.7508 1302.64 73.7508 Q1291.79 73.7508 1285.43 67.4314 Q1279.11 61.1119 1279.11 50.3365 Q1279.11 39.1965 1285.1 32.6746 Q1291.14 26.1121 1301.35 26.1121 Q1310.5 26.1121 1315.81 32.0264 Q1321.16 37.9003 1321.16 48.0275 M1313.7 45.84 Q1313.62 39.7232 1310.26 36.0774 Q1306.94 32.4315 1301.43 32.4315 Q1295.19 32.4315 1291.42 35.9558 Q1287.7 39.4801 1287.13 45.8805 L1313.7 45.84 Z" fill="#000000" fill-rule="nonzero" fill-opacity="1" /><path clip-path="url(#clip560)" d="M1362.31 28.5427 L1362.31 35.5912 Q1359.15 33.9709 1355.75 33.1607 Q1352.35 32.3505 1348.7 32.3505 Q1343.15 32.3505 1340.36 34.0519 Q1337.6 35.7533 1337.6 39.156 Q1337.6 41.7486 1339.59 43.2475 Q1341.57 44.7058 1347.57 46.0426 L1350.12 46.6097 Q1358.06 48.3111 1361.38 51.4303 Q1364.74 54.509 1364.74 60.0587 Q1364.74 66.3781 1359.72 70.0644 Q1354.74 73.7508 1345.99 73.7508 Q1342.34 73.7508 1338.37 73.0216 Q1334.44 72.3329 1330.07 70.9151 L1330.07 63.2184 Q1334.2 65.3654 1338.21 66.4591 Q1342.22 67.5124 1346.15 67.5124 Q1351.42 67.5124 1354.25 65.73 Q1357.09 63.9071 1357.09 60.6258 Q1357.09 57.5877 1355.02 55.9673 Q1353 54.3469 1346.07 52.8481 L1343.48 52.2405 Q1336.55 50.7821 1333.47 47.7845 Q1330.39 44.7463 1330.39 39.4801 Q1330.39 33.0797 1334.93 29.5959 Q1339.47 26.1121 1347.81 26.1121 Q1351.94 26.1121 1355.59 26.7198 Q1359.23 27.3274 1362.31 28.5427 Z" fill="#000000" fill-rule="nonzero" fill-opacity="1" /><path clip-path="url(#clip560)" d="M1425.95 9.54393 L1425.95 15.7418 L1418.82 15.7418 Q1414.81 15.7418 1413.23 17.3622 Q1411.69 18.9825 1411.69 23.1955 L1411.69 27.2059 L1423.97 27.2059 L1423.97 32.9987 L1411.69 32.9987 L1411.69 72.576 L1404.2 72.576 L1404.2 32.9987 L1397.07 32.9987 L1397.07 27.2059 L1404.2 27.2059 L1404.2 24.0462 Q1404.2 16.471 1407.72 13.0277 Q1411.25 9.54393 1418.9 9.54393 L1425.95 9.54393 Z" fill="#000000" fill-rule="nonzero" fill-opacity="1" /><path clip-path="url(#clip560)" d="M1449.77 32.4315 Q1443.78 32.4315 1440.29 37.1306 Q1436.81 41.7891 1436.81 49.9314 Q1436.81 58.0738 1440.25 62.7728 Q1443.74 67.4314 1449.77 67.4314 Q1455.73 67.4314 1459.21 62.7323 Q1462.69 58.0333 1462.69 49.9314 Q1462.69 41.8701 1459.21 37.1711 Q1455.73 32.4315 1449.77 32.4315 M1449.77 26.1121 Q1459.49 26.1121 1465.04 32.4315 Q1470.59 38.7509 1470.59 49.9314 Q1470.59 61.0714 1465.04 67.4314 Q1459.49 73.7508 1449.77 73.7508 Q1440.01 73.7508 1434.46 67.4314 Q1428.95 61.0714 1428.95 49.9314 Q1428.95 38.7509 1434.46 32.4315 Q1440.01 26.1121 1449.77 26.1121 Z" fill="#000000" fill-rule="nonzero" fill-opacity="1" /><path clip-path="url(#clip560)" d="M1509.24 34.1734 Q1507.98 33.4443 1506.49 33.1202 Q1505.03 32.7556 1503.24 32.7556 Q1496.93 32.7556 1493.52 36.8875 Q1490.16 40.9789 1490.16 48.6757 L1490.16 72.576 L1482.67 72.576 L1482.67 27.2059 L1490.16 27.2059 L1490.16 34.2544 Q1492.51 30.1225 1496.28 28.1376 Q1500.04 26.1121 1505.43 26.1121 Q1506.2 26.1121 1507.13 26.2337 Q1508.07 26.3147 1509.2 26.5172 L1509.24 34.1734 Z" fill="#000000" fill-rule="nonzero" fill-opacity="1" /><path clip-path="url(#clip560)" d="M1576.08 28.9478 L1576.08 35.9153 Q1572.92 34.1734 1569.72 33.3227 Q1566.56 32.4315 1563.32 32.4315 Q1556.07 32.4315 1552.06 37.0496 Q1548.05 41.6271 1548.05 49.9314 Q1548.05 58.2358 1552.06 62.8538 Q1556.07 67.4314 1563.32 67.4314 Q1566.56 67.4314 1569.72 66.5807 Q1572.92 65.6895 1576.08 63.9476 L1576.08 70.8341 Q1572.96 72.2924 1569.6 73.0216 Q1566.28 73.7508 1562.51 73.7508 Q1552.26 73.7508 1546.22 67.3098 Q1540.19 60.8689 1540.19 49.9314 Q1540.19 38.832 1546.27 32.472 Q1552.38 26.1121 1563 26.1121 Q1566.44 26.1121 1569.72 26.8413 Q1573 27.5299 1576.08 28.9478 Z" fill="#000000" fill-rule="nonzero" fill-opacity="1" /><path clip-path="url(#clip560)" d="M1589.04 9.54393 L1596.5 9.54393 L1596.5 72.576 L1589.04 72.576 L1589.04 9.54393 Z" fill="#000000" fill-rule="nonzero" fill-opacity="1" /><path clip-path="url(#clip560)" d="M1611.32 54.671 L1611.32 27.2059 L1618.78 27.2059 L1618.78 54.3874 Q1618.78 60.8284 1621.29 64.0691 Q1623.8 67.2693 1628.82 67.2693 Q1634.86 67.2693 1638.34 63.421 Q1641.87 59.5726 1641.87 52.9291 L1641.87 27.2059 L1649.32 27.2059 L1649.32 72.576 L1641.87 72.576 L1641.87 65.6084 Q1639.15 69.7404 1635.55 71.7658 Q1631.98 73.7508 1627.24 73.7508 Q1619.42 73.7508 1615.37 68.8897 Q1611.32 64.0286 1611.32 54.671 M1630.08 26.1121 L1630.08 26.1121 Z" fill="#000000" fill-rule="nonzero" fill-opacity="1" /><path clip-path="url(#clip560)" d="M1693.6 28.5427 L1693.6 35.5912 Q1690.44 33.9709 1687.03 33.1607 Q1683.63 32.3505 1679.99 32.3505 Q1674.44 32.3505 1671.64 34.0519 Q1668.89 35.7533 1668.89 39.156 Q1668.89 41.7486 1670.87 43.2475 Q1672.86 44.7058 1678.85 46.0426 L1681.4 46.6097 Q1689.34 48.3111 1692.66 51.4303 Q1696.03 54.509 1696.03 60.0587 Q1696.03 66.3781 1691 70.0644 Q1686.02 73.7508 1677.27 73.7508 Q1673.63 73.7508 1669.66 73.0216 Q1665.73 72.3329 1661.35 70.9151 L1661.35 63.2184 Q1665.48 65.3654 1669.49 66.4591 Q1673.5 67.5124 1677.43 67.5124 Q1682.7 67.5124 1685.54 65.73 Q1688.37 63.9071 1688.37 60.6258 Q1688.37 57.5877 1686.3 55.9673 Q1684.28 54.3469 1677.35 52.8481 L1674.76 52.2405 Q1667.83 50.7821 1664.75 47.7845 Q1661.68 44.7463 1661.68 39.4801 Q1661.68 33.0797 1666.21 29.5959 Q1670.75 26.1121 1679.09 26.1121 Q1683.23 26.1121 1686.87 26.7198 Q1690.52 27.3274 1693.6 28.5427 Z" fill="#000000" fill-rule="nonzero" fill-opacity="1" /><path clip-path="url(#clip560)" d="M1715.27 14.324 L1715.27 27.2059 L1730.62 27.2059 L1730.62 32.9987 L1715.27 32.9987 L1715.27 57.6282 Q1715.27 63.1779 1716.77 64.7578 Q1718.31 66.3376 1722.97 66.3376 L1730.62 66.3376 L1730.62 72.576 L1722.97 72.576 Q1714.34 72.576 1711.06 69.3758 Q1707.77 66.1351 1707.77 57.6282 L1707.77 32.9987 L1702.31 32.9987 L1702.31 27.2059 L1707.77 27.2059 L1707.77 14.324 L1715.27 14.324 Z" fill="#000000" fill-rule="nonzero" fill-opacity="1" /><path clip-path="url(#clip560)" d="M1779.23 48.0275 L1779.23 51.6733 L1744.96 51.6733 Q1745.45 59.3701 1749.58 63.421 Q1753.75 67.4314 1761.17 67.4314 Q1765.46 67.4314 1769.47 66.3781 Q1773.52 65.3249 1777.49 63.2184 L1777.49 70.267 Q1773.48 71.9684 1769.27 72.8596 Q1765.05 73.7508 1760.72 73.7508 Q1749.86 73.7508 1743.5 67.4314 Q1737.18 61.1119 1737.18 50.3365 Q1737.18 39.1965 1743.18 32.6746 Q1749.22 26.1121 1759.42 26.1121 Q1768.58 26.1121 1773.89 32.0264 Q1779.23 37.9003 1779.23 48.0275 M1771.78 45.84 Q1771.7 39.7232 1768.34 36.0774 Q1765.01 32.4315 1759.5 32.4315 Q1753.27 32.4315 1749.5 35.9558 Q1745.77 39.4801 1745.2 45.8805 L1771.78 45.84 Z" fill="#000000" fill-rule="nonzero" fill-opacity="1" /><path clip-path="url(#clip560)" d="M1817.76 34.1734 Q1816.5 33.4443 1815 33.1202 Q1813.54 32.7556 1811.76 32.7556 Q1805.44 32.7556 1802.04 36.8875 Q1798.68 40.9789 1798.68 48.6757 L1798.68 72.576 L1791.18 72.576 L1791.18 27.2059 L1798.68 27.2059 L1798.68 34.2544 Q1801.03 30.1225 1804.79 28.1376 Q1808.56 26.1121 1813.95 26.1121 Q1814.72 26.1121 1815.65 26.2337 Q1816.58 26.3147 1817.72 26.5172 L1817.76 34.1734 Z" fill="#000000" fill-rule="nonzero" fill-opacity="1" /><path clip-path="url(#clip560)" d="M1851.42 39.9662 Q1857.29 41.222 1860.57 45.1919 Q1863.9 49.1618 1863.9 54.9951 Q1863.9 63.9476 1857.74 68.8492 Q1851.58 73.7508 1840.24 73.7508 Q1836.43 73.7508 1832.38 72.9811 Q1828.37 72.2519 1824.08 70.7531 L1824.08 62.8538 Q1827.48 64.8388 1831.53 65.8515 Q1835.58 66.8642 1840 66.8642 Q1847.69 66.8642 1851.7 63.826 Q1855.75 60.7879 1855.75 54.9951 Q1855.75 49.6479 1851.99 46.6502 Q1848.26 43.612 1841.58 43.612 L1834.53 43.612 L1834.53 36.8875 L1841.9 36.8875 Q1847.94 36.8875 1851.14 34.4975 Q1854.34 32.067 1854.34 27.5299 Q1854.34 22.8714 1851.01 20.4004 Q1847.73 17.8888 1841.58 17.8888 Q1838.21 17.8888 1834.37 18.618 Q1830.52 19.3471 1825.9 20.8865 L1825.9 13.5948 Q1830.56 12.2985 1834.61 11.6504 Q1838.7 11.0023 1842.31 11.0023 Q1851.62 11.0023 1857.05 15.2557 Q1862.48 19.4686 1862.48 26.6793 Q1862.48 31.7024 1859.6 35.1862 Q1856.73 38.6294 1851.42 39.9662 Z" fill="#000000" fill-rule="nonzero" fill-opacity="1" /><path clip-path="url(#clip560)" d="M1922.63 9.62495 Q1917.21 18.942 1914.57 28.0566 Q1911.94 37.1711 1911.94 46.5287 Q1911.94 55.8863 1914.57 65.0818 Q1917.25 74.2369 1922.63 83.5134 L1916.15 83.5134 Q1910.08 73.9938 1907.04 64.7983 Q1904.04 55.6027 1904.04 46.5287 Q1904.04 37.4952 1907.04 28.3401 Q1910.04 19.1851 1916.15 9.62495 L1922.63 9.62495 Z" fill="#000000" fill-rule="nonzero" fill-opacity="1" /><path clip-path="url(#clip560)" d="M1960.63 19.2256 L1939.97 51.5113 L1960.63 51.5113 L1960.63 19.2256 M1958.49 12.096 L1968.77 12.096 L1968.77 51.5113 L1977.4 51.5113 L1977.4 58.3168 L1968.77 58.3168 L1968.77 72.576 L1960.63 72.576 L1960.63 58.3168 L1933.33 58.3168 L1933.33 50.4176 L1958.49 12.096 Z" fill="#000000" fill-rule="nonzero" fill-opacity="1" /><path clip-path="url(#clip560)" d="M1991.01 12.096 L2023.14 12.096 L2023.14 18.9825 L1998.51 18.9825 L1998.51 33.8088 Q2000.29 33.2012 2002.07 32.9176 Q2003.86 32.5936 2005.64 32.5936 Q2015.76 32.5936 2021.68 38.1433 Q2027.59 43.6931 2027.59 53.1722 Q2027.59 62.9348 2021.52 68.3631 Q2015.44 73.7508 2004.38 73.7508 Q2000.57 73.7508 1996.6 73.1026 Q1992.67 72.4545 1988.46 71.1582 L1988.46 62.9348 Q1992.11 64.9198 1996 65.892 Q1999.89 66.8642 2004.22 66.8642 Q2011.23 66.8642 2015.32 63.1779 Q2019.41 59.4916 2019.41 53.1722 Q2019.41 46.8528 2015.32 43.1664 Q2011.23 39.4801 2004.22 39.4801 Q2000.94 39.4801 1997.66 40.2093 Q1994.42 40.9384 1991.01 42.4778 L1991.01 12.096 Z" fill="#000000" fill-rule="nonzero" fill-opacity="1" /><path clip-path="url(#clip560)" d="M2106.75 45.1919 L2106.75 72.576 L2099.29 72.576 L2099.29 45.4349 Q2099.29 38.994 2096.78 35.7938 Q2094.27 32.5936 2089.25 32.5936 Q2083.21 32.5936 2079.73 36.4419 Q2076.24 40.2903 2076.24 46.9338 L2076.24 72.576 L2068.75 72.576 L2068.75 27.2059 L2076.24 27.2059 L2076.24 34.2544 Q2078.92 30.163 2082.52 28.1376 Q2086.17 26.1121 2090.91 26.1121 Q2098.73 26.1121 2102.74 30.9732 Q2106.75 35.7938 2106.75 45.1919 Z" fill="#000000" fill-rule="nonzero" fill-opacity="1" /><path clip-path="url(#clip560)" d="M2139.2 32.4315 Q2133.2 32.4315 2129.72 37.1306 Q2126.23 41.7891 2126.23 49.9314 Q2126.23 58.0738 2129.68 62.7728 Q2133.16 67.4314 2139.2 67.4314 Q2145.15 67.4314 2148.63 62.7323 Q2152.12 58.0333 2152.12 49.9314 Q2152.12 41.8701 2148.63 37.1711 Q2145.15 32.4315 2139.2 32.4315 M2139.2 26.1121 Q2148.92 26.1121 2154.47 32.4315 Q2160.02 38.7509 2160.02 49.9314 Q2160.02 61.0714 2154.47 67.4314 Q2148.92 73.7508 2139.2 73.7508 Q2129.43 73.7508 2123.88 67.4314 Q2118.37 61.0714 2118.37 49.9314 Q2118.37 38.7509 2123.88 32.4315 Q2129.43 26.1121 2139.2 26.1121 Z" fill="#000000" fill-rule="nonzero" fill-opacity="1" /><path clip-path="url(#clip560)" d="M2210.09 45.1919 L2210.09 72.576 L2202.63 72.576 L2202.63 45.4349 Q2202.63 38.994 2200.12 35.7938 Q2197.61 32.5936 2192.59 32.5936 Q2186.55 32.5936 2183.07 36.4419 Q2179.58 40.2903 2179.58 46.9338 L2179.58 72.576 L2172.09 72.576 L2172.09 27.2059 L2179.58 27.2059 L2179.58 34.2544 Q2182.26 30.163 2185.86 28.1376 Q2189.51 26.1121 2194.25 26.1121 Q2202.07 26.1121 2206.08 30.9732 Q2210.09 35.7938 2210.09 45.1919 Z" fill="#000000" fill-rule="nonzero" fill-opacity="1" /><path clip-path="url(#clip560)" d="M2221.71 27.2059 L2257.12 27.2059 L2257.12 34.0114 L2229.09 66.6212 L2257.12 66.6212 L2257.12 72.576 L2220.7 72.576 L2220.7 65.7705 L2248.73 33.1607 L2221.71 33.1607 L2221.71 27.2059 Z" fill="#000000" fill-rule="nonzero" fill-opacity="1" /><path clip-path="url(#clip560)" d="M2307.31 48.0275 L2307.31 51.6733 L2273.04 51.6733 Q2273.52 59.3701 2277.66 63.421 Q2281.83 67.4314 2289.24 67.4314 Q2293.54 67.4314 2297.55 66.3781 Q2301.6 65.3249 2305.57 63.2184 L2305.57 70.267 Q2301.56 71.9684 2297.34 72.8596 Q2293.13 73.7508 2288.8 73.7508 Q2277.94 73.7508 2271.58 67.4314 Q2265.26 61.1119 2265.26 50.3365 Q2265.26 39.1965 2271.26 32.6746 Q2277.29 26.1121 2287.5 26.1121 Q2296.65 26.1121 2301.96 32.0264 Q2307.31 37.9003 2307.31 48.0275 M2299.85 45.84 Q2299.77 39.7232 2296.41 36.0774 Q2293.09 32.4315 2287.58 32.4315 Q2281.34 32.4315 2277.57 35.9558 Q2273.85 39.4801 2273.28 45.8805 L2299.85 45.84 Z" fill="#000000" fill-rule="nonzero" fill-opacity="1" /><path clip-path="url(#clip560)" d="M2345.83 34.1734 Q2344.58 33.4443 2343.08 33.1202 Q2341.62 32.7556 2339.84 32.7556 Q2333.52 32.7556 2330.12 36.8875 Q2326.75 40.9789 2326.75 48.6757 L2326.75 72.576 L2319.26 72.576 L2319.26 27.2059 L2326.75 27.2059 L2326.75 34.2544 Q2329.1 30.1225 2332.87 28.1376 Q2336.64 26.1121 2342.02 26.1121 Q2342.79 26.1121 2343.73 26.2337 Q2344.66 26.3147 2345.79 26.5172 L2345.83 34.1734 Z" fill="#000000" fill-rule="nonzero" fill-opacity="1" /><path clip-path="url(#clip560)" d="M2369.41 32.4315 Q2363.41 32.4315 2359.93 37.1306 Q2356.45 41.7891 2356.45 49.9314 Q2356.45 58.0738 2359.89 62.7728 Q2363.37 67.4314 2369.41 67.4314 Q2375.36 67.4314 2378.85 62.7323 Q2382.33 58.0333 2382.33 49.9314 Q2382.33 41.8701 2378.85 37.1711 Q2375.36 32.4315 2369.41 32.4315 M2369.41 26.1121 Q2379.13 26.1121 2384.68 32.4315 Q2390.23 38.7509 2390.23 49.9314 Q2390.23 61.0714 2384.68 67.4314 Q2379.13 73.7508 2369.41 73.7508 Q2359.65 73.7508 2354.1 67.4314 Q2348.59 61.0714 2348.59 49.9314 Q2348.59 38.7509 2354.1 32.4315 Q2359.65 26.1121 2369.41 26.1121 Z" fill="#000000" fill-rule="nonzero" fill-opacity="1" /><path clip-path="url(#clip560)" d="M2451.93 9.54393 L2451.93 15.7418 L2444.8 15.7418 Q2440.79 15.7418 2439.21 17.3622 Q2437.67 18.9825 2437.67 23.1955 L2437.67 27.2059 L2449.94 27.2059 L2449.94 32.9987 L2437.67 32.9987 L2437.67 72.576 L2430.17 72.576 L2430.17 32.9987 L2423.04 32.9987 L2423.04 27.2059 L2430.17 27.2059 L2430.17 24.0462 Q2430.17 16.471 2433.7 13.0277 Q2437.22 9.54393 2444.88 9.54393 L2451.93 9.54393 Z" fill="#000000" fill-rule="nonzero" fill-opacity="1" /><path clip-path="url(#clip560)" d="M2496.97 48.0275 L2496.97 51.6733 L2462.7 51.6733 Q2463.19 59.3701 2467.32 63.421 Q2471.49 67.4314 2478.9 67.4314 Q2483.2 67.4314 2487.21 66.3781 Q2491.26 65.3249 2495.23 63.2184 L2495.23 70.267 Q2491.22 71.9684 2487.01 72.8596 Q2482.79 73.7508 2478.46 73.7508 Q2467.6 73.7508 2461.24 67.4314 Q2454.92 61.1119 2454.92 50.3365 Q2454.92 39.1965 2460.92 32.6746 Q2466.95 26.1121 2477.16 26.1121 Q2486.32 26.1121 2491.62 32.0264 Q2496.97 37.9003 2496.97 48.0275 M2489.52 45.84 Q2489.44 39.7232 2486.07 36.0774 Q2482.75 32.4315 2477.24 32.4315 Q2471.01 32.4315 2467.24 35.9558 Q2463.51 39.4801 2462.94 45.8805 L2489.52 45.84 Z" fill="#000000" fill-rule="nonzero" fill-opacity="1" /><path clip-path="url(#clip560)" d="M2529.82 49.7694 Q2520.79 49.7694 2517.31 51.8354 Q2513.82 53.9013 2513.82 58.8839 Q2513.82 62.8538 2516.42 65.2034 Q2519.05 67.5124 2523.55 67.5124 Q2529.74 67.5124 2533.47 63.1374 Q2537.24 58.7219 2537.24 51.4303 L2537.24 49.7694 L2529.82 49.7694 M2544.69 46.6907 L2544.69 72.576 L2537.24 72.576 L2537.24 65.6895 Q2534.69 69.8214 2530.88 71.8063 Q2527.07 73.7508 2521.56 73.7508 Q2514.59 73.7508 2510.46 69.8619 Q2506.37 65.9325 2506.37 59.3701 Q2506.37 51.7138 2511.47 47.825 Q2516.62 43.9361 2526.79 43.9361 L2537.24 43.9361 L2537.24 43.2069 Q2537.24 38.0623 2533.84 35.2672 Q2530.47 32.4315 2524.36 32.4315 Q2520.47 32.4315 2516.78 33.3632 Q2513.09 34.295 2509.69 36.1584 L2509.69 29.2718 Q2513.78 27.692 2517.63 26.9223 Q2521.48 26.1121 2525.13 26.1121 Q2534.97 26.1121 2539.83 31.2163 Q2544.69 36.3204 2544.69 46.6907 Z" fill="#000000" fill-rule="nonzero" fill-opacity="1" /><path clip-path="url(#clip560)" d="M2567.42 14.324 L2567.42 27.2059 L2582.77 27.2059 L2582.77 32.9987 L2567.42 32.9987 L2567.42 57.6282 Q2567.42 63.1779 2568.92 64.7578 Q2570.46 66.3376 2575.11 66.3376 L2582.77 66.3376 L2582.77 72.576 L2575.11 72.576 Q2566.49 72.576 2563.2 69.3758 Q2559.92 66.1351 2559.92 57.6282 L2559.92 32.9987 L2554.45 32.9987 L2554.45 27.2059 L2559.92 27.2059 L2559.92 14.324 L2567.42 14.324 Z" fill="#000000" fill-rule="nonzero" fill-opacity="1" /><path clip-path="url(#clip560)" d="M2591.8 54.671 L2591.8 27.2059 L2599.26 27.2059 L2599.26 54.3874 Q2599.26 60.8284 2601.77 64.0691 Q2604.28 67.2693 2609.3 67.2693 Q2615.34 67.2693 2618.82 63.421 Q2622.35 59.5726 2622.35 52.9291 L2622.35 27.2059 L2629.8 27.2059 L2629.8 72.576 L2622.35 72.576 L2622.35 65.6084 Q2619.63 69.7404 2616.03 71.7658 Q2612.46 73.7508 2607.72 73.7508 Q2599.91 73.7508 2595.85 68.8897 Q2591.8 64.0286 2591.8 54.671 M2610.56 26.1121 L2610.56 26.1121 Z" fill="#000000" fill-rule="nonzero" fill-opacity="1" /><path clip-path="url(#clip560)" d="M2671.44 34.1734 Q2670.19 33.4443 2668.69 33.1202 Q2667.23 32.7556 2665.45 32.7556 Q2659.13 32.7556 2655.73 36.8875 Q2652.36 40.9789 2652.36 48.6757 L2652.36 72.576 L2644.87 72.576 L2644.87 27.2059 L2652.36 27.2059 L2652.36 34.2544 Q2654.71 30.1225 2658.48 28.1376 Q2662.25 26.1121 2667.64 26.1121 Q2668.41 26.1121 2669.34 26.2337 Q2670.27 26.3147 2671.4 26.5172 L2671.44 34.1734 Z" fill="#000000" fill-rule="nonzero" fill-opacity="1" /><path clip-path="url(#clip560)" d="M2716.25 48.0275 L2716.25 51.6733 L2681.98 51.6733 Q2682.46 59.3701 2686.59 63.421 Q2690.77 67.4314 2698.18 67.4314 Q2702.47 67.4314 2706.48 66.3781 Q2710.54 65.3249 2714.51 63.2184 L2714.51 70.267 Q2710.49 71.9684 2706.28 72.8596 Q2702.07 73.7508 2697.73 73.7508 Q2686.88 73.7508 2680.52 67.4314 Q2674.2 61.1119 2674.2 50.3365 Q2674.2 39.1965 2680.19 32.6746 Q2686.23 26.1121 2696.44 26.1121 Q2705.59 26.1121 2710.9 32.0264 Q2716.25 37.9003 2716.25 48.0275 M2708.79 45.84 Q2708.71 39.7232 2705.35 36.0774 Q2702.03 32.4315 2696.52 32.4315 Q2690.28 32.4315 2686.51 35.9558 Q2682.79 39.4801 2682.22 45.8805 L2708.79 45.84 Z" fill="#000000" fill-rule="nonzero" fill-opacity="1" /><path clip-path="url(#clip560)" d="M2757.4 28.5427 L2757.4 35.5912 Q2754.24 33.9709 2750.84 33.1607 Q2747.44 32.3505 2743.79 32.3505 Q2738.24 32.3505 2735.45 34.0519 Q2732.69 35.7533 2732.69 39.156 Q2732.69 41.7486 2734.68 43.2475 Q2736.66 44.7058 2742.66 46.0426 L2745.21 46.6097 Q2753.15 48.3111 2756.47 51.4303 Q2759.83 54.509 2759.83 60.0587 Q2759.83 66.3781 2754.81 70.0644 Q2749.83 73.7508 2741.08 73.7508 Q2737.43 73.7508 2733.46 73.0216 Q2729.53 72.3329 2725.16 70.9151 L2725.16 63.2184 Q2729.29 65.3654 2733.3 66.4591 Q2737.31 67.5124 2741.24 67.5124 Q2746.51 67.5124 2749.34 65.73 Q2752.18 63.9071 2752.18 60.6258 Q2752.18 57.5877 2750.11 55.9673 Q2748.09 54.3469 2741.16 52.8481 L2738.57 52.2405 Q2731.64 50.7821 2728.56 47.7845 Q2725.48 44.7463 2725.48 39.4801 Q2725.48 33.0797 2730.02 29.5959 Q2734.56 26.1121 2742.9 26.1121 Q2747.03 26.1121 2750.68 26.7198 Q2754.33 27.3274 2757.4 28.5427 Z" fill="#000000" fill-rule="nonzero" fill-opacity="1" /><path clip-path="url(#clip560)" d="M2770.53 9.62495 L2777.01 9.62495 Q2783.09 19.1851 2786.08 28.3401 Q2789.12 37.4952 2789.12 46.5287 Q2789.12 55.6027 2786.08 64.7983 Q2783.09 73.9938 2777.01 83.5134 L2770.53 83.5134 Q2775.92 74.2369 2778.55 65.0818 Q2781.22 55.8863 2781.22 46.5287 Q2781.22 37.1711 2778.55 28.0566 Q2775.92 18.942 2770.53 9.62495 Z" fill="#000000" fill-rule="nonzero" fill-opacity="1" /><circle clip-path="url(#clip562)" cx="442.794" cy="345.778" r="28.8" fill="#590007" fill-rule="evenodd" fill-opacity="1" stroke="#000000" stroke-opacity="1" stroke-width="5.6"/>
<circle clip-path="url(#clip562)" cx="735.131" cy="431.122" r="28.8" fill="#620607" fill-rule="evenodd" fill-opacity="1" stroke="#000000" stroke-opacity="1" stroke-width="5.6"/>
<circle clip-path="url(#clip562)" cx="1027.47" cy="494.197" r="28.8" fill="#680c07" fill-rule="evenodd" fill-opacity="1" stroke="#000000" stroke-opacity="1" stroke-width="5.6"/>
<circle clip-path="url(#clip562)" cx="1319.8" cy="785.859" r="28.8" fill="#8a2605" fill-rule="evenodd" fill-opacity="1" stroke="#000000" stroke-opacity="1" stroke-width="5.6"/>
<circle clip-path="url(#clip562)" cx="1612.14" cy="936.876" r="28.8" fill="#9e390a" fill-rule="evenodd" fill-opacity="1" stroke="#000000" stroke-opacity="1" stroke-width="5.6"/>
<circle clip-path="url(#clip562)" cx="1904.48" cy="1807.7" r="28.8" fill="#d8a384" fill-rule="evenodd" fill-opacity="1" stroke="#000000" stroke-opacity="1" stroke-width="5.6"/>
<circle clip-path="url(#clip562)" cx="2196.81" cy="1856.63" r="28.8" fill="#dba98c" fill-rule="evenodd" fill-opacity="1" stroke="#000000" stroke-opacity="1" stroke-width="5.6"/>
<circle clip-path="url(#clip562)" cx="2489.15" cy="1873.14" r="28.8" fill="#dbab8f" fill-rule="evenodd" fill-opacity="1" stroke="#000000" stroke-opacity="1" stroke-width="5.6"/>
<circle clip-path="url(#clip562)" cx="2781.49" cy="1902.01" r="28.8" fill="#ddae93" fill-rule="evenodd" fill-opacity="1" stroke="#000000" stroke-opacity="1" stroke-width="5.6"/>
<circle clip-path="url(#clip562)" cx="3073.82" cy="1924.71" r="28.8" fill="#deb197" fill-rule="evenodd" fill-opacity="1" stroke="#000000" stroke-opacity="1" stroke-width="5.6"/>
<polyline clip-path="url(#clip562)" style="stroke:#000000; stroke-linecap:round; stroke-linejoin:round; stroke-width:6; stroke-opacity:1; fill:none" stroke-dasharray="24, 15" points="-2425.03,2379.84 5941.65,2379.84 "/>
</svg>
