<?xml version="1.0" encoding="utf-8"?>
<svg xmlns="http://www.w3.org/2000/svg" xmlns:xlink="http://www.w3.org/1999/xlink" width="800" height="700" viewBox="0 0 3200 2800">
<defs>
  <clipPath id="clip510">
    <rect x="0" y="0" width="3200" height="2800"/>
  </clipPath>
</defs>
<path clip-path="url(#clip510)" d="M0 2800 L3200 2800 L3200 0 L0 0  Z" fill="#ffffff" fill-rule="evenodd" fill-opacity="1"/>
<defs>
  <clipPath id="clip511">
    <rect x="640" y="0" width="2241" height="2241"/>
  </clipPath>
</defs>
<path clip-path="url(#clip510)" d="M363.863 2582.5 L3152.76 2582.5 L3152.76 142.372 L363.863 142.372  Z" fill="#ffffff" fill-rule="evenodd" fill-opacity="1"/>
<defs>
  <clipPath id="clip512">
    <rect x="363" y="142" width="2790" height="2441"/>
  </clipPath>
</defs>
<polyline clip-path="url(#clip510)" style="stroke:#000000; stroke-linecap:round; stroke-linejoin:round; stroke-width:4; stroke-opacity:1; fill:none" points="363.863,2582.5 3152.76,2582.5 "/>
<polyline clip-path="url(#clip510)" style="stroke:#000000; stroke-linecap:round; stroke-linejoin:round; stroke-width:4; stroke-opacity:1; fill:none" points="442.794,2582.5 442.794,2563.61 "/>
<polyline clip-path="url(#clip510)" style="stroke:#000000; stroke-linecap:round; stroke-linejoin:round; stroke-width:4; stroke-opacity:1; fill:none" points="735.131,2582.5 735.131,2563.61 "/>
<polyline clip-path="url(#clip510)" style="stroke:#000000; stroke-linecap:round; stroke-linejoin:round; stroke-width:4; stroke-opacity:1; fill:none" points="1027.47,2582.5 1027.47,2563.61 "/>
<polyline clip-path="url(#clip510)" style="stroke:#000000; stroke-linecap:round; stroke-linejoin:round; stroke-width:4; stroke-opacity:1; fill:none" points="1319.8,2582.5 1319.8,2563.61 "/>
<polyline clip-path="url(#clip510)" style="stroke:#000000; stroke-linecap:round; stroke-linejoin:round; stroke-width:4; stroke-opacity:1; fill:none" points="1612.14,2582.5 1612.14,2563.61 "/>
<polyline clip-path="url(#clip510)" style="stroke:#000000; stroke-linecap:round; stroke-linejoin:round; stroke-width:4; stroke-opacity:1; fill:none" points="1904.48,2582.5 1904.48,2563.61 "/>
<polyline clip-path="url(#clip510)" style="stroke:#000000; stroke-linecap:round; stroke-linejoin:round; stroke-width:4; stroke-opacity:1; fill:none" points="2196.81,2582.5 2196.81,2563.61 "/>
<polyline clip-path="url(#clip510)" style="stroke:#000000; stroke-linecap:round; stroke-linejoin:round; stroke-width:4; stroke-opacity:1; fill:none" points="2489.15,2582.5 2489.15,2563.61 "/>
<polyline clip-path="url(#clip510)" style="stroke:#000000; stroke-linecap:round; stroke-linejoin:round; stroke-width:4; stroke-opacity:1; fill:none" points="2781.49,2582.5 2781.49,2563.61 "/>
<polyline clip-path="url(#clip510)" style="stroke:#000000; stroke-linecap:round; stroke-linejoin:round; stroke-width:4; stroke-opacity:1; fill:none" points="3073.82,2582.5 3073.82,2563.61 "/>
<path clip-path="url(#clip510)" d="M419.684 2677.09 L451.97 2697.75 L451.97 2677.09 L419.684 2677.09 M412.554 2679.24 L412.554 2668.95 L451.97 2668.95 L451.97 2660.32 L458.775 2660.32 L458.775 2668.95 L473.034 2668.95 L473.034 2677.09 L458.775 2677.09 L458.775 2704.39 L450.876 2704.39 L412.554 2679.24 Z" fill="#000000" fill-rule="nonzero" fill-opacity="1" /><path clip-path="url(#clip510)" d="M439.533 2628.28 Q439.533 2633.79 443.301 2637.03 Q447.068 2640.23 453.631 2640.23 Q460.152 2640.23 463.96 2637.03 Q467.728 2633.79 467.728 2628.28 Q467.728 2622.77 463.96 2619.57 Q460.152 2616.33 453.631 2616.33 Q447.068 2616.33 443.301 2619.57 Q439.533 2622.77 439.533 2628.28 M413.891 2612.03 L421.345 2612.03 Q419.886 2615.11 419.117 2618.27 Q418.347 2621.39 418.347 2624.47 Q418.347 2632.57 423.816 2636.86 Q429.285 2641.12 440.344 2641.73 Q436.819 2639.34 434.956 2635.73 Q433.052 2632.13 433.052 2627.79 Q433.052 2618.68 438.602 2613.41 Q444.111 2608.1 453.631 2608.1 Q462.948 2608.1 468.578 2613.61 Q474.209 2619.12 474.209 2628.28 Q474.209 2638.77 466.188 2644.32 Q458.127 2649.87 442.855 2649.87 Q428.515 2649.87 420.008 2643.06 Q411.461 2636.26 411.461 2624.79 Q411.461 2621.71 412.068 2618.6 Q412.676 2615.44 413.891 2612.03 Z" fill="#000000" fill-rule="nonzero" fill-opacity="1" /><path clip-path="url(#clip510)" d="M704.891 2699.21 L704.891 2667.08 L711.778 2667.08 L711.778 2691.71 L726.604 2691.71 Q725.996 2689.93 725.713 2688.15 Q725.389 2686.37 725.389 2684.58 Q725.389 2674.46 730.938 2668.54 Q736.488 2662.63 745.967 2662.63 Q755.73 2662.63 761.158 2668.7 Q766.546 2674.78 766.546 2685.84 Q766.546 2689.65 765.898 2693.62 Q765.25 2697.55 763.953 2701.76 L755.73 2701.76 Q757.715 2698.11 758.687 2694.23 Q759.659 2690.34 759.659 2686 Q759.659 2678.99 755.973 2674.9 Q752.287 2670.81 745.967 2670.81 Q739.648 2670.81 735.962 2674.9 Q732.275 2678.99 732.275 2686 Q732.275 2689.28 733.004 2692.56 Q733.734 2695.81 735.273 2699.21 L704.891 2699.21 Z" fill="#000000" fill-rule="nonzero" fill-opacity="1" /><path clip-path="url(#clip510)" d="M710.279 2629.01 Q710.279 2635.33 716.517 2638.53 Q722.715 2641.69 735.192 2641.69 Q747.628 2641.69 753.867 2638.53 Q760.064 2635.33 760.064 2629.01 Q760.064 2622.65 753.867 2619.49 Q747.628 2616.29 735.192 2616.29 Q722.715 2616.29 716.517 2619.49 Q710.279 2622.65 710.279 2629.01 M703.797 2629.01 Q703.797 2618.84 711.859 2613.49 Q719.879 2608.1 735.192 2608.1 Q750.464 2608.1 758.525 2613.49 Q766.546 2618.84 766.546 2629.01 Q766.546 2639.17 758.525 2644.56 Q750.464 2649.91 735.192 2649.91 Q719.879 2649.91 711.859 2644.56 Q703.797 2639.17 703.797 2629.01 Z" fill="#000000" fill-rule="nonzero" fill-opacity="1" /><path clip-path="url(#clip510)" d="M1004.36 2676.64 L1036.64 2697.3 L1036.64 2676.64 L1004.36 2676.64 M997.228 2678.79 L997.228 2668.5 L1036.64 2668.5 L1036.64 2659.87 L1043.45 2659.87 L1043.45 2668.5 L1057.71 2668.5 L1057.71 2676.64 L1043.45 2676.64 L1043.45 2703.95 L1035.55 2703.95 L997.228 2678.79 Z" fill="#000000" fill-rule="nonzero" fill-opacity="1" /><path clip-path="url(#clip510)" d="M1028.99 2628.84 Q1028.99 2634.68 1032.11 2638.04 Q1035.23 2641.36 1040.69 2641.36 Q1046.16 2641.36 1049.28 2638.04 Q1052.4 2634.68 1052.4 2628.84 Q1052.4 2623.01 1049.28 2619.65 Q1046.12 2616.29 1040.69 2616.29 Q1035.23 2616.29 1032.11 2619.65 Q1028.99 2622.97 1028.99 2628.84 M1025.5 2637.03 Q1024.21 2642.29 1020.6 2645.25 Q1017 2648.17 1011.81 2648.17 Q1004.56 2648.17 1000.35 2643.02 Q996.134 2637.84 996.134 2628.84 Q996.134 2619.81 1000.35 2614.67 Q1004.56 2609.52 1011.81 2609.52 Q1017 2609.52 1020.6 2612.48 Q1024.21 2615.39 1025.5 2620.62 Q1026.88 2614.71 1030.89 2611.42 Q1034.9 2608.1 1040.69 2608.1 Q1049.48 2608.1 1054.18 2613.49 Q1058.88 2618.84 1058.88 2628.84 Q1058.88 2638.85 1054.18 2644.24 Q1049.48 2649.58 1040.69 2649.58 Q1034.9 2649.58 1030.89 2646.26 Q1026.88 2642.94 1025.5 2637.03 M1012.58 2640.02 Q1017.28 2640.02 1019.91 2637.11 Q1022.55 2634.15 1022.55 2628.84 Q1022.55 2623.58 1019.91 2620.62 Q1017.28 2617.62 1012.58 2617.62 Q1007.88 2617.62 1005.25 2620.62 Q1002.62 2623.58 1002.62 2628.84 Q1002.62 2634.15 1005.25 2637.11 Q1007.88 2640.02 1012.58 2640.02 Z" fill="#000000" fill-rule="nonzero" fill-opacity="1" /><path clip-path="url(#clip510)" d="M1296.69 2676.48 L1328.98 2697.14 L1328.98 2676.48 L1296.69 2676.48 M1289.56 2678.63 L1289.56 2668.34 L1328.98 2668.34 L1328.98 2659.71 L1335.79 2659.71 L1335.79 2668.34 L1350.04 2668.34 L1350.04 2676.48 L1335.79 2676.48 L1335.79 2703.79 L1327.89 2703.79 L1289.56 2678.63 Z" fill="#000000" fill-rule="nonzero" fill-opacity="1" /><path clip-path="url(#clip510)" d="M1348.79 2645.94 L1341.34 2645.94 Q1342.79 2642.86 1343.56 2639.7 Q1344.33 2636.54 1344.33 2633.5 Q1344.33 2625.4 1338.9 2621.15 Q1333.44 2616.85 1322.34 2616.25 Q1325.82 2618.6 1327.68 2622.2 Q1329.55 2625.81 1329.55 2630.18 Q1329.55 2639.25 1324.08 2644.56 Q1318.57 2649.83 1309.05 2649.83 Q1299.73 2649.83 1294.1 2644.32 Q1288.47 2638.81 1288.47 2629.65 Q1288.47 2619.16 1296.53 2613.65 Q1304.55 2608.1 1319.87 2608.1 Q1334.17 2608.1 1342.71 2614.91 Q1351.22 2621.67 1351.22 2633.14 Q1351.22 2636.22 1350.61 2639.38 Q1350 2642.54 1348.79 2645.94 M1323.15 2629.65 Q1323.15 2624.14 1319.38 2620.94 Q1315.61 2617.7 1309.05 2617.7 Q1302.53 2617.7 1298.76 2620.94 Q1294.95 2624.14 1294.95 2629.65 Q1294.95 2635.16 1298.76 2638.4 Q1302.53 2641.6 1309.05 2641.6 Q1315.61 2641.6 1319.38 2638.4 Q1323.15 2635.16 1323.15 2629.65 Z" fill="#000000" fill-rule="nonzero" fill-opacity="1" /><path clip-path="url(#clip510)" d="M1589.03 2675.23 L1621.32 2695.89 L1621.32 2675.23 L1589.03 2675.23 M1581.9 2677.37 L1581.9 2667.08 L1621.32 2667.08 L1621.32 2658.46 L1628.12 2658.46 L1628.12 2667.08 L1642.38 2667.08 L1642.38 2675.23 L1628.12 2675.23 L1628.12 2702.53 L1620.22 2702.53 L1581.9 2677.37 Z" fill="#000000" fill-rule="nonzero" fill-opacity="1" /><path clip-path="url(#clip510)" d="M1581.9 2646.99 L1581.9 2608.1 L1585.39 2608.1 L1642.38 2630.06 L1642.38 2638.61 L1588.79 2617.95 L1588.79 2646.99 L1581.9 2646.99 Z" fill="#000000" fill-rule="nonzero" fill-opacity="1" /><path clip-path="url(#clip510)" d="M1874.24 2701.19 L1874.24 2662.3 L1877.72 2662.3 L1934.72 2684.26 L1934.72 2692.81 L1881.12 2672.15 L1881.12 2701.19 L1874.24 2701.19 Z" fill="#000000" fill-rule="nonzero" fill-opacity="1" /><path clip-path="url(#clip510)" d="M1906 2628.84 Q1906 2634.68 1909.12 2638.04 Q1912.24 2641.36 1917.7 2641.36 Q1923.17 2641.36 1926.29 2638.04 Q1929.41 2634.68 1929.41 2628.84 Q1929.41 2623.01 1926.29 2619.65 Q1923.13 2616.29 1917.7 2616.29 Q1912.24 2616.29 1909.12 2619.65 Q1906 2622.97 1906 2628.84 M1902.51 2637.03 Q1901.22 2642.29 1897.61 2645.25 Q1894.01 2648.17 1888.82 2648.17 Q1881.57 2648.17 1877.36 2643.02 Q1873.14 2637.84 1873.14 2628.84 Q1873.14 2619.81 1877.36 2614.67 Q1881.57 2609.52 1888.82 2609.52 Q1894.01 2609.52 1897.61 2612.48 Q1901.22 2615.39 1902.51 2620.62 Q1903.89 2614.71 1907.9 2611.42 Q1911.91 2608.1 1917.7 2608.1 Q1926.49 2608.1 1931.19 2613.49 Q1935.89 2618.84 1935.89 2628.84 Q1935.89 2638.85 1931.19 2644.24 Q1926.49 2649.58 1917.7 2649.58 Q1911.91 2649.58 1907.9 2646.26 Q1903.89 2642.94 1902.51 2637.03 M1889.59 2640.02 Q1894.29 2640.02 1896.92 2637.11 Q1899.56 2634.15 1899.56 2628.84 Q1899.56 2623.58 1896.92 2620.62 Q1894.29 2617.62 1889.59 2617.62 Q1884.89 2617.62 1882.26 2620.62 Q1879.63 2623.58 1879.63 2628.84 Q1879.63 2634.15 1882.26 2637.11 Q1884.89 2640.02 1889.59 2640.02 Z" fill="#000000" fill-rule="nonzero" fill-opacity="1" /><path clip-path="url(#clip510)" d="M2225.8 2696.25 L2218.35 2696.25 Q2219.8 2693.17 2220.57 2690.01 Q2221.34 2686.85 2221.34 2683.81 Q2221.34 2675.71 2215.91 2671.46 Q2210.45 2667.17 2199.35 2666.56 Q2202.83 2668.91 2204.69 2672.51 Q2206.56 2676.12 2206.56 2680.49 Q2206.56 2689.57 2201.09 2694.87 Q2195.58 2700.14 2186.06 2700.14 Q2176.74 2700.14 2171.11 2694.63 Q2165.48 2689.12 2165.48 2679.97 Q2165.48 2669.47 2173.54 2663.97 Q2181.56 2658.42 2196.88 2658.42 Q2211.18 2658.42 2219.72 2665.22 Q2228.23 2671.99 2228.23 2683.45 Q2228.23 2686.53 2227.62 2689.69 Q2227.01 2692.85 2225.8 2696.25 M2200.16 2679.97 Q2200.16 2674.46 2196.39 2671.26 Q2192.62 2668.02 2186.06 2668.02 Q2179.54 2668.02 2175.77 2671.26 Q2171.96 2674.46 2171.96 2679.97 Q2171.96 2685.48 2175.77 2688.72 Q2179.54 2691.92 2186.06 2691.92 Q2192.62 2691.92 2196.39 2688.72 Q2200.16 2685.48 2200.16 2679.97 Z" fill="#000000" fill-rule="nonzero" fill-opacity="1" /><path clip-path="url(#clip510)" d="M2220.17 2636.66 L2220.17 2608.1 L2227.05 2608.1 L2227.05 2646.51 L2220.17 2646.51 Q2215.35 2641.85 2207.25 2633.83 Q2199.1 2625.77 2196.75 2623.7 Q2192.34 2619.77 2189.3 2618.23 Q2186.22 2616.65 2183.26 2616.65 Q2178.44 2616.65 2175.41 2620.05 Q2172.37 2623.42 2172.37 2628.84 Q2172.37 2632.69 2173.7 2636.99 Q2175.04 2641.24 2177.76 2646.1 L2169.49 2646.1 Q2167.51 2641.16 2166.49 2636.86 Q2165.48 2632.57 2165.48 2629.01 Q2165.48 2619.61 2170.18 2614.02 Q2174.88 2608.43 2182.74 2608.43 Q2186.46 2608.43 2189.83 2609.85 Q2193.15 2611.22 2197.69 2614.91 Q2198.86 2615.92 2204.49 2621.35 Q2210.08 2626.78 2220.17 2636.66 Z" fill="#000000" fill-rule="nonzero" fill-opacity="1" /><path clip-path="url(#clip510)" d="M2512.5 2750.49 L2512.5 2737.12 L2466.37 2737.12 L2469.28 2751.67 L2461.83 2751.67 L2458.91 2737.21 L2458.91 2729.02 L2512.5 2729.02 L2512.5 2715.65 L2519.39 2715.65 L2519.39 2750.49 L2512.5 2750.49 Z" fill="#000000" fill-rule="nonzero" fill-opacity="1" /><path clip-path="url(#clip510)" d="M2490.67 2681.63 Q2490.67 2687.46 2493.79 2690.82 Q2496.91 2694.14 2502.38 2694.14 Q2507.85 2694.14 2510.97 2690.82 Q2514.08 2687.46 2514.08 2681.63 Q2514.08 2675.79 2510.97 2672.43 Q2507.81 2669.07 2502.38 2669.07 Q2496.91 2669.07 2493.79 2672.43 Q2490.67 2675.75 2490.67 2681.63 M2487.19 2689.81 Q2485.89 2695.08 2482.29 2698.03 Q2478.68 2700.95 2473.49 2700.95 Q2466.24 2700.95 2462.03 2695.81 Q2457.82 2690.62 2457.82 2681.63 Q2457.82 2672.59 2462.03 2667.45 Q2466.24 2662.3 2473.49 2662.3 Q2478.68 2662.3 2482.29 2665.26 Q2485.89 2668.18 2487.19 2673.4 Q2488.56 2667.49 2492.57 2664.21 Q2496.58 2660.89 2502.38 2660.89 Q2511.17 2660.89 2515.87 2666.27 Q2520.57 2671.62 2520.57 2681.63 Q2520.57 2691.63 2515.87 2697.02 Q2511.17 2702.37 2502.38 2702.37 Q2496.58 2702.37 2492.57 2699.05 Q2488.56 2695.72 2487.19 2689.81 M2474.26 2692.81 Q2478.96 2692.81 2481.6 2689.89 Q2484.23 2686.93 2484.23 2681.63 Q2484.23 2676.36 2481.6 2673.4 Q2478.96 2670.41 2474.26 2670.41 Q2469.57 2670.41 2466.93 2673.4 Q2464.3 2676.36 2464.3 2681.63 Q2464.3 2686.93 2466.93 2689.89 Q2469.57 2692.81 2474.26 2692.81 Z" fill="#000000" fill-rule="nonzero" fill-opacity="1" /><path clip-path="url(#clip510)" d="M2490.67 2628.84 Q2490.67 2634.68 2493.79 2638.04 Q2496.91 2641.36 2502.38 2641.36 Q2507.85 2641.36 2510.97 2638.04 Q2514.08 2634.68 2514.08 2628.84 Q2514.08 2623.01 2510.97 2619.65 Q2507.81 2616.29 2502.38 2616.29 Q2496.91 2616.29 2493.79 2619.65 Q2490.67 2622.97 2490.67 2628.84 M2487.19 2637.03 Q2485.89 2642.29 2482.29 2645.25 Q2478.68 2648.17 2473.49 2648.17 Q2466.24 2648.17 2462.03 2643.02 Q2457.82 2637.84 2457.82 2628.84 Q2457.82 2619.81 2462.03 2614.67 Q2466.24 2609.52 2473.49 2609.52 Q2478.68 2609.52 2482.29 2612.48 Q2485.89 2615.39 2487.19 2620.62 Q2488.56 2614.71 2492.57 2611.42 Q2496.58 2608.1 2502.38 2608.1 Q2511.17 2608.1 2515.87 2613.49 Q2520.57 2618.84 2520.57 2628.84 Q2520.57 2638.85 2515.87 2644.24 Q2511.17 2649.58 2502.38 2649.58 Q2496.58 2649.58 2492.57 2646.26 Q2488.56 2642.94 2487.19 2637.03 M2474.26 2640.02 Q2478.96 2640.02 2481.6 2637.11 Q2484.23 2634.15 2484.23 2628.84 Q2484.23 2623.58 2481.6 2620.62 Q2478.96 2617.62 2474.26 2617.62 Q2469.57 2617.62 2466.93 2620.62 Q2464.3 2623.58 2464.3 2628.84 Q2464.3 2634.15 2466.93 2637.11 Q2469.57 2640.02 2474.26 2640.02 Z" fill="#000000" fill-rule="nonzero" fill-opacity="1" /><path clip-path="url(#clip510)" d="M2804.84 2751.51 L2804.84 2738.14 L2758.7 2738.14 L2761.62 2752.68 L2754.16 2752.68 L2751.25 2738.22 L2751.25 2730.04 L2804.84 2730.04 L2804.84 2716.67 L2811.73 2716.67 L2811.73 2751.51 L2804.84 2751.51 Z" fill="#000000" fill-rule="nonzero" fill-opacity="1" /><path clip-path="url(#clip510)" d="M2751.25 2700.06 L2751.25 2667.94 L2758.13 2667.94 L2758.13 2692.56 L2772.96 2692.56 Q2772.35 2690.78 2772.07 2689 Q2771.75 2687.22 2771.75 2685.43 Q2771.75 2675.31 2777.3 2669.39 Q2782.85 2663.48 2792.32 2663.48 Q2802.09 2663.48 2807.52 2669.56 Q2812.9 2675.63 2812.9 2686.69 Q2812.9 2690.5 2812.25 2694.47 Q2811.61 2698.4 2810.31 2702.61 L2802.09 2702.61 Q2804.07 2698.96 2805.04 2695.08 Q2806.02 2691.19 2806.02 2686.85 Q2806.02 2679.84 2802.33 2675.75 Q2798.64 2671.66 2792.32 2671.66 Q2786.01 2671.66 2782.32 2675.75 Q2778.63 2679.84 2778.63 2686.85 Q2778.63 2690.13 2779.36 2693.42 Q2780.09 2696.66 2781.63 2700.06 L2751.25 2700.06 Z" fill="#000000" fill-rule="nonzero" fill-opacity="1" /><path clip-path="url(#clip510)" d="M2758.38 2624.87 L2790.66 2645.53 L2790.66 2624.87 L2758.38 2624.87 M2751.25 2627.02 L2751.25 2616.73 L2790.66 2616.73 L2790.66 2608.1 L2797.47 2608.1 L2797.47 2616.73 L2811.73 2616.73 L2811.73 2624.87 L2797.47 2624.87 L2797.47 2652.18 L2789.57 2652.18 L2751.25 2627.02 Z" fill="#000000" fill-rule="nonzero" fill-opacity="1" /><path clip-path="url(#clip510)" d="M3097.18 2749.52 L3097.18 2736.15 L3051.04 2736.15 L3053.96 2750.7 L3046.5 2750.7 L3043.58 2736.23 L3043.58 2728.05 L3097.18 2728.05 L3097.18 2714.68 L3104.06 2714.68 L3104.06 2749.52 L3097.18 2749.52 Z" fill="#000000" fill-rule="nonzero" fill-opacity="1" /><path clip-path="url(#clip510)" d="M3075.34 2680.65 Q3075.34 2686.49 3078.46 2689.85 Q3081.58 2693.17 3087.05 2693.17 Q3092.52 2693.17 3095.64 2689.85 Q3098.76 2686.49 3098.76 2680.65 Q3098.76 2674.82 3095.64 2671.46 Q3092.48 2668.1 3087.05 2668.1 Q3081.58 2668.1 3078.46 2671.46 Q3075.34 2674.78 3075.34 2680.65 M3071.86 2688.84 Q3070.56 2694.1 3066.96 2697.06 Q3063.35 2699.98 3058.17 2699.98 Q3050.92 2699.98 3046.7 2694.83 Q3042.49 2689.65 3042.49 2680.65 Q3042.49 2671.62 3046.7 2666.48 Q3050.92 2661.33 3058.17 2661.33 Q3063.35 2661.33 3066.96 2664.29 Q3070.56 2667.21 3071.86 2672.43 Q3073.24 2666.52 3077.25 2663.24 Q3081.26 2659.91 3087.05 2659.91 Q3095.84 2659.91 3100.54 2665.3 Q3105.24 2670.65 3105.24 2680.65 Q3105.24 2690.66 3100.54 2696.05 Q3095.84 2701.4 3087.05 2701.4 Q3081.26 2701.4 3077.25 2698.07 Q3073.24 2694.75 3071.86 2688.84 M3058.94 2691.84 Q3063.64 2691.84 3066.27 2688.92 Q3068.9 2685.96 3068.9 2680.65 Q3068.9 2675.39 3066.27 2672.43 Q3063.64 2669.43 3058.94 2669.43 Q3054.24 2669.43 3051.61 2672.43 Q3048.97 2675.39 3048.97 2680.65 Q3048.97 2685.96 3051.61 2688.92 Q3054.24 2691.84 3058.94 2691.84 Z" fill="#000000" fill-rule="nonzero" fill-opacity="1" /><path clip-path="url(#clip510)" d="M3071.46 2620.58 Q3072.71 2614.71 3076.68 2611.42 Q3080.65 2608.1 3086.48 2608.1 Q3095.44 2608.1 3100.34 2614.26 Q3105.24 2620.42 3105.24 2631.76 Q3105.24 2635.57 3104.47 2639.62 Q3103.74 2643.63 3102.24 2647.92 L3094.34 2647.92 Q3096.33 2644.52 3097.34 2640.47 Q3098.35 2636.42 3098.35 2632 Q3098.35 2624.31 3095.32 2620.3 Q3092.28 2616.25 3086.48 2616.25 Q3081.14 2616.25 3078.14 2620.01 Q3075.1 2623.74 3075.1 2630.42 L3075.1 2637.47 L3068.38 2637.47 L3068.38 2630.1 Q3068.38 2624.06 3065.99 2620.86 Q3063.56 2617.66 3059.02 2617.66 Q3054.36 2617.66 3051.89 2620.99 Q3049.38 2624.27 3049.38 2630.42 Q3049.38 2633.79 3050.11 2637.63 Q3050.84 2641.48 3052.38 2646.1 L3045.08 2646.1 Q3043.79 2641.44 3043.14 2637.39 Q3042.49 2633.3 3042.49 2629.69 Q3042.49 2620.38 3046.74 2614.95 Q3050.96 2609.52 3058.17 2609.52 Q3063.19 2609.52 3066.68 2612.4 Q3070.12 2615.27 3071.46 2620.58 Z" fill="#000000" fill-rule="nonzero" fill-opacity="1" /><polyline clip-path="url(#clip510)" style="stroke:#000000; stroke-linecap:round; stroke-linejoin:round; stroke-width:4; stroke-opacity:1; fill:none" points="363.863,2582.5 363.863,142.372 "/>
<polyline clip-path="url(#clip510)" style="stroke:#000000; stroke-linecap:round; stroke-linejoin:round; stroke-width:4; stroke-opacity:1; fill:none" points="363.863,2379.16 382.761,2379.16 "/>
<polyline clip-path="url(#clip510)" style="stroke:#000000; stroke-linecap:round; stroke-linejoin:round; stroke-width:4; stroke-opacity:1; fill:none" points="363.863,1870.8 382.761,1870.8 "/>
<polyline clip-path="url(#clip510)" style="stroke:#000000; stroke-linecap:round; stroke-linejoin:round; stroke-width:4; stroke-opacity:1; fill:none" points="363.863,1362.44 382.761,1362.44 "/>
<polyline clip-path="url(#clip510)" style="stroke:#000000; stroke-linecap:round; stroke-linejoin:round; stroke-width:4; stroke-opacity:1; fill:none" points="363.863,854.077 382.761,854.077 "/>
<polyline clip-path="url(#clip510)" style="stroke:#000000; stroke-linecap:round; stroke-linejoin:round; stroke-width:4; stroke-opacity:1; fill:none" points="363.863,345.716 382.761,345.716 "/>
<path clip-path="url(#clip510)" d="M163.023 2354.31 Q156.703 2354.31 153.503 2360.55 Q150.343 2366.74 150.343 2379.22 Q150.343 2391.66 153.503 2397.89 Q156.703 2404.09 163.023 2404.09 Q169.383 2404.09 172.542 2397.89 Q175.743 2391.66 175.743 2379.22 Q175.743 2366.74 172.542 2360.55 Q169.383 2354.31 163.023 2354.31 M163.023 2347.83 Q173.191 2347.83 178.538 2355.89 Q183.925 2363.91 183.925 2379.22 Q183.925 2394.49 178.538 2402.55 Q173.191 2410.57 163.023 2410.57 Q152.855 2410.57 147.467 2402.55 Q142.12 2394.49 142.12 2379.22 Q142.12 2363.91 147.467 2355.89 Q152.855 2347.83 163.023 2347.83 Z" fill="#000000" fill-rule="nonzero" fill-opacity="1" /><path clip-path="url(#clip510)" d="M198.306 2399.11 L206.854 2399.11 L206.854 2409.4 L198.306 2409.4 L198.306 2399.11 Z" fill="#000000" fill-rule="nonzero" fill-opacity="1" /><path clip-path="url(#clip510)" d="M242.177 2354.31 Q235.858 2354.31 232.658 2360.55 Q229.498 2366.74 229.498 2379.22 Q229.498 2391.66 232.658 2397.89 Q235.858 2404.09 242.177 2404.09 Q248.537 2404.09 251.697 2397.89 Q254.897 2391.66 254.897 2379.22 Q254.897 2366.74 251.697 2360.55 Q248.537 2354.31 242.177 2354.31 M242.177 2347.83 Q252.345 2347.83 257.692 2355.89 Q263.08 2363.91 263.08 2379.22 Q263.08 2394.49 257.692 2402.55 Q252.345 2410.57 242.177 2410.57 Q232.01 2410.57 226.622 2402.55 Q221.275 2394.49 221.275 2379.22 Q221.275 2363.91 226.622 2355.89 Q232.01 2347.83 242.177 2347.83 Z" fill="#000000" fill-rule="nonzero" fill-opacity="1" /><path clip-path="url(#clip510)" d="M294.961 2354.31 Q288.641 2354.31 285.441 2360.55 Q282.281 2366.74 282.281 2379.22 Q282.281 2391.66 285.441 2397.89 Q288.641 2404.09 294.961 2404.09 Q301.321 2404.09 304.48 2397.89 Q307.681 2391.66 307.681 2379.22 Q307.681 2366.74 304.48 2360.55 Q301.321 2354.31 294.961 2354.31 M294.961 2347.83 Q305.129 2347.83 310.476 2355.89 Q315.863 2363.91 315.863 2379.22 Q315.863 2394.49 310.476 2402.55 Q305.129 2410.57 294.961 2410.57 Q284.793 2410.57 279.405 2402.55 Q274.058 2394.49 274.058 2379.22 Q274.058 2363.91 279.405 2355.89 Q284.793 2347.83 294.961 2347.83 Z" fill="#000000" fill-rule="nonzero" fill-opacity="1" /><path clip-path="url(#clip510)" d="M164.765 1845.95 Q158.445 1845.95 155.245 1852.18 Q152.085 1858.38 152.085 1870.86 Q152.085 1883.3 155.245 1889.53 Q158.445 1895.73 164.765 1895.73 Q171.125 1895.73 174.284 1889.53 Q177.485 1883.3 177.485 1870.86 Q177.485 1858.38 174.284 1852.18 Q171.125 1845.95 164.765 1845.95 M164.765 1839.46 Q174.932 1839.46 180.28 1847.53 Q185.667 1855.55 185.667 1870.86 Q185.667 1886.13 180.28 1894.19 Q174.932 1902.21 164.765 1902.21 Q154.597 1902.21 149.209 1894.19 Q143.862 1886.13 143.862 1870.86 Q143.862 1855.55 149.209 1847.53 Q154.597 1839.46 164.765 1839.46 Z" fill="#000000" fill-rule="nonzero" fill-opacity="1" /><path clip-path="url(#clip510)" d="M200.048 1890.75 L208.595 1890.75 L208.595 1901.04 L200.048 1901.04 L200.048 1890.75 Z" fill="#000000" fill-rule="nonzero" fill-opacity="1" /><path clip-path="url(#clip510)" d="M233.468 1894.15 L262.027 1894.15 L262.027 1901.04 L223.624 1901.04 L223.624 1894.15 Q228.283 1889.33 236.304 1881.23 Q244.365 1873.09 246.431 1870.74 Q250.36 1866.32 251.9 1863.28 Q253.48 1860.21 253.48 1857.25 Q253.48 1852.43 250.077 1849.39 Q246.715 1846.35 241.286 1846.35 Q237.438 1846.35 233.144 1847.69 Q228.891 1849.02 224.029 1851.74 L224.029 1843.47 Q228.972 1841.49 233.266 1840.48 Q237.559 1839.46 241.124 1839.46 Q250.522 1839.46 256.113 1844.16 Q261.703 1848.86 261.703 1856.72 Q261.703 1860.45 260.285 1863.81 Q258.908 1867.13 255.221 1871.67 Q254.209 1872.84 248.78 1878.47 Q243.352 1884.07 233.468 1894.15 Z" fill="#000000" fill-rule="nonzero" fill-opacity="1" /><path clip-path="url(#clip510)" d="M279.284 1840.56 L311.407 1840.56 L311.407 1847.44 L286.778 1847.44 L286.778 1862.27 Q288.56 1861.66 290.343 1861.38 Q292.125 1861.06 293.908 1861.06 Q304.035 1861.06 309.949 1866.61 Q315.863 1872.16 315.863 1881.63 Q315.863 1891.4 309.787 1896.83 Q303.711 1902.21 292.652 1902.21 Q288.844 1902.21 284.874 1901.56 Q280.945 1900.92 276.732 1899.62 L276.732 1891.4 Q280.378 1893.38 284.266 1894.35 Q288.155 1895.33 292.49 1895.33 Q299.498 1895.33 303.589 1891.64 Q307.681 1887.95 307.681 1881.63 Q307.681 1875.32 303.589 1871.63 Q299.498 1867.94 292.49 1867.94 Q289.208 1867.94 285.927 1868.67 Q282.687 1869.4 279.284 1870.94 L279.284 1840.56 Z" fill="#000000" fill-rule="nonzero" fill-opacity="1" /><path clip-path="url(#clip510)" d="M163.023 1337.59 Q156.703 1337.59 153.503 1343.82 Q150.343 1350.02 150.343 1362.5 Q150.343 1374.93 153.503 1381.17 Q156.703 1387.37 163.023 1387.37 Q169.383 1387.37 172.542 1381.17 Q175.743 1374.93 175.743 1362.5 Q175.743 1350.02 172.542 1343.82 Q169.383 1337.59 163.023 1337.59 M163.023 1331.1 Q173.191 1331.1 178.538 1339.17 Q183.925 1347.19 183.925 1362.5 Q183.925 1377.77 178.538 1385.83 Q173.191 1393.85 163.023 1393.85 Q152.855 1393.85 147.467 1385.83 Q142.12 1377.77 142.12 1362.5 Q142.12 1347.19 147.467 1339.17 Q152.855 1331.1 163.023 1331.1 Z" fill="#000000" fill-rule="nonzero" fill-opacity="1" /><path clip-path="url(#clip510)" d="M198.306 1382.39 L206.854 1382.39 L206.854 1392.68 L198.306 1392.68 L198.306 1382.39 Z" fill="#000000" fill-rule="nonzero" fill-opacity="1" /><path clip-path="url(#clip510)" d="M224.759 1332.2 L256.882 1332.2 L256.882 1339.08 L232.253 1339.08 L232.253 1353.91 Q234.035 1353.3 235.818 1353.02 Q237.6 1352.7 239.382 1352.7 Q249.51 1352.7 255.424 1358.24 Q261.338 1363.79 261.338 1373.27 Q261.338 1383.04 255.262 1388.46 Q249.186 1393.85 238.127 1393.85 Q234.319 1393.85 230.349 1393.2 Q226.419 1392.56 222.207 1391.26 L222.207 1383.04 Q225.852 1385.02 229.741 1385.99 Q233.63 1386.97 237.965 1386.97 Q244.973 1386.97 249.064 1383.28 Q253.155 1379.59 253.155 1373.27 Q253.155 1366.95 249.064 1363.27 Q244.973 1359.58 237.965 1359.58 Q234.683 1359.58 231.402 1360.31 Q228.161 1361.04 224.759 1362.58 L224.759 1332.2 Z" fill="#000000" fill-rule="nonzero" fill-opacity="1" /><path clip-path="url(#clip510)" d="M294.961 1337.59 Q288.641 1337.59 285.441 1343.82 Q282.281 1350.02 282.281 1362.5 Q282.281 1374.93 285.441 1381.17 Q288.641 1387.37 294.961 1387.37 Q301.321 1387.37 304.48 1381.17 Q307.681 1374.93 307.681 1362.5 Q307.681 1350.02 304.48 1343.82 Q301.321 1337.59 294.961 1337.59 M294.961 1331.1 Q305.129 1331.1 310.476 1339.17 Q315.863 1347.19 315.863 1362.5 Q315.863 1377.77 310.476 1385.83 Q305.129 1393.85 294.961 1393.85 Q284.793 1393.85 279.405 1385.83 Q274.058 1377.77 274.058 1362.5 Q274.058 1347.19 279.405 1339.17 Q284.793 1331.1 294.961 1331.1 Z" fill="#000000" fill-rule="nonzero" fill-opacity="1" /><path clip-path="url(#clip510)" d="M164.765 829.225 Q158.445 829.225 155.245 835.463 Q152.085 841.661 152.085 854.138 Q152.085 866.574 155.245 872.812 Q158.445 879.01 164.765 879.01 Q171.125 879.01 174.284 872.812 Q177.485 866.574 177.485 854.138 Q177.485 841.661 174.284 835.463 Q171.125 829.225 164.765 829.225 M164.765 822.743 Q174.932 822.743 180.28 830.805 Q185.667 838.825 185.667 854.138 Q185.667 869.41 180.28 877.471 Q174.932 885.492 164.765 885.492 Q154.597 885.492 149.209 877.471 Q143.862 869.41 143.862 854.138 Q143.862 838.825 149.209 830.805 Q154.597 822.743 164.765 822.743 Z" fill="#000000" fill-rule="nonzero" fill-opacity="1" /><path clip-path="url(#clip510)" d="M200.048 874.028 L208.595 874.028 L208.595 884.317 L200.048 884.317 L200.048 874.028 Z" fill="#000000" fill-rule="nonzero" fill-opacity="1" /><path clip-path="url(#clip510)" d="M224.354 823.837 L263.242 823.837 L263.242 827.321 L241.286 884.317 L232.739 884.317 L253.398 830.724 L224.354 830.724 L224.354 823.837 Z" fill="#000000" fill-rule="nonzero" fill-opacity="1" /><path clip-path="url(#clip510)" d="M279.284 823.837 L311.407 823.837 L311.407 830.724 L286.778 830.724 L286.778 845.55 Q288.56 844.942 290.343 844.659 Q292.125 844.335 293.908 844.335 Q304.035 844.335 309.949 849.884 Q315.863 855.434 315.863 864.913 Q315.863 874.676 309.787 880.104 Q303.711 885.492 292.652 885.492 Q288.844 885.492 284.874 884.844 Q280.945 884.195 276.732 882.899 L276.732 874.676 Q280.378 876.661 284.266 877.633 Q288.155 878.605 292.49 878.605 Q299.498 878.605 303.589 874.919 Q307.681 871.233 307.681 864.913 Q307.681 858.594 303.589 854.907 Q299.498 851.221 292.49 851.221 Q289.208 851.221 285.927 851.95 Q282.687 852.679 279.284 854.219 L279.284 823.837 Z" fill="#000000" fill-rule="nonzero" fill-opacity="1" /><path clip-path="url(#clip510)" d="M146.941 369.07 L160.309 369.07 L160.309 322.93 L145.766 325.847 L145.766 318.393 L160.228 315.476 L168.411 315.476 L168.411 369.07 L181.779 369.07 L181.779 375.956 L146.941 375.956 L146.941 369.07 Z" fill="#000000" fill-rule="nonzero" fill-opacity="1" /><path clip-path="url(#clip510)" d="M198.306 365.667 L206.854 365.667 L206.854 375.956 L198.306 375.956 L198.306 365.667 Z" fill="#000000" fill-rule="nonzero" fill-opacity="1" /><path clip-path="url(#clip510)" d="M242.177 320.864 Q235.858 320.864 232.658 327.102 Q229.498 333.3 229.498 345.777 Q229.498 358.213 232.658 364.452 Q235.858 370.65 242.177 370.65 Q248.537 370.65 251.697 364.452 Q254.897 358.213 254.897 345.777 Q254.897 333.3 251.697 327.102 Q248.537 320.864 242.177 320.864 M242.177 314.383 Q252.345 314.383 257.692 322.444 Q263.08 330.465 263.08 345.777 Q263.08 361.049 257.692 369.11 Q252.345 377.131 242.177 377.131 Q232.01 377.131 226.622 369.11 Q221.275 361.049 221.275 345.777 Q221.275 330.465 226.622 322.444 Q232.01 314.383 242.177 314.383 Z" fill="#000000" fill-rule="nonzero" fill-opacity="1" /><path clip-path="url(#clip510)" d="M294.961 320.864 Q288.641 320.864 285.441 327.102 Q282.281 333.3 282.281 345.777 Q282.281 358.213 285.441 364.452 Q288.641 370.65 294.961 370.65 Q301.321 370.65 304.48 364.452 Q307.681 358.213 307.681 345.777 Q307.681 333.3 304.48 327.102 Q301.321 320.864 294.961 320.864 M294.961 314.383 Q305.129 314.383 310.476 322.444 Q315.863 330.465 315.863 345.777 Q315.863 361.049 310.476 369.11 Q305.129 377.131 294.961 377.131 Q284.793 377.131 279.405 369.11 Q274.058 361.049 274.058 345.777 Q274.058 330.465 279.405 322.444 Q284.793 314.383 294.961 314.383 Z" fill="#000000" fill-rule="nonzero" fill-opacity="1" /><path clip-path="url(#clip510)" d="M15.4962 1822.9 L15.4962 1810.71 L56.6533 1795.28 L15.4962 1779.76 L15.4962 1767.57 L75.9762 1767.57 L75.9762 1775.55 L22.8688 1775.55 L64.3501 1791.14 L64.3501 1799.37 L22.8688 1814.96 L75.9762 1814.96 L75.9762 1822.9 L15.4962 1822.9 Z" fill="#000000" fill-rule="nonzero" fill-opacity="1" /><path clip-path="url(#clip510)" d="M53.1696 1731.03 Q53.1696 1740.06 55.2355 1743.55 Q57.3015 1747.03 62.2841 1747.03 Q66.254 1747.03 68.6035 1744.44 Q70.9125 1741.8 70.9125 1737.31 Q70.9125 1731.11 66.5376 1727.38 Q62.1221 1723.62 54.8304 1723.62 L53.1696 1723.62 L53.1696 1731.03 M50.0909 1716.16 L75.9762 1716.16 L75.9762 1723.62 L69.0896 1723.62 Q73.2215 1726.17 75.2065 1729.98 Q77.1509 1733.78 77.1509 1739.29 Q77.1509 1746.26 73.2621 1750.39 Q69.3327 1754.48 62.7702 1754.48 Q55.114 1754.48 51.2251 1749.38 Q47.3363 1744.24 47.3363 1734.07 L47.3363 1723.62 L46.6071 1723.62 Q41.4625 1723.62 38.6673 1727.02 Q35.8317 1730.38 35.8317 1736.5 Q35.8317 1740.39 36.7634 1744.07 Q37.6951 1747.76 39.5585 1751.16 L32.672 1751.16 Q31.0921 1747.07 30.3225 1743.22 Q29.5123 1739.37 29.5123 1735.73 Q29.5123 1725.88 34.6164 1721.02 Q39.7206 1716.16 50.0909 1716.16 Z" fill="#000000" fill-rule="nonzero" fill-opacity="1" /><path clip-path="url(#clip510)" d="M30.606 1663.1 L52.6835 1679.5 L75.9762 1662.25 L75.9762 1671.04 L58.1522 1684.24 L75.9762 1697.45 L75.9762 1706.24 L52.2379 1688.62 L30.606 1704.74 L30.606 1695.95 L46.7691 1683.92 L30.606 1671.89 L30.606 1663.1 Z" fill="#000000" fill-rule="nonzero" fill-opacity="1" /><path clip-path="url(#clip510)" d="M65.6869 1650.66 L65.6869 1642.11 L75.9762 1642.11 L75.9762 1650.66 L65.6869 1650.66 Z" fill="#000000" fill-rule="nonzero" fill-opacity="1" /><path clip-path="url(#clip510)" d="M49.9288 1629.11 L49.9288 1607.27 L56.5723 1607.27 L56.5723 1629.11 L49.9288 1629.11 Z" fill="#000000" fill-rule="nonzero" fill-opacity="1" /><path clip-path="url(#clip510)" d="M48.592 1557.69 L75.9762 1557.69 L75.9762 1565.14 L48.8351 1565.14 Q42.3942 1565.14 39.1939 1567.66 Q35.9937 1570.17 35.9937 1575.19 Q35.9937 1581.23 39.8421 1584.71 Q43.6905 1588.19 50.3339 1588.19 L75.9762 1588.19 L75.9762 1595.69 L30.606 1595.69 L30.606 1588.19 L37.6546 1588.19 Q33.5632 1585.52 31.5377 1581.92 Q29.5123 1578.27 29.5123 1573.53 Q29.5123 1565.71 34.3734 1561.7 Q39.1939 1557.69 48.592 1557.69 Z" fill="#000000" fill-rule="nonzero" fill-opacity="1" /><path clip-path="url(#clip510)" d="M35.8317 1525.24 Q35.8317 1531.24 40.5307 1534.72 Q45.1893 1538.21 53.3316 1538.21 Q61.4739 1538.21 66.173 1534.76 Q70.8315 1531.28 70.8315 1525.24 Q70.8315 1519.29 66.1325 1515.8 Q61.4334 1512.32 53.3316 1512.32 Q45.2703 1512.32 40.5713 1515.8 Q35.8317 1519.29 35.8317 1525.24 M29.5123 1525.24 Q29.5123 1515.52 35.8317 1509.97 Q42.1511 1504.42 53.3316 1504.42 Q64.4716 1504.42 70.8315 1509.97 Q77.1509 1515.52 77.1509 1525.24 Q77.1509 1535.01 70.8315 1540.56 Q64.4716 1546.07 53.3316 1546.07 Q42.1511 1546.07 35.8317 1540.56 Q29.5123 1535.01 29.5123 1525.24 Z" fill="#000000" fill-rule="nonzero" fill-opacity="1" /><path clip-path="url(#clip510)" d="M37.5736 1465.78 Q36.8444 1467.03 36.5204 1468.53 Q36.1558 1469.99 36.1558 1471.77 Q36.1558 1478.09 40.2877 1481.49 Q44.3791 1484.86 52.0758 1484.86 L75.9762 1484.86 L75.9762 1492.35 L30.606 1492.35 L30.606 1484.86 L37.6546 1484.86 Q33.5227 1482.51 31.5377 1478.74 Q29.5123 1474.97 29.5123 1469.58 Q29.5123 1468.81 29.6338 1467.88 Q29.7148 1466.95 29.9174 1465.82 L37.5736 1465.78 Z" fill="#000000" fill-rule="nonzero" fill-opacity="1" /><path clip-path="url(#clip510)" d="M39.3155 1424.09 Q34.2924 1421.3 31.9023 1417.41 Q29.5123 1413.52 29.5123 1408.25 Q29.5123 1401.16 34.4949 1397.32 Q39.437 1393.47 48.592 1393.47 L75.9762 1393.47 L75.9762 1400.96 L48.8351 1400.96 Q42.3131 1400.96 39.1534 1403.27 Q35.9937 1405.58 35.9937 1410.32 Q35.9937 1416.11 39.8421 1419.47 Q43.6905 1422.84 50.3339 1422.84 L75.9762 1422.84 L75.9762 1430.33 L48.8351 1430.33 Q42.2726 1430.33 39.1534 1432.64 Q35.9937 1434.95 35.9937 1439.77 Q35.9937 1445.48 39.8826 1448.84 Q43.731 1452.21 50.3339 1452.21 L75.9762 1452.21 L75.9762 1459.7 L30.606 1459.7 L30.606 1452.21 L37.6546 1452.21 Q33.4822 1449.65 31.4972 1446.09 Q29.5123 1442.52 29.5123 1437.62 Q29.5123 1432.68 32.0238 1429.24 Q34.5354 1425.75 39.3155 1424.09 Z" fill="#000000" fill-rule="nonzero" fill-opacity="1" /><path clip-path="url(#clip510)" d="M65.6869 1377.55 L65.6869 1369 L75.9762 1369 L75.9762 1377.55 L65.6869 1377.55 Z" fill="#000000" fill-rule="nonzero" fill-opacity="1" /><path clip-path="url(#clip510)" d="M32.3479 1293.21 L39.3155 1293.21 Q37.5736 1296.37 36.7229 1299.57 Q35.8317 1302.73 35.8317 1305.97 Q35.8317 1313.22 40.4497 1317.23 Q45.0272 1321.24 53.3316 1321.24 Q61.636 1321.24 66.254 1317.23 Q70.8315 1313.22 70.8315 1305.97 Q70.8315 1302.73 69.9808 1299.57 Q69.0896 1296.37 67.3477 1293.21 L74.2343 1293.21 Q75.6926 1296.33 76.4218 1299.69 Q77.1509 1303.01 77.1509 1306.78 Q77.1509 1317.03 70.71 1323.06 Q64.269 1329.1 53.3316 1329.1 Q42.2321 1329.1 35.8722 1323.02 Q29.5123 1316.91 29.5123 1306.29 Q29.5123 1302.85 30.2414 1299.57 Q30.9301 1296.29 32.3479 1293.21 Z" fill="#000000" fill-rule="nonzero" fill-opacity="1" /><path clip-path="url(#clip510)" d="M35.8317 1262.66 Q35.8317 1268.66 40.5307 1272.14 Q45.1893 1275.63 53.3316 1275.63 Q61.4739 1275.63 66.173 1272.18 Q70.8315 1268.7 70.8315 1262.66 Q70.8315 1256.71 66.1325 1253.23 Q61.4334 1249.74 53.3316 1249.74 Q45.2703 1249.74 40.5713 1253.23 Q35.8317 1256.71 35.8317 1262.66 M29.5123 1262.66 Q29.5123 1252.94 35.8317 1247.39 Q42.1511 1241.84 53.3316 1241.84 Q64.4716 1241.84 70.8315 1247.39 Q77.1509 1252.94 77.1509 1262.66 Q77.1509 1272.43 70.8315 1277.98 Q64.4716 1283.49 53.3316 1283.49 Q42.1511 1283.49 35.8317 1277.98 Q29.5123 1272.43 29.5123 1262.66 Z" fill="#000000" fill-rule="nonzero" fill-opacity="1" /><path clip-path="url(#clip510)" d="M51.4277 1190.68 L55.0735 1190.68 L55.0735 1224.95 Q62.7702 1224.46 66.8211 1220.33 Q70.8315 1216.16 70.8315 1208.75 Q70.8315 1204.45 69.7783 1200.44 Q68.725 1196.39 66.6186 1192.42 L73.6671 1192.42 Q75.3685 1196.43 76.2597 1200.64 Q77.1509 1204.86 77.1509 1209.19 Q77.1509 1220.05 70.8315 1226.41 Q64.5121 1232.73 53.7367 1232.73 Q42.5967 1232.73 36.0748 1226.73 Q29.5123 1220.7 29.5123 1210.49 Q29.5123 1201.33 35.4266 1196.03 Q41.3004 1190.68 51.4277 1190.68 M49.2402 1198.13 Q43.1233 1198.21 39.4775 1201.58 Q35.8317 1204.9 35.8317 1210.41 Q35.8317 1216.65 39.356 1220.41 Q42.8803 1224.14 49.2807 1224.71 L49.2402 1198.13 Z" fill="#000000" fill-rule="nonzero" fill-opacity="1" /><path clip-path="url(#clip510)" d="M12.9441 1155.48 L19.142 1155.48 L19.142 1162.61 Q19.142 1166.62 20.7623 1168.2 Q22.3827 1169.74 26.5956 1169.74 L30.606 1169.74 L30.606 1157.46 L36.3988 1157.46 L36.3988 1169.74 L75.9762 1169.74 L75.9762 1177.23 L36.3988 1177.23 L36.3988 1184.36 L30.606 1184.36 L30.606 1177.23 L27.4463 1177.23 Q19.8711 1177.23 16.4279 1173.71 Q12.9441 1170.18 12.9441 1162.53 L12.9441 1155.48 Z" fill="#000000" fill-rule="nonzero" fill-opacity="1" /><path clip-path="url(#clip510)" d="M12.9441 1126.27 L19.142 1126.27 L19.142 1133.4 Q19.142 1137.41 20.7623 1138.99 Q22.3827 1140.53 26.5956 1140.53 L30.606 1140.53 L30.606 1128.25 L36.3988 1128.25 L36.3988 1140.53 L75.9762 1140.53 L75.9762 1148.02 L36.3988 1148.02 L36.3988 1155.15 L30.606 1155.15 L30.606 1148.02 L27.4463 1148.02 Q19.8711 1148.02 16.4279 1144.5 Q12.9441 1140.97 12.9441 1133.32 L12.9441 1126.27 Z" fill="#000000" fill-rule="nonzero" fill-opacity="1" /><path clip-path="url(#clip510)" d="M30.606 1120.03 L30.606 1112.58 L75.9762 1112.58 L75.9762 1120.03 L30.606 1120.03 M12.9441 1120.03 L12.9441 1112.58 L22.3827 1112.58 L22.3827 1120.03 L12.9441 1120.03 Z" fill="#000000" fill-rule="nonzero" fill-opacity="1" /><path clip-path="url(#clip510)" d="M32.3479 1064.33 L39.3155 1064.33 Q37.5736 1067.49 36.7229 1070.69 Q35.8317 1073.85 35.8317 1077.09 Q35.8317 1084.34 40.4497 1088.35 Q45.0272 1092.36 53.3316 1092.36 Q61.636 1092.36 66.254 1088.35 Q70.8315 1084.34 70.8315 1077.09 Q70.8315 1073.85 69.9808 1070.69 Q69.0896 1067.49 67.3477 1064.33 L74.2343 1064.33 Q75.6926 1067.45 76.4218 1070.81 Q77.1509 1074.13 77.1509 1077.9 Q77.1509 1088.15 70.71 1094.19 Q64.269 1100.22 53.3316 1100.22 Q42.2321 1100.22 35.8722 1094.15 Q29.5123 1088.03 29.5123 1077.42 Q29.5123 1073.97 30.2414 1070.69 Q30.9301 1067.41 32.3479 1064.33 Z" fill="#000000" fill-rule="nonzero" fill-opacity="1" /><path clip-path="url(#clip510)" d="M30.606 1051.37 L30.606 1043.92 L75.9762 1043.92 L75.9762 1051.37 L30.606 1051.37 M12.9441 1051.37 L12.9441 1043.92 L22.3827 1043.92 L22.3827 1051.37 L12.9441 1051.37 Z" fill="#000000" fill-rule="nonzero" fill-opacity="1" /><path clip-path="url(#clip510)" d="M51.4277 989.511 L55.0735 989.511 L55.0735 1023.78 Q62.7702 1023.3 66.8211 1019.16 Q70.8315 1014.99 70.8315 1007.58 Q70.8315 1003.28 69.7783 999.274 Q68.725 995.223 66.6186 991.253 L73.6671 991.253 Q75.3685 995.264 76.2597 999.477 Q77.1509 1003.69 77.1509 1008.02 Q77.1509 1018.88 70.8315 1025.24 Q64.5121 1031.56 53.7367 1031.56 Q42.5967 1031.56 36.0748 1025.56 Q29.5123 1019.53 29.5123 1009.32 Q29.5123 1000.17 35.4266 994.859 Q41.3004 989.511 51.4277 989.511 M49.2402 996.965 Q43.1233 997.046 39.4775 1000.41 Q35.8317 1003.73 35.8317 1009.24 Q35.8317 1015.48 39.356 1019.25 Q42.8803 1022.97 49.2807 1023.54 L49.2402 996.965 Z" fill="#000000" fill-rule="nonzero" fill-opacity="1" /><path clip-path="url(#clip510)" d="M48.592 939.564 L75.9762 939.564 L75.9762 947.017 L48.8351 947.017 Q42.3942 947.017 39.1939 949.529 Q35.9937 952.041 35.9937 957.064 Q35.9937 963.1 39.8421 966.583 Q43.6905 970.067 50.3339 970.067 L75.9762 970.067 L75.9762 977.561 L30.606 977.561 L30.606 970.067 L37.6546 970.067 Q33.5632 967.393 31.5377 963.788 Q29.5123 960.142 29.5123 955.403 Q29.5123 947.585 34.3734 943.574 Q39.1939 939.564 48.592 939.564 Z" fill="#000000" fill-rule="nonzero" fill-opacity="1" /><path clip-path="url(#clip510)" d="M17.7242 917.324 L30.606 917.324 L30.606 901.971 L36.3988 901.971 L36.3988 917.324 L61.0283 917.324 Q66.5781 917.324 68.1579 915.825 Q69.7378 914.286 69.7378 909.628 L69.7378 901.971 L75.9762 901.971 L75.9762 909.628 Q75.9762 918.256 72.7759 921.537 Q69.5352 924.818 61.0283 924.818 L36.3988 924.818 L36.3988 930.287 L30.606 930.287 L30.606 924.818 L17.7242 924.818 L17.7242 917.324 Z" fill="#000000" fill-rule="nonzero" fill-opacity="1" /><path clip-path="url(#clip510)" d="M727.496 12.096 L778.659 12.096 L778.659 18.9825 L757.189 18.9825 L757.189 72.576 L748.966 72.576 L748.966 18.9825 L727.496 18.9825 L727.496 12.096 Z" fill="#000000" fill-rule="nonzero" fill-opacity="1" /><path clip-path="url(#clip510)" d="M789.718 32.4315 Q783.723 32.4315 780.239 37.1306 Q776.755 41.7891 776.755 49.9314 Q776.755 58.0738 780.199 62.7728 Q783.682 67.4314 789.718 67.4314 Q795.673 67.4314 799.157 62.7323 Q802.641 58.0333 802.641 49.9314 Q802.641 41.8701 799.157 37.1711 Q795.673 32.4315 789.718 32.4315 M789.718 26.1121 Q799.44 26.1121 804.99 32.4315 Q810.54 38.7509 810.54 49.9314 Q810.54 61.0714 804.99 67.4314 Q799.44 73.7508 789.718 73.7508 Q779.956 73.7508 774.406 67.4314 Q768.897 61.0714 768.897 49.9314 Q768.897 38.7509 774.406 32.4315 Q779.956 26.1121 789.718 26.1121 Z" fill="#000000" fill-rule="nonzero" fill-opacity="1" /><path clip-path="url(#clip510)" d="M830.106 65.7705 L830.106 89.8329 L822.612 89.8329 L822.612 27.2059 L830.106 27.2059 L830.106 34.0924 Q832.455 30.0415 836.02 28.0971 Q839.625 26.1121 844.608 26.1121 Q852.872 26.1121 858.016 32.6746 Q863.202 39.2371 863.202 49.9314 Q863.202 60.6258 858.016 67.1883 Q852.872 73.7508 844.608 73.7508 Q839.625 73.7508 836.02 71.8063 Q832.455 69.8214 830.106 65.7705 M855.464 49.9314 Q855.464 41.7081 852.062 37.0496 Q848.699 32.3505 842.785 32.3505 Q836.871 32.3505 833.468 37.0496 Q830.106 41.7081 830.106 49.9314 Q830.106 58.1548 833.468 62.8538 Q836.871 67.5124 842.785 67.5124 Q848.699 67.5124 852.062 62.8538 Q855.464 58.1548 855.464 49.9314 Z" fill="#000000" fill-rule="nonzero" fill-opacity="1" /><path clip-path="url(#clip510)" d="M904.399 65.6895 L917.767 65.6895 L917.767 19.5497 L903.225 22.4663 L903.225 15.0127 L917.686 12.096 L925.869 12.096 L925.869 65.6895 L939.237 65.6895 L939.237 72.576 L904.399 72.576 L904.399 65.6895 Z" fill="#000000" fill-rule="nonzero" fill-opacity="1" /><path clip-path="url(#clip510)" d="M973.265 17.4837 Q966.945 17.4837 963.745 23.7221 Q960.585 29.92 960.585 42.3968 Q960.585 54.833 963.745 61.0714 Q966.945 67.2693 973.265 67.2693 Q979.625 67.2693 982.784 61.0714 Q985.985 54.833 985.985 42.3968 Q985.985 29.92 982.784 23.7221 Q979.625 17.4837 973.265 17.4837 M973.265 11.0023 Q983.432 11.0023 988.78 19.0636 Q994.167 27.0843 994.167 42.3968 Q994.167 57.6687 988.78 65.73 Q983.432 73.7508 973.265 73.7508 Q963.097 73.7508 957.709 65.73 Q952.362 57.6687 952.362 42.3968 Q952.362 27.0843 957.709 19.0636 Q963.097 11.0023 973.265 11.0023 Z" fill="#000000" fill-rule="nonzero" fill-opacity="1" /><path clip-path="url(#clip510)" d="M1056.83 9.54393 L1056.83 15.7418 L1049.71 15.7418 Q1045.69 15.7418 1044.12 17.3622 Q1042.58 18.9825 1042.58 23.1955 L1042.58 27.2059 L1054.85 27.2059 L1054.85 32.9987 L1042.58 32.9987 L1042.58 72.576 L1035.08 72.576 L1035.08 32.9987 L1027.95 32.9987 L1027.95 27.2059 L1035.08 27.2059 L1035.08 24.0462 Q1035.08 16.471 1038.61 13.0277 Q1042.13 9.54393 1049.79 9.54393 L1056.83 9.54393 Z" fill="#000000" fill-rule="nonzero" fill-opacity="1" /><path clip-path="url(#clip510)" d="M1101.88 48.0275 L1101.88 51.6733 L1067.61 51.6733 Q1068.1 59.3701 1072.23 63.421 Q1076.4 67.4314 1083.81 67.4314 Q1088.11 67.4314 1092.12 66.3781 Q1096.17 65.3249 1100.14 63.2184 L1100.14 70.267 Q1096.13 71.9684 1091.92 72.8596 Q1087.7 73.7508 1083.37 73.7508 Q1072.51 73.7508 1066.15 67.4314 Q1059.83 61.1119 1059.83 50.3365 Q1059.83 39.1965 1065.83 32.6746 Q1071.86 26.1121 1082.07 26.1121 Q1091.23 26.1121 1096.53 32.0264 Q1101.88 37.9003 1101.88 48.0275 M1094.43 45.84 Q1094.35 39.7232 1090.98 36.0774 Q1087.66 32.4315 1082.15 32.4315 Q1075.91 32.4315 1072.15 35.9558 Q1068.42 39.4801 1067.85 45.8805 L1094.43 45.84 Z" fill="#000000" fill-rule="nonzero" fill-opacity="1" /><path clip-path="url(#clip510)" d="M1134.73 49.7694 Q1125.7 49.7694 1122.22 51.8354 Q1118.73 53.9013 1118.73 58.8839 Q1118.73 62.8538 1121.33 65.2034 Q1123.96 67.5124 1128.45 67.5124 Q1134.65 67.5124 1138.38 63.1374 Q1142.15 58.7219 1142.15 51.4303 L1142.15 49.7694 L1134.73 49.7694 M1149.6 46.6907 L1149.6 72.576 L1142.15 72.576 L1142.15 65.6895 Q1139.59 69.8214 1135.79 71.8063 Q1131.98 73.7508 1126.47 73.7508 Q1119.5 73.7508 1115.37 69.8619 Q1111.28 65.9325 1111.28 59.3701 Q1111.28 51.7138 1116.38 47.825 Q1121.53 43.9361 1131.7 43.9361 L1142.15 43.9361 L1142.15 43.2069 Q1142.15 38.0623 1138.74 35.2672 Q1135.38 32.4315 1129.27 32.4315 Q1125.38 32.4315 1121.69 33.3632 Q1118 34.295 1114.6 36.1584 L1114.6 29.2718 Q1118.69 27.692 1122.54 26.9223 Q1126.39 26.1121 1130.03 26.1121 Q1139.88 26.1121 1144.74 31.2163 Q1149.6 36.3204 1149.6 46.6907 Z" fill="#000000" fill-rule="nonzero" fill-opacity="1" /><path clip-path="url(#clip510)" d="M1172.33 14.324 L1172.33 27.2059 L1187.68 27.2059 L1187.68 32.9987 L1172.33 32.9987 L1172.33 57.6282 Q1172.33 63.1779 1173.82 64.7578 Q1175.36 66.3376 1180.02 66.3376 L1187.68 66.3376 L1187.68 72.576 L1180.02 72.576 Q1171.39 72.576 1168.11 69.3758 Q1164.83 66.1351 1164.83 57.6282 L1164.83 32.9987 L1159.36 32.9987 L1159.36 27.2059 L1164.83 27.2059 L1164.83 14.324 L1172.33 14.324 Z" fill="#000000" fill-rule="nonzero" fill-opacity="1" /><path clip-path="url(#clip510)" d="M1196.71 54.671 L1196.71 27.2059 L1204.17 27.2059 L1204.17 54.3874 Q1204.17 60.8284 1206.68 64.0691 Q1209.19 67.2693 1214.21 67.2693 Q1220.25 67.2693 1223.73 63.421 Q1227.26 59.5726 1227.26 52.9291 L1227.26 27.2059 L1234.71 27.2059 L1234.71 72.576 L1227.26 72.576 L1227.26 65.6084 Q1224.54 69.7404 1220.94 71.7658 Q1217.37 73.7508 1212.63 73.7508 Q1204.81 73.7508 1200.76 68.8897 Q1196.71 64.0286 1196.71 54.671 M1215.47 26.1121 L1215.47 26.1121 Z" fill="#000000" fill-rule="nonzero" fill-opacity="1" /><path clip-path="url(#clip510)" d="M1276.35 34.1734 Q1275.1 33.4443 1273.6 33.1202 Q1272.14 32.7556 1270.36 32.7556 Q1264.04 32.7556 1260.64 36.8875 Q1257.27 40.9789 1257.27 48.6757 L1257.27 72.576 L1249.78 72.576 L1249.78 27.2059 L1257.27 27.2059 L1257.27 34.2544 Q1259.62 30.1225 1263.39 28.1376 Q1267.16 26.1121 1272.55 26.1121 Q1273.32 26.1121 1274.25 26.2337 Q1275.18 26.3147 1276.31 26.5172 L1276.35 34.1734 Z" fill="#000000" fill-rule="nonzero" fill-opacity="1" /><path clip-path="url(#clip510)" d="M1321.16 48.0275 L1321.16 51.6733 L1286.89 51.6733 Q1287.37 59.3701 1291.5 63.421 Q1295.68 67.4314 1303.09 67.4314 Q1307.38 67.4314 1311.39 66.3781 Q1315.44 65.3249 1319.41 63.2184 L1319.41 70.267 Q1315.4 71.9684 1311.19 72.8596 Q1306.98 73.7508 1302.64 73.7508 Q1291.79 73.7508 1285.43 67.4314 Q1279.11 61.1119 1279.11 50.3365 Q1279.11 39.1965 1285.1 32.6746 Q1291.14 26.1121 1301.35 26.1121 Q1310.5 26.1121 1315.81 32.0264 Q1321.16 37.9003 1321.16 48.0275 M1313.7 45.84 Q1313.62 39.7232 1310.26 36.0774 Q1306.94 32.4315 1301.43 32.4315 Q1295.19 32.4315 1291.42 35.9558 Q1287.7 39.4801 1287.13 45.8805 L1313.7 45.84 Z" fill="#000000" fill-rule="nonzero" fill-opacity="1" /><path clip-path="url(#clip510)" d="M1362.31 28.5427 L1362.31 35.5912 Q1359.15 33.9709 1355.75 33.1607 Q1352.35 32.3505 1348.7 32.3505 Q1343.15 32.3505 1340.36 34.0519 Q1337.6 35.7533 1337.6 39.156 Q1337.6 41.7486 1339.59 43.2475 Q1341.57 44.7058 1347.57 46.0426 L1350.12 46.6097 Q1358.06 48.3111 1361.38 51.4303 Q1364.74 54.509 1364.74 60.0587 Q1364.74 66.3781 1359.72 70.0644 Q1354.74 73.7508 1345.99 73.7508 Q1342.34 73.7508 1338.37 73.0216 Q1334.44 72.3329 1330.07 70.9151 L1330.07 63.2184 Q1334.2 65.3654 1338.21 66.4591 Q1342.22 67.5124 1346.15 67.5124 Q1351.42 67.5124 1354.25 65.73 Q1357.09 63.9071 1357.09 60.6258 Q1357.09 57.5877 1355.02 55.9673 Q1353 54.3469 1346.07 52.8481 L1343.48 52.2405 Q1336.55 50.7821 1333.47 47.7845 Q1330.39 44.7463 1330.39 39.4801 Q1330.39 33.0797 1334.93 29.5959 Q1339.47 26.1121 1347.81 26.1121 Q1351.94 26.1121 1355.59 26.7198 Q1359.23 27.3274 1362.31 28.5427 Z" fill="#000000" fill-rule="nonzero" fill-opacity="1" /><path clip-path="url(#clip510)" d="M1425.95 9.54393 L1425.95 15.7418 L1418.82 15.7418 Q1414.81 15.7418 1413.23 17.3622 Q1411.69 18.9825 1411.69 23.1955 L1411.69 27.2059 L1423.97 27.2059 L1423.97 32.9987 L1411.69 32.9987 L1411.69 72.576 L1404.2 72.576 L1404.2 32.9987 L1397.07 32.9987 L1397.07 27.2059 L1404.2 27.2059 L1404.2 24.0462 Q1404.2 16.471 1407.72 13.0277 Q1411.25 9.54393 1418.9 9.54393 L1425.95 9.54393 Z" fill="#000000" fill-rule="nonzero" fill-opacity="1" /><path clip-path="url(#clip510)" d="M1449.77 32.4315 Q1443.78 32.4315 1440.29 37.1306 Q1436.81 41.7891 1436.81 49.9314 Q1436.81 58.0738 1440.25 62.7728 Q1443.74 67.4314 1449.77 67.4314 Q1455.73 67.4314 1459.21 62.7323 Q1462.69 58.0333 1462.69 49.9314 Q1462.69 41.8701 1459.21 37.1711 Q1455.73 32.4315 1449.77 32.4315 M1449.77 26.1121 Q1459.49 26.1121 1465.04 32.4315 Q1470.59 38.7509 1470.59 49.9314 Q1470.59 61.0714 1465.04 67.4314 Q1459.49 73.7508 1449.77 73.7508 Q1440.01 73.7508 1434.46 67.4314 Q1428.95 61.0714 1428.95 49.9314 Q1428.95 38.7509 1434.46 32.4315 Q1440.01 26.1121 1449.77 26.1121 Z" fill="#000000" fill-rule="nonzero" fill-opacity="1" /><path clip-path="url(#clip510)" d="M1509.24 34.1734 Q1507.98 33.4443 1506.49 33.1202 Q1505.03 32.7556 1503.24 32.7556 Q1496.93 32.7556 1493.52 36.8875 Q1490.16 40.9789 1490.16 48.6757 L1490.16 72.576 L1482.67 72.576 L1482.67 27.2059 L1490.16 27.2059 L1490.16 34.2544 Q1492.51 30.1225 1496.28 28.1376 Q1500.04 26.1121 1505.43 26.1121 Q1506.2 26.1121 1507.13 26.2337 Q1508.07 26.3147 1509.2 26.5172 L1509.24 34.1734 Z" fill="#000000" fill-rule="nonzero" fill-opacity="1" /><path clip-path="url(#clip510)" d="M1576.08 28.9478 L1576.08 35.9153 Q1572.92 34.1734 1569.72 33.3227 Q1566.56 32.4315 1563.32 32.4315 Q1556.07 32.4315 1552.06 37.0496 Q1548.05 41.6271 1548.05 49.9314 Q1548.05 58.2358 1552.06 62.8538 Q1556.07 67.4314 1563.32 67.4314 Q1566.56 67.4314 1569.72 66.5807 Q1572.92 65.6895 1576.08 63.9476 L1576.08 70.8341 Q1572.96 72.2924 1569.6 73.0216 Q1566.28 73.7508 1562.51 73.7508 Q1552.26 73.7508 1546.22 67.3098 Q1540.19 60.8689 1540.19 49.9314 Q1540.19 38.832 1546.27 32.472 Q1552.38 26.1121 1563 26.1121 Q1566.44 26.1121 1569.72 26.8413 Q1573 27.5299 1576.08 28.9478 Z" fill="#000000" fill-rule="nonzero" fill-opacity="1" /><path clip-path="url(#clip510)" d="M1589.04 9.54393 L1596.5 9.54393 L1596.5 72.576 L1589.04 72.576 L1589.04 9.54393 Z" fill="#000000" fill-rule="nonzero" fill-opacity="1" /><path clip-path="url(#clip510)" d="M1611.32 54.671 L1611.32 27.2059 L1618.78 27.2059 L1618.78 54.3874 Q1618.78 60.8284 1621.29 64.0691 Q1623.8 67.2693 1628.82 67.2693 Q1634.86 67.2693 1638.34 63.421 Q1641.87 59.5726 1641.87 52.9291 L1641.87 27.2059 L1649.32 27.2059 L1649.32 72.576 L1641.87 72.576 L1641.87 65.6084 Q1639.15 69.7404 1635.55 71.7658 Q1631.98 73.7508 1627.24 73.7508 Q1619.42 73.7508 1615.37 68.8897 Q1611.32 64.0286 1611.32 54.671 M1630.08 26.1121 L1630.08 26.1121 Z" fill="#000000" fill-rule="nonzero" fill-opacity="1" /><path clip-path="url(#clip510)" d="M1693.6 28.5427 L1693.6 35.5912 Q1690.44 33.9709 1687.03 33.1607 Q1683.63 32.3505 1679.99 32.3505 Q1674.44 32.3505 1671.64 34.0519 Q1668.89 35.7533 1668.89 39.156 Q1668.89 41.7486 1670.87 43.2475 Q1672.86 44.7058 1678.85 46.0426 L1681.4 46.6097 Q1689.34 48.3111 1692.66 51.4303 Q1696.03 54.509 1696.03 60.0587 Q1696.03 66.3781 1691 70.0644 Q1686.02 73.7508 1677.27 73.7508 Q1673.63 73.7508 1669.66 73.0216 Q1665.73 72.3329 1661.35 70.9151 L1661.35 63.2184 Q1665.48 65.3654 1669.49 66.4591 Q1673.5 67.5124 1677.43 67.5124 Q1682.7 67.5124 1685.54 65.73 Q1688.37 63.9071 1688.37 60.6258 Q1688.37 57.5877 1686.3 55.9673 Q1684.28 54.3469 1677.35 52.8481 L1674.76 52.2405 Q1667.83 50.7821 1664.75 47.7845 Q1661.68 44.7463 1661.68 39.4801 Q1661.68 33.0797 1666.21 29.5959 Q1670.75 26.1121 1679.09 26.1121 Q1683.23 26.1121 1686.87 26.7198 Q1690.52 27.3274 1693.6 28.5427 Z" fill="#000000" fill-rule="nonzero" fill-opacity="1" /><path clip-path="url(#clip510)" d="M1715.27 14.324 L1715.27 27.2059 L1730.62 27.2059 L1730.62 32.9987 L1715.27 32.9987 L1715.27 57.6282 Q1715.27 63.1779 1716.77 64.7578 Q1718.31 66.3376 1722.97 66.3376 L1730.62 66.3376 L1730.62 72.576 L1722.97 72.576 Q1714.34 72.576 1711.06 69.3758 Q1707.77 66.1351 1707.77 57.6282 L1707.77 32.9987 L1702.31 32.9987 L1702.31 27.2059 L1707.77 27.2059 L1707.77 14.324 L1715.27 14.324 Z" fill="#000000" fill-rule="nonzero" fill-opacity="1" /><path clip-path="url(#clip510)" d="M1779.23 48.0275 L1779.23 51.6733 L1744.96 51.6733 Q1745.45 59.3701 1749.58 63.421 Q1753.75 67.4314 1761.17 67.4314 Q1765.46 67.4314 1769.47 66.3781 Q1773.52 65.3249 1777.49 63.2184 L1777.49 70.267 Q1773.48 71.9684 1769.27 72.8596 Q1765.05 73.7508 1760.72 73.7508 Q1749.86 73.7508 1743.5 67.4314 Q1737.18 61.1119 1737.18 50.3365 Q1737.18 39.1965 1743.18 32.6746 Q1749.22 26.1121 1759.42 26.1121 Q1768.58 26.1121 1773.89 32.0264 Q1779.23 37.9003 1779.23 48.0275 M1771.78 45.84 Q1771.7 39.7232 1768.34 36.0774 Q1765.01 32.4315 1759.5 32.4315 Q1753.27 32.4315 1749.5 35.9558 Q1745.77 39.4801 1745.2 45.8805 L1771.78 45.84 Z" fill="#000000" fill-rule="nonzero" fill-opacity="1" /><path clip-path="url(#clip510)" d="M1817.76 34.1734 Q1816.5 33.4443 1815 33.1202 Q1813.54 32.7556 1811.76 32.7556 Q1805.44 32.7556 1802.04 36.8875 Q1798.68 40.9789 1798.68 48.6757 L1798.68 72.576 L1791.18 72.576 L1791.18 27.2059 L1798.68 27.2059 L1798.68 34.2544 Q1801.03 30.1225 1804.79 28.1376 Q1808.56 26.1121 1813.95 26.1121 Q1814.72 26.1121 1815.65 26.2337 Q1816.58 26.3147 1817.72 26.5172 L1817.76 34.1734 Z" fill="#000000" fill-rule="nonzero" fill-opacity="1" /><path clip-path="url(#clip510)" d="M1849.11 19.2256 L1828.45 51.5113 L1849.11 51.5113 L1849.11 19.2256 M1846.96 12.096 L1857.25 12.096 L1857.25 51.5113 L1865.88 51.5113 L1865.88 58.3168 L1857.25 58.3168 L1857.25 72.576 L1849.11 72.576 L1849.11 58.3168 L1821.81 58.3168 L1821.81 50.4176 L1846.96 12.096 Z" fill="#000000" fill-rule="nonzero" fill-opacity="1" /><path clip-path="url(#clip510)" d="M1922.63 9.62495 Q1917.21 18.942 1914.57 28.0566 Q1911.94 37.1711 1911.94 46.5287 Q1911.94 55.8863 1914.57 65.0818 Q1917.25 74.2369 1922.63 83.5134 L1916.15 83.5134 Q1910.08 73.9938 1907.04 64.7983 Q1904.04 55.6027 1904.04 46.5287 Q1904.04 37.4952 1907.04 28.3401 Q1910.04 19.1851 1916.15 9.62495 L1922.63 9.62495 Z" fill="#000000" fill-rule="nonzero" fill-opacity="1" /><path clip-path="url(#clip510)" d="M1962.94 39.9662 Q1968.81 41.222 1972.1 45.1919 Q1975.42 49.1618 1975.42 54.9951 Q1975.42 63.9476 1969.26 68.8492 Q1963.1 73.7508 1951.76 73.7508 Q1947.95 73.7508 1943.9 72.9811 Q1939.89 72.2519 1935.6 70.7531 L1935.6 62.8538 Q1939 64.8388 1943.05 65.8515 Q1947.1 66.8642 1951.52 66.8642 Q1959.21 66.8642 1963.22 63.826 Q1967.28 60.7879 1967.28 54.9951 Q1967.28 49.6479 1963.51 46.6502 Q1959.78 43.612 1953.1 43.612 L1946.05 43.612 L1946.05 36.8875 L1953.42 36.8875 Q1959.46 36.8875 1962.66 34.4975 Q1965.86 32.067 1965.86 27.5299 Q1965.86 22.8714 1962.54 20.4004 Q1959.25 17.8888 1953.1 17.8888 Q1949.74 17.8888 1945.89 18.618 Q1942.04 19.3471 1937.42 20.8865 L1937.42 13.5948 Q1942.08 12.2985 1946.13 11.6504 Q1950.22 11.0023 1953.83 11.0023 Q1963.14 11.0023 1968.57 15.2557 Q1974 19.4686 1974 26.6793 Q1974 31.7024 1971.12 35.1862 Q1968.25 38.6294 1962.94 39.9662 Z" fill="#000000" fill-rule="nonzero" fill-opacity="1" /><path clip-path="url(#clip510)" d="M2013.42 19.2256 L1992.76 51.5113 L2013.42 51.5113 L2013.42 19.2256 M2011.27 12.096 L2021.56 12.096 L2021.56 51.5113 L2030.19 51.5113 L2030.19 58.3168 L2021.56 58.3168 L2021.56 72.576 L2013.42 72.576 L2013.42 58.3168 L1986.11 58.3168 L1986.11 50.4176 L2011.27 12.096 Z" fill="#000000" fill-rule="nonzero" fill-opacity="1" /><path clip-path="url(#clip510)" d="M2106.75 45.1919 L2106.75 72.576 L2099.29 72.576 L2099.29 45.4349 Q2099.29 38.994 2096.78 35.7938 Q2094.27 32.5936 2089.25 32.5936 Q2083.21 32.5936 2079.73 36.4419 Q2076.24 40.2903 2076.24 46.9338 L2076.24 72.576 L2068.75 72.576 L2068.75 27.2059 L2076.24 27.2059 L2076.24 34.2544 Q2078.92 30.163 2082.52 28.1376 Q2086.17 26.1121 2090.91 26.1121 Q2098.73 26.1121 2102.74 30.9732 Q2106.75 35.7938 2106.75 45.1919 Z" fill="#000000" fill-rule="nonzero" fill-opacity="1" /><path clip-path="url(#clip510)" d="M2139.2 32.4315 Q2133.2 32.4315 2129.72 37.1306 Q2126.23 41.7891 2126.23 49.9314 Q2126.23 58.0738 2129.68 62.7728 Q2133.16 67.4314 2139.2 67.4314 Q2145.15 67.4314 2148.63 62.7323 Q2152.12 58.0333 2152.12 49.9314 Q2152.12 41.8701 2148.63 37.1711 Q2145.15 32.4315 2139.2 32.4315 M2139.2 26.1121 Q2148.92 26.1121 2154.47 32.4315 Q2160.02 38.7509 2160.02 49.9314 Q2160.02 61.0714 2154.47 67.4314 Q2148.92 73.7508 2139.2 73.7508 Q2129.43 73.7508 2123.88 67.4314 Q2118.37 61.0714 2118.37 49.9314 Q2118.37 38.7509 2123.88 32.4315 Q2129.43 26.1121 2139.2 26.1121 Z" fill="#000000" fill-rule="nonzero" fill-opacity="1" /><path clip-path="url(#clip510)" d="M2210.09 45.1919 L2210.09 72.576 L2202.63 72.576 L2202.63 45.4349 Q2202.63 38.994 2200.12 35.7938 Q2197.61 32.5936 2192.59 32.5936 Q2186.55 32.5936 2183.07 36.4419 Q2179.58 40.2903 2179.58 46.9338 L2179.58 72.576 L2172.09 72.576 L2172.09 27.2059 L2179.58 27.2059 L2179.58 34.2544 Q2182.26 30.163 2185.86 28.1376 Q2189.51 26.1121 2194.25 26.1121 Q2202.07 26.1121 2206.08 30.9732 Q2210.09 35.7938 2210.09 45.1919 Z" fill="#000000" fill-rule="nonzero" fill-opacity="1" /><path clip-path="url(#clip510)" d="M2221.71 27.2059 L2257.12 27.2059 L2257.12 34.0114 L2229.09 66.6212 L2257.12 66.6212 L2257.12 72.576 L2220.7 72.576 L2220.7 65.7705 L2248.73 33.1607 L2221.71 33.1607 L2221.71 27.2059 Z" fill="#000000" fill-rule="nonzero" fill-opacity="1" /><path clip-path="url(#clip510)" d="M2307.31 48.0275 L2307.31 51.6733 L2273.04 51.6733 Q2273.52 59.3701 2277.66 63.421 Q2281.83 67.4314 2289.24 67.4314 Q2293.54 67.4314 2297.55 66.3781 Q2301.6 65.3249 2305.57 63.2184 L2305.57 70.267 Q2301.56 71.9684 2297.34 72.8596 Q2293.13 73.7508 2288.8 73.7508 Q2277.94 73.7508 2271.58 67.4314 Q2265.26 61.1119 2265.26 50.3365 Q2265.26 39.1965 2271.26 32.6746 Q2277.29 26.1121 2287.5 26.1121 Q2296.65 26.1121 2301.96 32.0264 Q2307.31 37.9003 2307.31 48.0275 M2299.85 45.84 Q2299.77 39.7232 2296.41 36.0774 Q2293.09 32.4315 2287.58 32.4315 Q2281.34 32.4315 2277.57 35.9558 Q2273.85 39.4801 2273.28 45.8805 L2299.85 45.84 Z" fill="#000000" fill-rule="nonzero" fill-opacity="1" /><path clip-path="url(#clip510)" d="M2345.83 34.1734 Q2344.58 33.4443 2343.08 33.1202 Q2341.62 32.7556 2339.84 32.7556 Q2333.52 32.7556 2330.12 36.8875 Q2326.75 40.9789 2326.75 48.6757 L2326.75 72.576 L2319.26 72.576 L2319.26 27.2059 L2326.75 27.2059 L2326.75 34.2544 Q2329.1 30.1225 2332.87 28.1376 Q2336.64 26.1121 2342.02 26.1121 Q2342.79 26.1121 2343.73 26.2337 Q2344.66 26.3147 2345.79 26.5172 L2345.83 34.1734 Z" fill="#000000" fill-rule="nonzero" fill-opacity="1" /><path clip-path="url(#clip510)" d="M2369.41 32.4315 Q2363.41 32.4315 2359.93 37.1306 Q2356.45 41.7891 2356.45 49.9314 Q2356.45 58.0738 2359.89 62.7728 Q2363.37 67.4314 2369.41 67.4314 Q2375.36 67.4314 2378.85 62.7323 Q2382.33 58.0333 2382.33 49.9314 Q2382.33 41.8701 2378.85 37.1711 Q2375.36 32.4315 2369.41 32.4315 M2369.41 26.1121 Q2379.13 26.1121 2384.68 32.4315 Q2390.23 38.7509 2390.23 49.9314 Q2390.23 61.0714 2384.68 67.4314 Q2379.13 73.7508 2369.41 73.7508 Q2359.65 73.7508 2354.1 67.4314 Q2348.59 61.0714 2348.59 49.9314 Q2348.59 38.7509 2354.1 32.4315 Q2359.65 26.1121 2369.41 26.1121 Z" fill="#000000" fill-rule="nonzero" fill-opacity="1" /><path clip-path="url(#clip510)" d="M2451.93 9.54393 L2451.93 15.7418 L2444.8 15.7418 Q2440.79 15.7418 2439.21 17.3622 Q2437.67 18.9825 2437.67 23.1955 L2437.67 27.2059 L2449.94 27.2059 L2449.94 32.9987 L2437.67 32.9987 L2437.67 72.576 L2430.17 72.576 L2430.17 32.9987 L2423.04 32.9987 L2423.04 27.2059 L2430.17 27.2059 L2430.17 24.0462 Q2430.17 16.471 2433.7 13.0277 Q2437.22 9.54393 2444.88 9.54393 L2451.93 9.54393 Z" fill="#000000" fill-rule="nonzero" fill-opacity="1" /><path clip-path="url(#clip510)" d="M2496.97 48.0275 L2496.97 51.6733 L2462.7 51.6733 Q2463.19 59.3701 2467.32 63.421 Q2471.49 67.4314 2478.9 67.4314 Q2483.2 67.4314 2487.21 66.3781 Q2491.26 65.3249 2495.23 63.2184 L2495.23 70.267 Q2491.22 71.9684 2487.01 72.8596 Q2482.79 73.7508 2478.46 73.7508 Q2467.6 73.7508 2461.24 67.4314 Q2454.92 61.1119 2454.92 50.3365 Q2454.92 39.1965 2460.92 32.6746 Q2466.95 26.1121 2477.16 26.1121 Q2486.32 26.1121 2491.62 32.0264 Q2496.97 37.9003 2496.97 48.0275 M2489.52 45.84 Q2489.44 39.7232 2486.07 36.0774 Q2482.75 32.4315 2477.24 32.4315 Q2471.01 32.4315 2467.24 35.9558 Q2463.51 39.4801 2462.94 45.8805 L2489.52 45.84 Z" fill="#000000" fill-rule="nonzero" fill-opacity="1" /><path clip-path="url(#clip510)" d="M2529.82 49.7694 Q2520.79 49.7694 2517.31 51.8354 Q2513.82 53.9013 2513.82 58.8839 Q2513.82 62.8538 2516.42 65.2034 Q2519.05 67.5124 2523.55 67.5124 Q2529.74 67.5124 2533.47 63.1374 Q2537.24 58.7219 2537.24 51.4303 L2537.24 49.7694 L2529.82 49.7694 M2544.69 46.6907 L2544.69 72.576 L2537.24 72.576 L2537.24 65.6895 Q2534.69 69.8214 2530.88 71.8063 Q2527.07 73.7508 2521.56 73.7508 Q2514.59 73.7508 2510.46 69.8619 Q2506.37 65.9325 2506.37 59.3701 Q2506.37 51.7138 2511.47 47.825 Q2516.62 43.9361 2526.79 43.9361 L2537.24 43.9361 L2537.24 43.2069 Q2537.24 38.0623 2533.84 35.2672 Q2530.47 32.4315 2524.36 32.4315 Q2520.47 32.4315 2516.78 33.3632 Q2513.09 34.295 2509.69 36.1584 L2509.69 29.2718 Q2513.78 27.692 2517.63 26.9223 Q2521.48 26.1121 2525.13 26.1121 Q2534.97 26.1121 2539.83 31.2163 Q2544.69 36.3204 2544.69 46.6907 Z" fill="#000000" fill-rule="nonzero" fill-opacity="1" /><path clip-path="url(#clip510)" d="M2567.42 14.324 L2567.42 27.2059 L2582.77 27.2059 L2582.77 32.9987 L2567.42 32.9987 L2567.42 57.6282 Q2567.42 63.1779 2568.92 64.7578 Q2570.46 66.3376 2575.11 66.3376 L2582.77 66.3376 L2582.77 72.576 L2575.11 72.576 Q2566.49 72.576 2563.2 69.3758 Q2559.92 66.1351 2559.92 57.6282 L2559.92 32.9987 L2554.45 32.9987 L2554.45 27.2059 L2559.92 27.2059 L2559.92 14.324 L2567.42 14.324 Z" fill="#000000" fill-rule="nonzero" fill-opacity="1" /><path clip-path="url(#clip510)" d="M2591.8 54.671 L2591.8 27.2059 L2599.26 27.2059 L2599.26 54.3874 Q2599.26 60.8284 2601.77 64.0691 Q2604.28 67.2693 2609.3 67.2693 Q2615.34 67.2693 2618.82 63.421 Q2622.35 59.5726 2622.35 52.9291 L2622.35 27.2059 L2629.8 27.2059 L2629.8 72.576 L2622.35 72.576 L2622.35 65.6084 Q2619.63 69.7404 2616.03 71.7658 Q2612.46 73.7508 2607.72 73.7508 Q2599.91 73.7508 2595.85 68.8897 Q2591.8 64.0286 2591.8 54.671 M2610.56 26.1121 L2610.56 26.1121 Z" fill="#000000" fill-rule="nonzero" fill-opacity="1" /><path clip-path="url(#clip510)" d="M2671.44 34.1734 Q2670.19 33.4443 2668.69 33.1202 Q2667.23 32.7556 2665.45 32.7556 Q2659.13 32.7556 2655.73 36.8875 Q2652.36 40.9789 2652.36 48.6757 L2652.36 72.576 L2644.87 72.576 L2644.87 27.2059 L2652.36 27.2059 L2652.36 34.2544 Q2654.71 30.1225 2658.48 28.1376 Q2662.25 26.1121 2667.64 26.1121 Q2668.41 26.1121 2669.34 26.2337 Q2670.27 26.3147 2671.4 26.5172 L2671.44 34.1734 Z" fill="#000000" fill-rule="nonzero" fill-opacity="1" /><path clip-path="url(#clip510)" d="M2716.25 48.0275 L2716.25 51.6733 L2681.98 51.6733 Q2682.46 59.3701 2686.59 63.421 Q2690.77 67.4314 2698.18 67.4314 Q2702.47 67.4314 2706.48 66.3781 Q2710.54 65.3249 2714.51 63.2184 L2714.51 70.267 Q2710.49 71.9684 2706.28 72.8596 Q2702.07 73.7508 2697.73 73.7508 Q2686.88 73.7508 2680.52 67.4314 Q2674.2 61.1119 2674.2 50.3365 Q2674.2 39.1965 2680.19 32.6746 Q2686.23 26.1121 2696.44 26.1121 Q2705.59 26.1121 2710.9 32.0264 Q2716.25 37.9003 2716.25 48.0275 M2708.79 45.84 Q2708.71 39.7232 2705.35 36.0774 Q2702.03 32.4315 2696.52 32.4315 Q2690.28 32.4315 2686.51 35.9558 Q2682.79 39.4801 2682.22 45.8805 L2708.79 45.84 Z" fill="#000000" fill-rule="nonzero" fill-opacity="1" /><path clip-path="url(#clip510)" d="M2757.4 28.5427 L2757.4 35.5912 Q2754.24 33.9709 2750.84 33.1607 Q2747.44 32.3505 2743.79 32.3505 Q2738.24 32.3505 2735.45 34.0519 Q2732.69 35.7533 2732.69 39.156 Q2732.69 41.7486 2734.68 43.2475 Q2736.66 44.7058 2742.66 46.0426 L2745.21 46.6097 Q2753.15 48.3111 2756.47 51.4303 Q2759.83 54.509 2759.83 60.0587 Q2759.83 66.3781 2754.81 70.0644 Q2749.83 73.7508 2741.08 73.7508 Q2737.43 73.7508 2733.46 73.0216 Q2729.53 72.3329 2725.16 70.9151 L2725.16 63.2184 Q2729.29 65.3654 2733.3 66.4591 Q2737.31 67.5124 2741.24 67.5124 Q2746.51 67.5124 2749.34 65.73 Q2752.18 63.9071 2752.18 60.6258 Q2752.18 57.5877 2750.11 55.9673 Q2748.09 54.3469 2741.16 52.8481 L2738.57 52.2405 Q2731.64 50.7821 2728.56 47.7845 Q2725.48 44.7463 2725.48 39.4801 Q2725.48 33.0797 2730.02 29.5959 Q2734.56 26.1121 2742.9 26.1121 Q2747.03 26.1121 2750.68 26.7198 Q2754.33 27.3274 2757.4 28.5427 Z" fill="#000000" fill-rule="nonzero" fill-opacity="1" /><path clip-path="url(#clip510)" d="M2770.53 9.62495 L2777.01 9.62495 Q2783.09 19.1851 2786.08 28.3401 Q2789.12 37.4952 2789.12 46.5287 Q2789.12 55.6027 2786.08 64.7983 Q2783.09 73.9938 2777.01 83.5134 L2770.53 83.5134 Q2775.92 74.2369 2778.55 65.0818 Q2781.22 55.8863 2781.22 46.5287 Q2781.22 37.1711 2778.55 28.0566 Q2775.92 18.942 2770.53 9.62495 Z" fill="#000000" fill-rule="nonzero" fill-opacity="1" /><circle clip-path="url(#clip512)" cx="442.794" cy="345.716" r="28.8" fill="#590007" fill-rule="evenodd" fill-opacity="1" stroke="#000000" stroke-opacity="1" stroke-width="5.6"/>
<circle clip-path="url(#clip512)" cx="735.131" cy="359.751" r="28.8" fill="#5a0007" fill-rule="evenodd" fill-opacity="1" stroke="#000000" stroke-opacity="1" stroke-width="5.6"/>
<circle clip-path="url(#clip512)" cx="1027.47" cy="443.472" r="28.8" fill="#630707" fill-rule="evenodd" fill-opacity="1" stroke="#000000" stroke-opacity="1" stroke-width="5.6"/>
<circle clip-path="url(#clip512)" cx="1319.8" cy="620.079" r="28.8" fill="#761706" fill-rule="evenodd" fill-opacity="1" stroke="#000000" stroke-opacity="1" stroke-width="5.6"/>
<circle clip-path="url(#clip512)" cx="1612.14" cy="992.619" r="28.8" fill="#a6410f" fill-rule="evenodd" fill-opacity="1" stroke="#000000" stroke-opacity="1" stroke-width="5.6"/>
<circle clip-path="url(#clip512)" cx="1904.48" cy="1523.93" r="28.8" fill="#ca8359" fill-rule="evenodd" fill-opacity="1" stroke="#000000" stroke-opacity="1" stroke-width="5.6"/>
<circle clip-path="url(#clip512)" cx="2196.81" cy="1928.14" r="28.8" fill="#deb298" fill-rule="evenodd" fill-opacity="1" stroke="#000000" stroke-opacity="1" stroke-width="5.6"/>
<circle clip-path="url(#clip512)" cx="2489.15" cy="1945.73" r="28.8" fill="#dfb49b" fill-rule="evenodd" fill-opacity="1" stroke="#000000" stroke-opacity="1" stroke-width="5.6"/>
<circle clip-path="url(#clip512)" cx="2781.49" cy="1975.21" r="28.8" fill="#e1b7a0" fill-rule="evenodd" fill-opacity="1" stroke="#000000" stroke-opacity="1" stroke-width="5.6"/>
<circle clip-path="url(#clip512)" cx="3073.82" cy="1995.65" r="28.8" fill="#e2baa3" fill-rule="evenodd" fill-opacity="1" stroke="#000000" stroke-opacity="1" stroke-width="5.6"/>
<polyline clip-path="url(#clip512)" style="stroke:#000000; stroke-linecap:round; stroke-linejoin:round; stroke-width:6; stroke-opacity:1; fill:none" stroke-dasharray="24, 15" points="-2425.03,2379.16 5941.65,2379.16 "/>
</svg>
